%TF.GenerationSoftware,KiCad,Pcbnew,7.0.5*%
%TF.CreationDate,2024-02-18T16:55:31-05:00*%
%TF.ProjectId,pico-reset,7069636f-2d72-4657-9365-742e6b696361,rev?*%
%TF.SameCoordinates,Original*%
%TF.FileFunction,Drillmap*%
%TF.FilePolarity,Positive*%
%FSLAX45Y45*%
G04 Gerber Fmt 4.5, Leading zero omitted, Abs format (unit mm)*
G04 Created by KiCad (PCBNEW 7.0.5) date 2024-02-18 16:55:31*
%MOMM*%
%LPD*%
G01*
G04 APERTURE LIST*
%ADD10C,0.100000*%
%ADD11C,0.200000*%
%ADD12C,0.076200*%
G04 APERTURE END LIST*
D10*
X11001897Y-7974826D02*
X13121130Y-7974826D01*
X13121130Y-13104824D01*
X11001897Y-13104824D01*
X11001897Y-7974826D01*
D11*
D12*
X11137900Y-8089900D02*
X11214100Y-8166100D01*
X11214100Y-8089900D02*
X11137900Y-8166100D01*
X11137900Y-8343900D02*
X11214100Y-8420100D01*
X11214100Y-8343900D02*
X11137900Y-8420100D01*
X11137900Y-8597900D02*
X11214100Y-8674100D01*
X11214100Y-8597900D02*
X11137900Y-8674100D01*
X11137900Y-8851900D02*
X11214100Y-8928100D01*
X11214100Y-8851900D02*
X11137900Y-8928100D01*
X11137900Y-9105900D02*
X11214100Y-9182100D01*
X11214100Y-9105900D02*
X11137900Y-9182100D01*
X11137900Y-9359900D02*
X11214100Y-9436100D01*
X11214100Y-9359900D02*
X11137900Y-9436100D01*
X11137900Y-9613900D02*
X11214100Y-9690100D01*
X11214100Y-9613900D02*
X11137900Y-9690100D01*
X11137900Y-9867900D02*
X11214100Y-9944100D01*
X11214100Y-9867900D02*
X11137900Y-9944100D01*
X11137900Y-10121900D02*
X11214100Y-10198100D01*
X11214100Y-10121900D02*
X11137900Y-10198100D01*
X11137900Y-10375900D02*
X11214100Y-10452100D01*
X11214100Y-10375900D02*
X11137900Y-10452100D01*
X11137900Y-10629900D02*
X11214100Y-10706100D01*
X11214100Y-10629900D02*
X11137900Y-10706100D01*
X11137900Y-10883900D02*
X11214100Y-10960100D01*
X11214100Y-10883900D02*
X11137900Y-10960100D01*
X11137900Y-11137900D02*
X11214100Y-11214100D01*
X11214100Y-11137900D02*
X11137900Y-11214100D01*
X11137900Y-11391900D02*
X11214100Y-11468100D01*
X11214100Y-11391900D02*
X11137900Y-11468100D01*
X11137900Y-11645900D02*
X11214100Y-11722100D01*
X11214100Y-11645900D02*
X11137900Y-11722100D01*
X11137900Y-11899900D02*
X11214100Y-11976100D01*
X11214100Y-11899900D02*
X11137900Y-11976100D01*
X11137900Y-12153900D02*
X11214100Y-12230100D01*
X11214100Y-12153900D02*
X11137900Y-12230100D01*
X11137900Y-12407900D02*
X11214100Y-12484100D01*
X11214100Y-12407900D02*
X11137900Y-12484100D01*
X11137900Y-12661900D02*
X11214100Y-12738100D01*
X11214100Y-12661900D02*
X11137900Y-12738100D01*
X11137900Y-12915900D02*
X11214100Y-12992100D01*
X11214100Y-12915900D02*
X11137900Y-12992100D01*
X12915900Y-8089900D02*
X12992100Y-8166100D01*
X12992100Y-8089900D02*
X12915900Y-8166100D01*
X12915900Y-8343900D02*
X12992100Y-8420100D01*
X12992100Y-8343900D02*
X12915900Y-8420100D01*
X12915900Y-8597900D02*
X12992100Y-8674100D01*
X12992100Y-8597900D02*
X12915900Y-8674100D01*
X12915900Y-8851900D02*
X12992100Y-8928100D01*
X12992100Y-8851900D02*
X12915900Y-8928100D01*
X12915900Y-9105900D02*
X12992100Y-9182100D01*
X12992100Y-9105900D02*
X12915900Y-9182100D01*
X12915900Y-9359900D02*
X12992100Y-9436100D01*
X12992100Y-9359900D02*
X12915900Y-9436100D01*
X12915900Y-9613900D02*
X12992100Y-9690100D01*
X12992100Y-9613900D02*
X12915900Y-9690100D01*
X12915900Y-9867900D02*
X12992100Y-9944100D01*
X12992100Y-9867900D02*
X12915900Y-9944100D01*
X12915900Y-10121900D02*
X12992100Y-10198100D01*
X12992100Y-10121900D02*
X12915900Y-10198100D01*
X12915900Y-10375900D02*
X12992100Y-10452100D01*
X12992100Y-10375900D02*
X12915900Y-10452100D01*
X12915900Y-10629900D02*
X12992100Y-10706100D01*
X12992100Y-10629900D02*
X12915900Y-10706100D01*
X12915900Y-10883900D02*
X12992100Y-10960100D01*
X12992100Y-10883900D02*
X12915900Y-10960100D01*
X12915900Y-11137900D02*
X12992100Y-11214100D01*
X12992100Y-11137900D02*
X12915900Y-11214100D01*
X12915900Y-11391900D02*
X12992100Y-11468100D01*
X12992100Y-11391900D02*
X12915900Y-11468100D01*
X12915900Y-11645900D02*
X12992100Y-11722100D01*
X12992100Y-11645900D02*
X12915900Y-11722100D01*
X12915900Y-11899900D02*
X12992100Y-11976100D01*
X12992100Y-11899900D02*
X12915900Y-11976100D01*
X12915900Y-12153900D02*
X12992100Y-12230100D01*
X12992100Y-12153900D02*
X12915900Y-12230100D01*
X12915900Y-12407900D02*
X12992100Y-12484100D01*
X12992100Y-12407900D02*
X12915900Y-12484100D01*
X12915900Y-12661900D02*
X12992100Y-12738100D01*
X12992100Y-12661900D02*
X12915900Y-12738100D01*
X12915900Y-12915900D02*
X12992100Y-12992100D01*
X12992100Y-12915900D02*
X12915900Y-12992100D01*
D10*
X11894315Y-12032911D02*
G75*
G03*
X11894315Y-12032911I-50000J0D01*
G01*
X12148315Y-12032911D02*
G75*
G03*
X12148315Y-12032911I-50000J0D01*
G01*
X12402315Y-12032911D02*
G75*
G03*
X12402315Y-12032911I-50000J0D01*
G01*
D11*
X11257674Y-13421308D02*
X11257674Y-13221308D01*
X11257674Y-13221308D02*
X11305293Y-13221308D01*
X11305293Y-13221308D02*
X11333864Y-13230832D01*
X11333864Y-13230832D02*
X11352912Y-13249879D01*
X11352912Y-13249879D02*
X11362436Y-13268927D01*
X11362436Y-13268927D02*
X11371959Y-13307022D01*
X11371959Y-13307022D02*
X11371959Y-13335594D01*
X11371959Y-13335594D02*
X11362436Y-13373689D01*
X11362436Y-13373689D02*
X11352912Y-13392736D01*
X11352912Y-13392736D02*
X11333864Y-13411784D01*
X11333864Y-13411784D02*
X11305293Y-13421308D01*
X11305293Y-13421308D02*
X11257674Y-13421308D01*
X11457674Y-13421308D02*
X11457674Y-13287975D01*
X11457674Y-13326070D02*
X11467197Y-13307022D01*
X11467197Y-13307022D02*
X11476721Y-13297498D01*
X11476721Y-13297498D02*
X11495769Y-13287975D01*
X11495769Y-13287975D02*
X11514817Y-13287975D01*
X11581483Y-13421308D02*
X11581483Y-13287975D01*
X11581483Y-13221308D02*
X11571959Y-13230832D01*
X11571959Y-13230832D02*
X11581483Y-13240356D01*
X11581483Y-13240356D02*
X11591007Y-13230832D01*
X11591007Y-13230832D02*
X11581483Y-13221308D01*
X11581483Y-13221308D02*
X11581483Y-13240356D01*
X11705293Y-13421308D02*
X11686245Y-13411784D01*
X11686245Y-13411784D02*
X11676721Y-13392736D01*
X11676721Y-13392736D02*
X11676721Y-13221308D01*
X11810055Y-13421308D02*
X11791007Y-13411784D01*
X11791007Y-13411784D02*
X11781483Y-13392736D01*
X11781483Y-13392736D02*
X11781483Y-13221308D01*
X12038626Y-13421308D02*
X12038626Y-13221308D01*
X12038626Y-13221308D02*
X12105293Y-13364165D01*
X12105293Y-13364165D02*
X12171959Y-13221308D01*
X12171959Y-13221308D02*
X12171959Y-13421308D01*
X12352912Y-13421308D02*
X12352912Y-13316546D01*
X12352912Y-13316546D02*
X12343388Y-13297498D01*
X12343388Y-13297498D02*
X12324340Y-13287975D01*
X12324340Y-13287975D02*
X12286245Y-13287975D01*
X12286245Y-13287975D02*
X12267197Y-13297498D01*
X12352912Y-13411784D02*
X12333864Y-13421308D01*
X12333864Y-13421308D02*
X12286245Y-13421308D01*
X12286245Y-13421308D02*
X12267197Y-13411784D01*
X12267197Y-13411784D02*
X12257674Y-13392736D01*
X12257674Y-13392736D02*
X12257674Y-13373689D01*
X12257674Y-13373689D02*
X12267197Y-13354641D01*
X12267197Y-13354641D02*
X12286245Y-13345117D01*
X12286245Y-13345117D02*
X12333864Y-13345117D01*
X12333864Y-13345117D02*
X12352912Y-13335594D01*
X12448150Y-13287975D02*
X12448150Y-13487975D01*
X12448150Y-13297498D02*
X12467197Y-13287975D01*
X12467197Y-13287975D02*
X12505293Y-13287975D01*
X12505293Y-13287975D02*
X12524340Y-13297498D01*
X12524340Y-13297498D02*
X12533864Y-13307022D01*
X12533864Y-13307022D02*
X12543388Y-13326070D01*
X12543388Y-13326070D02*
X12543388Y-13383213D01*
X12543388Y-13383213D02*
X12533864Y-13402260D01*
X12533864Y-13402260D02*
X12524340Y-13411784D01*
X12524340Y-13411784D02*
X12505293Y-13421308D01*
X12505293Y-13421308D02*
X12467197Y-13421308D01*
X12467197Y-13421308D02*
X12448150Y-13411784D01*
X12629102Y-13402260D02*
X12638626Y-13411784D01*
X12638626Y-13411784D02*
X12629102Y-13421308D01*
X12629102Y-13421308D02*
X12619578Y-13411784D01*
X12619578Y-13411784D02*
X12629102Y-13402260D01*
X12629102Y-13402260D02*
X12629102Y-13421308D01*
X12629102Y-13297498D02*
X12638626Y-13307022D01*
X12638626Y-13307022D02*
X12629102Y-13316546D01*
X12629102Y-13316546D02*
X12619578Y-13307022D01*
X12619578Y-13307022D02*
X12629102Y-13297498D01*
X12629102Y-13297498D02*
X12629102Y-13316546D01*
D12*
X10920697Y-13711724D02*
X10996897Y-13787924D01*
X10996897Y-13711724D02*
X10920697Y-13787924D01*
D11*
X11295769Y-13641308D02*
X11314817Y-13641308D01*
X11314817Y-13641308D02*
X11333864Y-13650832D01*
X11333864Y-13650832D02*
X11343388Y-13660356D01*
X11343388Y-13660356D02*
X11352912Y-13679403D01*
X11352912Y-13679403D02*
X11362436Y-13717498D01*
X11362436Y-13717498D02*
X11362436Y-13765117D01*
X11362436Y-13765117D02*
X11352912Y-13803213D01*
X11352912Y-13803213D02*
X11343388Y-13822260D01*
X11343388Y-13822260D02*
X11333864Y-13831784D01*
X11333864Y-13831784D02*
X11314817Y-13841308D01*
X11314817Y-13841308D02*
X11295769Y-13841308D01*
X11295769Y-13841308D02*
X11276721Y-13831784D01*
X11276721Y-13831784D02*
X11267197Y-13822260D01*
X11267197Y-13822260D02*
X11257674Y-13803213D01*
X11257674Y-13803213D02*
X11248150Y-13765117D01*
X11248150Y-13765117D02*
X11248150Y-13717498D01*
X11248150Y-13717498D02*
X11257674Y-13679403D01*
X11257674Y-13679403D02*
X11267197Y-13660356D01*
X11267197Y-13660356D02*
X11276721Y-13650832D01*
X11276721Y-13650832D02*
X11295769Y-13641308D01*
X11448150Y-13822260D02*
X11457674Y-13831784D01*
X11457674Y-13831784D02*
X11448150Y-13841308D01*
X11448150Y-13841308D02*
X11438626Y-13831784D01*
X11438626Y-13831784D02*
X11448150Y-13822260D01*
X11448150Y-13822260D02*
X11448150Y-13841308D01*
X11524340Y-13641308D02*
X11657674Y-13641308D01*
X11657674Y-13641308D02*
X11571959Y-13841308D01*
X11819578Y-13641308D02*
X11781483Y-13641308D01*
X11781483Y-13641308D02*
X11762436Y-13650832D01*
X11762436Y-13650832D02*
X11752912Y-13660356D01*
X11752912Y-13660356D02*
X11733864Y-13688927D01*
X11733864Y-13688927D02*
X11724340Y-13727022D01*
X11724340Y-13727022D02*
X11724340Y-13803213D01*
X11724340Y-13803213D02*
X11733864Y-13822260D01*
X11733864Y-13822260D02*
X11743388Y-13831784D01*
X11743388Y-13831784D02*
X11762436Y-13841308D01*
X11762436Y-13841308D02*
X11800531Y-13841308D01*
X11800531Y-13841308D02*
X11819578Y-13831784D01*
X11819578Y-13831784D02*
X11829102Y-13822260D01*
X11829102Y-13822260D02*
X11838626Y-13803213D01*
X11838626Y-13803213D02*
X11838626Y-13755594D01*
X11838626Y-13755594D02*
X11829102Y-13736546D01*
X11829102Y-13736546D02*
X11819578Y-13727022D01*
X11819578Y-13727022D02*
X11800531Y-13717498D01*
X11800531Y-13717498D02*
X11762436Y-13717498D01*
X11762436Y-13717498D02*
X11743388Y-13727022D01*
X11743388Y-13727022D02*
X11733864Y-13736546D01*
X11733864Y-13736546D02*
X11724340Y-13755594D01*
X11914817Y-13660356D02*
X11924340Y-13650832D01*
X11924340Y-13650832D02*
X11943388Y-13641308D01*
X11943388Y-13641308D02*
X11991007Y-13641308D01*
X11991007Y-13641308D02*
X12010055Y-13650832D01*
X12010055Y-13650832D02*
X12019578Y-13660356D01*
X12019578Y-13660356D02*
X12029102Y-13679403D01*
X12029102Y-13679403D02*
X12029102Y-13698451D01*
X12029102Y-13698451D02*
X12019578Y-13727022D01*
X12019578Y-13727022D02*
X11905293Y-13841308D01*
X11905293Y-13841308D02*
X12029102Y-13841308D01*
X12114817Y-13841308D02*
X12114817Y-13707975D01*
X12114817Y-13727022D02*
X12124340Y-13717498D01*
X12124340Y-13717498D02*
X12143388Y-13707975D01*
X12143388Y-13707975D02*
X12171959Y-13707975D01*
X12171959Y-13707975D02*
X12191007Y-13717498D01*
X12191007Y-13717498D02*
X12200531Y-13736546D01*
X12200531Y-13736546D02*
X12200531Y-13841308D01*
X12200531Y-13736546D02*
X12210055Y-13717498D01*
X12210055Y-13717498D02*
X12229102Y-13707975D01*
X12229102Y-13707975D02*
X12257674Y-13707975D01*
X12257674Y-13707975D02*
X12276721Y-13717498D01*
X12276721Y-13717498D02*
X12286245Y-13736546D01*
X12286245Y-13736546D02*
X12286245Y-13841308D01*
X12381483Y-13841308D02*
X12381483Y-13707975D01*
X12381483Y-13727022D02*
X12391007Y-13717498D01*
X12391007Y-13717498D02*
X12410055Y-13707975D01*
X12410055Y-13707975D02*
X12438626Y-13707975D01*
X12438626Y-13707975D02*
X12457674Y-13717498D01*
X12457674Y-13717498D02*
X12467198Y-13736546D01*
X12467198Y-13736546D02*
X12467198Y-13841308D01*
X12467198Y-13736546D02*
X12476721Y-13717498D01*
X12476721Y-13717498D02*
X12495769Y-13707975D01*
X12495769Y-13707975D02*
X12524340Y-13707975D01*
X12524340Y-13707975D02*
X12543388Y-13717498D01*
X12543388Y-13717498D02*
X12552912Y-13736546D01*
X12552912Y-13736546D02*
X12552912Y-13841308D01*
X12943388Y-13631784D02*
X12771960Y-13888927D01*
X13200531Y-13641308D02*
X13219579Y-13641308D01*
X13219579Y-13641308D02*
X13238626Y-13650832D01*
X13238626Y-13650832D02*
X13248150Y-13660356D01*
X13248150Y-13660356D02*
X13257674Y-13679403D01*
X13257674Y-13679403D02*
X13267198Y-13717498D01*
X13267198Y-13717498D02*
X13267198Y-13765117D01*
X13267198Y-13765117D02*
X13257674Y-13803213D01*
X13257674Y-13803213D02*
X13248150Y-13822260D01*
X13248150Y-13822260D02*
X13238626Y-13831784D01*
X13238626Y-13831784D02*
X13219579Y-13841308D01*
X13219579Y-13841308D02*
X13200531Y-13841308D01*
X13200531Y-13841308D02*
X13181483Y-13831784D01*
X13181483Y-13831784D02*
X13171960Y-13822260D01*
X13171960Y-13822260D02*
X13162436Y-13803213D01*
X13162436Y-13803213D02*
X13152912Y-13765117D01*
X13152912Y-13765117D02*
X13152912Y-13717498D01*
X13152912Y-13717498D02*
X13162436Y-13679403D01*
X13162436Y-13679403D02*
X13171960Y-13660356D01*
X13171960Y-13660356D02*
X13181483Y-13650832D01*
X13181483Y-13650832D02*
X13200531Y-13641308D01*
X13352912Y-13822260D02*
X13362436Y-13831784D01*
X13362436Y-13831784D02*
X13352912Y-13841308D01*
X13352912Y-13841308D02*
X13343388Y-13831784D01*
X13343388Y-13831784D02*
X13352912Y-13822260D01*
X13352912Y-13822260D02*
X13352912Y-13841308D01*
X13486245Y-13641308D02*
X13505293Y-13641308D01*
X13505293Y-13641308D02*
X13524341Y-13650832D01*
X13524341Y-13650832D02*
X13533864Y-13660356D01*
X13533864Y-13660356D02*
X13543388Y-13679403D01*
X13543388Y-13679403D02*
X13552912Y-13717498D01*
X13552912Y-13717498D02*
X13552912Y-13765117D01*
X13552912Y-13765117D02*
X13543388Y-13803213D01*
X13543388Y-13803213D02*
X13533864Y-13822260D01*
X13533864Y-13822260D02*
X13524341Y-13831784D01*
X13524341Y-13831784D02*
X13505293Y-13841308D01*
X13505293Y-13841308D02*
X13486245Y-13841308D01*
X13486245Y-13841308D02*
X13467198Y-13831784D01*
X13467198Y-13831784D02*
X13457674Y-13822260D01*
X13457674Y-13822260D02*
X13448150Y-13803213D01*
X13448150Y-13803213D02*
X13438626Y-13765117D01*
X13438626Y-13765117D02*
X13438626Y-13717498D01*
X13438626Y-13717498D02*
X13448150Y-13679403D01*
X13448150Y-13679403D02*
X13457674Y-13660356D01*
X13457674Y-13660356D02*
X13467198Y-13650832D01*
X13467198Y-13650832D02*
X13486245Y-13641308D01*
X13619579Y-13641308D02*
X13743388Y-13641308D01*
X13743388Y-13641308D02*
X13676721Y-13717498D01*
X13676721Y-13717498D02*
X13705293Y-13717498D01*
X13705293Y-13717498D02*
X13724341Y-13727022D01*
X13724341Y-13727022D02*
X13733864Y-13736546D01*
X13733864Y-13736546D02*
X13743388Y-13755594D01*
X13743388Y-13755594D02*
X13743388Y-13803213D01*
X13743388Y-13803213D02*
X13733864Y-13822260D01*
X13733864Y-13822260D02*
X13724341Y-13831784D01*
X13724341Y-13831784D02*
X13705293Y-13841308D01*
X13705293Y-13841308D02*
X13648150Y-13841308D01*
X13648150Y-13841308D02*
X13629102Y-13831784D01*
X13629102Y-13831784D02*
X13619579Y-13822260D01*
X13867198Y-13641308D02*
X13886245Y-13641308D01*
X13886245Y-13641308D02*
X13905293Y-13650832D01*
X13905293Y-13650832D02*
X13914817Y-13660356D01*
X13914817Y-13660356D02*
X13924341Y-13679403D01*
X13924341Y-13679403D02*
X13933864Y-13717498D01*
X13933864Y-13717498D02*
X13933864Y-13765117D01*
X13933864Y-13765117D02*
X13924341Y-13803213D01*
X13924341Y-13803213D02*
X13914817Y-13822260D01*
X13914817Y-13822260D02*
X13905293Y-13831784D01*
X13905293Y-13831784D02*
X13886245Y-13841308D01*
X13886245Y-13841308D02*
X13867198Y-13841308D01*
X13867198Y-13841308D02*
X13848150Y-13831784D01*
X13848150Y-13831784D02*
X13838626Y-13822260D01*
X13838626Y-13822260D02*
X13829102Y-13803213D01*
X13829102Y-13803213D02*
X13819579Y-13765117D01*
X13819579Y-13765117D02*
X13819579Y-13717498D01*
X13819579Y-13717498D02*
X13829102Y-13679403D01*
X13829102Y-13679403D02*
X13838626Y-13660356D01*
X13838626Y-13660356D02*
X13848150Y-13650832D01*
X13848150Y-13650832D02*
X13867198Y-13641308D01*
X14057674Y-13641308D02*
X14076722Y-13641308D01*
X14076722Y-13641308D02*
X14095769Y-13650832D01*
X14095769Y-13650832D02*
X14105293Y-13660356D01*
X14105293Y-13660356D02*
X14114817Y-13679403D01*
X14114817Y-13679403D02*
X14124341Y-13717498D01*
X14124341Y-13717498D02*
X14124341Y-13765117D01*
X14124341Y-13765117D02*
X14114817Y-13803213D01*
X14114817Y-13803213D02*
X14105293Y-13822260D01*
X14105293Y-13822260D02*
X14095769Y-13831784D01*
X14095769Y-13831784D02*
X14076722Y-13841308D01*
X14076722Y-13841308D02*
X14057674Y-13841308D01*
X14057674Y-13841308D02*
X14038626Y-13831784D01*
X14038626Y-13831784D02*
X14029102Y-13822260D01*
X14029102Y-13822260D02*
X14019579Y-13803213D01*
X14019579Y-13803213D02*
X14010055Y-13765117D01*
X14010055Y-13765117D02*
X14010055Y-13717498D01*
X14010055Y-13717498D02*
X14019579Y-13679403D01*
X14019579Y-13679403D02*
X14029102Y-13660356D01*
X14029102Y-13660356D02*
X14038626Y-13650832D01*
X14038626Y-13650832D02*
X14057674Y-13641308D01*
X14200531Y-13641308D02*
X14200531Y-13679403D01*
X14276722Y-13641308D02*
X14276722Y-13679403D01*
X14571960Y-13917498D02*
X14562436Y-13907975D01*
X14562436Y-13907975D02*
X14543388Y-13879403D01*
X14543388Y-13879403D02*
X14533864Y-13860356D01*
X14533864Y-13860356D02*
X14524341Y-13831784D01*
X14524341Y-13831784D02*
X14514817Y-13784165D01*
X14514817Y-13784165D02*
X14514817Y-13746070D01*
X14514817Y-13746070D02*
X14524341Y-13698451D01*
X14524341Y-13698451D02*
X14533864Y-13669879D01*
X14533864Y-13669879D02*
X14543388Y-13650832D01*
X14543388Y-13650832D02*
X14562436Y-13622260D01*
X14562436Y-13622260D02*
X14571960Y-13612736D01*
X14733864Y-13707975D02*
X14733864Y-13841308D01*
X14686245Y-13631784D02*
X14638626Y-13774641D01*
X14638626Y-13774641D02*
X14762436Y-13774641D01*
X14876722Y-13641308D02*
X14895769Y-13641308D01*
X14895769Y-13641308D02*
X14914817Y-13650832D01*
X14914817Y-13650832D02*
X14924341Y-13660356D01*
X14924341Y-13660356D02*
X14933864Y-13679403D01*
X14933864Y-13679403D02*
X14943388Y-13717498D01*
X14943388Y-13717498D02*
X14943388Y-13765117D01*
X14943388Y-13765117D02*
X14933864Y-13803213D01*
X14933864Y-13803213D02*
X14924341Y-13822260D01*
X14924341Y-13822260D02*
X14914817Y-13831784D01*
X14914817Y-13831784D02*
X14895769Y-13841308D01*
X14895769Y-13841308D02*
X14876722Y-13841308D01*
X14876722Y-13841308D02*
X14857674Y-13831784D01*
X14857674Y-13831784D02*
X14848150Y-13822260D01*
X14848150Y-13822260D02*
X14838626Y-13803213D01*
X14838626Y-13803213D02*
X14829103Y-13765117D01*
X14829103Y-13765117D02*
X14829103Y-13717498D01*
X14829103Y-13717498D02*
X14838626Y-13679403D01*
X14838626Y-13679403D02*
X14848150Y-13660356D01*
X14848150Y-13660356D02*
X14857674Y-13650832D01*
X14857674Y-13650832D02*
X14876722Y-13641308D01*
X15181484Y-13841308D02*
X15181484Y-13641308D01*
X15267198Y-13841308D02*
X15267198Y-13736546D01*
X15267198Y-13736546D02*
X15257674Y-13717498D01*
X15257674Y-13717498D02*
X15238626Y-13707975D01*
X15238626Y-13707975D02*
X15210055Y-13707975D01*
X15210055Y-13707975D02*
X15191007Y-13717498D01*
X15191007Y-13717498D02*
X15181484Y-13727022D01*
X15391007Y-13841308D02*
X15371960Y-13831784D01*
X15371960Y-13831784D02*
X15362436Y-13822260D01*
X15362436Y-13822260D02*
X15352912Y-13803213D01*
X15352912Y-13803213D02*
X15352912Y-13746070D01*
X15352912Y-13746070D02*
X15362436Y-13727022D01*
X15362436Y-13727022D02*
X15371960Y-13717498D01*
X15371960Y-13717498D02*
X15391007Y-13707975D01*
X15391007Y-13707975D02*
X15419579Y-13707975D01*
X15419579Y-13707975D02*
X15438626Y-13717498D01*
X15438626Y-13717498D02*
X15448150Y-13727022D01*
X15448150Y-13727022D02*
X15457674Y-13746070D01*
X15457674Y-13746070D02*
X15457674Y-13803213D01*
X15457674Y-13803213D02*
X15448150Y-13822260D01*
X15448150Y-13822260D02*
X15438626Y-13831784D01*
X15438626Y-13831784D02*
X15419579Y-13841308D01*
X15419579Y-13841308D02*
X15391007Y-13841308D01*
X15571960Y-13841308D02*
X15552912Y-13831784D01*
X15552912Y-13831784D02*
X15543388Y-13812736D01*
X15543388Y-13812736D02*
X15543388Y-13641308D01*
X15724341Y-13831784D02*
X15705293Y-13841308D01*
X15705293Y-13841308D02*
X15667198Y-13841308D01*
X15667198Y-13841308D02*
X15648150Y-13831784D01*
X15648150Y-13831784D02*
X15638626Y-13812736D01*
X15638626Y-13812736D02*
X15638626Y-13736546D01*
X15638626Y-13736546D02*
X15648150Y-13717498D01*
X15648150Y-13717498D02*
X15667198Y-13707975D01*
X15667198Y-13707975D02*
X15705293Y-13707975D01*
X15705293Y-13707975D02*
X15724341Y-13717498D01*
X15724341Y-13717498D02*
X15733865Y-13736546D01*
X15733865Y-13736546D02*
X15733865Y-13755594D01*
X15733865Y-13755594D02*
X15638626Y-13774641D01*
X15810055Y-13831784D02*
X15829103Y-13841308D01*
X15829103Y-13841308D02*
X15867198Y-13841308D01*
X15867198Y-13841308D02*
X15886246Y-13831784D01*
X15886246Y-13831784D02*
X15895769Y-13812736D01*
X15895769Y-13812736D02*
X15895769Y-13803213D01*
X15895769Y-13803213D02*
X15886246Y-13784165D01*
X15886246Y-13784165D02*
X15867198Y-13774641D01*
X15867198Y-13774641D02*
X15838626Y-13774641D01*
X15838626Y-13774641D02*
X15819579Y-13765117D01*
X15819579Y-13765117D02*
X15810055Y-13746070D01*
X15810055Y-13746070D02*
X15810055Y-13736546D01*
X15810055Y-13736546D02*
X15819579Y-13717498D01*
X15819579Y-13717498D02*
X15838626Y-13707975D01*
X15838626Y-13707975D02*
X15867198Y-13707975D01*
X15867198Y-13707975D02*
X15886246Y-13717498D01*
X15962436Y-13917498D02*
X15971960Y-13907975D01*
X15971960Y-13907975D02*
X15991007Y-13879403D01*
X15991007Y-13879403D02*
X16000531Y-13860356D01*
X16000531Y-13860356D02*
X16010055Y-13831784D01*
X16010055Y-13831784D02*
X16019579Y-13784165D01*
X16019579Y-13784165D02*
X16019579Y-13746070D01*
X16019579Y-13746070D02*
X16010055Y-13698451D01*
X16010055Y-13698451D02*
X16000531Y-13669879D01*
X16000531Y-13669879D02*
X15991007Y-13650832D01*
X15991007Y-13650832D02*
X15971960Y-13622260D01*
X15971960Y-13622260D02*
X15962436Y-13612736D01*
D10*
X10996897Y-14013824D02*
G75*
G03*
X10996897Y-14013824I-50000J0D01*
G01*
D11*
X11362436Y-14105308D02*
X11248150Y-14105308D01*
X11305293Y-14105308D02*
X11305293Y-13905308D01*
X11305293Y-13905308D02*
X11286245Y-13933879D01*
X11286245Y-13933879D02*
X11267197Y-13952927D01*
X11267197Y-13952927D02*
X11248150Y-13962451D01*
X11448150Y-14086260D02*
X11457674Y-14095784D01*
X11457674Y-14095784D02*
X11448150Y-14105308D01*
X11448150Y-14105308D02*
X11438626Y-14095784D01*
X11438626Y-14095784D02*
X11448150Y-14086260D01*
X11448150Y-14086260D02*
X11448150Y-14105308D01*
X11581483Y-13905308D02*
X11600531Y-13905308D01*
X11600531Y-13905308D02*
X11619578Y-13914832D01*
X11619578Y-13914832D02*
X11629102Y-13924356D01*
X11629102Y-13924356D02*
X11638626Y-13943403D01*
X11638626Y-13943403D02*
X11648150Y-13981498D01*
X11648150Y-13981498D02*
X11648150Y-14029117D01*
X11648150Y-14029117D02*
X11638626Y-14067213D01*
X11638626Y-14067213D02*
X11629102Y-14086260D01*
X11629102Y-14086260D02*
X11619578Y-14095784D01*
X11619578Y-14095784D02*
X11600531Y-14105308D01*
X11600531Y-14105308D02*
X11581483Y-14105308D01*
X11581483Y-14105308D02*
X11562436Y-14095784D01*
X11562436Y-14095784D02*
X11552912Y-14086260D01*
X11552912Y-14086260D02*
X11543388Y-14067213D01*
X11543388Y-14067213D02*
X11533864Y-14029117D01*
X11533864Y-14029117D02*
X11533864Y-13981498D01*
X11533864Y-13981498D02*
X11543388Y-13943403D01*
X11543388Y-13943403D02*
X11552912Y-13924356D01*
X11552912Y-13924356D02*
X11562436Y-13914832D01*
X11562436Y-13914832D02*
X11581483Y-13905308D01*
X11771959Y-13905308D02*
X11791007Y-13905308D01*
X11791007Y-13905308D02*
X11810055Y-13914832D01*
X11810055Y-13914832D02*
X11819578Y-13924356D01*
X11819578Y-13924356D02*
X11829102Y-13943403D01*
X11829102Y-13943403D02*
X11838626Y-13981498D01*
X11838626Y-13981498D02*
X11838626Y-14029117D01*
X11838626Y-14029117D02*
X11829102Y-14067213D01*
X11829102Y-14067213D02*
X11819578Y-14086260D01*
X11819578Y-14086260D02*
X11810055Y-14095784D01*
X11810055Y-14095784D02*
X11791007Y-14105308D01*
X11791007Y-14105308D02*
X11771959Y-14105308D01*
X11771959Y-14105308D02*
X11752912Y-14095784D01*
X11752912Y-14095784D02*
X11743388Y-14086260D01*
X11743388Y-14086260D02*
X11733864Y-14067213D01*
X11733864Y-14067213D02*
X11724340Y-14029117D01*
X11724340Y-14029117D02*
X11724340Y-13981498D01*
X11724340Y-13981498D02*
X11733864Y-13943403D01*
X11733864Y-13943403D02*
X11743388Y-13924356D01*
X11743388Y-13924356D02*
X11752912Y-13914832D01*
X11752912Y-13914832D02*
X11771959Y-13905308D01*
X11962436Y-13905308D02*
X11981483Y-13905308D01*
X11981483Y-13905308D02*
X12000531Y-13914832D01*
X12000531Y-13914832D02*
X12010055Y-13924356D01*
X12010055Y-13924356D02*
X12019578Y-13943403D01*
X12019578Y-13943403D02*
X12029102Y-13981498D01*
X12029102Y-13981498D02*
X12029102Y-14029117D01*
X12029102Y-14029117D02*
X12019578Y-14067213D01*
X12019578Y-14067213D02*
X12010055Y-14086260D01*
X12010055Y-14086260D02*
X12000531Y-14095784D01*
X12000531Y-14095784D02*
X11981483Y-14105308D01*
X11981483Y-14105308D02*
X11962436Y-14105308D01*
X11962436Y-14105308D02*
X11943388Y-14095784D01*
X11943388Y-14095784D02*
X11933864Y-14086260D01*
X11933864Y-14086260D02*
X11924340Y-14067213D01*
X11924340Y-14067213D02*
X11914817Y-14029117D01*
X11914817Y-14029117D02*
X11914817Y-13981498D01*
X11914817Y-13981498D02*
X11924340Y-13943403D01*
X11924340Y-13943403D02*
X11933864Y-13924356D01*
X11933864Y-13924356D02*
X11943388Y-13914832D01*
X11943388Y-13914832D02*
X11962436Y-13905308D01*
X12114817Y-14105308D02*
X12114817Y-13971975D01*
X12114817Y-13991022D02*
X12124340Y-13981498D01*
X12124340Y-13981498D02*
X12143388Y-13971975D01*
X12143388Y-13971975D02*
X12171959Y-13971975D01*
X12171959Y-13971975D02*
X12191007Y-13981498D01*
X12191007Y-13981498D02*
X12200531Y-14000546D01*
X12200531Y-14000546D02*
X12200531Y-14105308D01*
X12200531Y-14000546D02*
X12210055Y-13981498D01*
X12210055Y-13981498D02*
X12229102Y-13971975D01*
X12229102Y-13971975D02*
X12257674Y-13971975D01*
X12257674Y-13971975D02*
X12276721Y-13981498D01*
X12276721Y-13981498D02*
X12286245Y-14000546D01*
X12286245Y-14000546D02*
X12286245Y-14105308D01*
X12381483Y-14105308D02*
X12381483Y-13971975D01*
X12381483Y-13991022D02*
X12391007Y-13981498D01*
X12391007Y-13981498D02*
X12410055Y-13971975D01*
X12410055Y-13971975D02*
X12438626Y-13971975D01*
X12438626Y-13971975D02*
X12457674Y-13981498D01*
X12457674Y-13981498D02*
X12467198Y-14000546D01*
X12467198Y-14000546D02*
X12467198Y-14105308D01*
X12467198Y-14000546D02*
X12476721Y-13981498D01*
X12476721Y-13981498D02*
X12495769Y-13971975D01*
X12495769Y-13971975D02*
X12524340Y-13971975D01*
X12524340Y-13971975D02*
X12543388Y-13981498D01*
X12543388Y-13981498D02*
X12552912Y-14000546D01*
X12552912Y-14000546D02*
X12552912Y-14105308D01*
X12943388Y-13895784D02*
X12771960Y-14152927D01*
X13200531Y-13905308D02*
X13219579Y-13905308D01*
X13219579Y-13905308D02*
X13238626Y-13914832D01*
X13238626Y-13914832D02*
X13248150Y-13924356D01*
X13248150Y-13924356D02*
X13257674Y-13943403D01*
X13257674Y-13943403D02*
X13267198Y-13981498D01*
X13267198Y-13981498D02*
X13267198Y-14029117D01*
X13267198Y-14029117D02*
X13257674Y-14067213D01*
X13257674Y-14067213D02*
X13248150Y-14086260D01*
X13248150Y-14086260D02*
X13238626Y-14095784D01*
X13238626Y-14095784D02*
X13219579Y-14105308D01*
X13219579Y-14105308D02*
X13200531Y-14105308D01*
X13200531Y-14105308D02*
X13181483Y-14095784D01*
X13181483Y-14095784D02*
X13171960Y-14086260D01*
X13171960Y-14086260D02*
X13162436Y-14067213D01*
X13162436Y-14067213D02*
X13152912Y-14029117D01*
X13152912Y-14029117D02*
X13152912Y-13981498D01*
X13152912Y-13981498D02*
X13162436Y-13943403D01*
X13162436Y-13943403D02*
X13171960Y-13924356D01*
X13171960Y-13924356D02*
X13181483Y-13914832D01*
X13181483Y-13914832D02*
X13200531Y-13905308D01*
X13352912Y-14086260D02*
X13362436Y-14095784D01*
X13362436Y-14095784D02*
X13352912Y-14105308D01*
X13352912Y-14105308D02*
X13343388Y-14095784D01*
X13343388Y-14095784D02*
X13352912Y-14086260D01*
X13352912Y-14086260D02*
X13352912Y-14105308D01*
X13486245Y-13905308D02*
X13505293Y-13905308D01*
X13505293Y-13905308D02*
X13524341Y-13914832D01*
X13524341Y-13914832D02*
X13533864Y-13924356D01*
X13533864Y-13924356D02*
X13543388Y-13943403D01*
X13543388Y-13943403D02*
X13552912Y-13981498D01*
X13552912Y-13981498D02*
X13552912Y-14029117D01*
X13552912Y-14029117D02*
X13543388Y-14067213D01*
X13543388Y-14067213D02*
X13533864Y-14086260D01*
X13533864Y-14086260D02*
X13524341Y-14095784D01*
X13524341Y-14095784D02*
X13505293Y-14105308D01*
X13505293Y-14105308D02*
X13486245Y-14105308D01*
X13486245Y-14105308D02*
X13467198Y-14095784D01*
X13467198Y-14095784D02*
X13457674Y-14086260D01*
X13457674Y-14086260D02*
X13448150Y-14067213D01*
X13448150Y-14067213D02*
X13438626Y-14029117D01*
X13438626Y-14029117D02*
X13438626Y-13981498D01*
X13438626Y-13981498D02*
X13448150Y-13943403D01*
X13448150Y-13943403D02*
X13457674Y-13924356D01*
X13457674Y-13924356D02*
X13467198Y-13914832D01*
X13467198Y-13914832D02*
X13486245Y-13905308D01*
X13619579Y-13905308D02*
X13743388Y-13905308D01*
X13743388Y-13905308D02*
X13676721Y-13981498D01*
X13676721Y-13981498D02*
X13705293Y-13981498D01*
X13705293Y-13981498D02*
X13724341Y-13991022D01*
X13724341Y-13991022D02*
X13733864Y-14000546D01*
X13733864Y-14000546D02*
X13743388Y-14019594D01*
X13743388Y-14019594D02*
X13743388Y-14067213D01*
X13743388Y-14067213D02*
X13733864Y-14086260D01*
X13733864Y-14086260D02*
X13724341Y-14095784D01*
X13724341Y-14095784D02*
X13705293Y-14105308D01*
X13705293Y-14105308D02*
X13648150Y-14105308D01*
X13648150Y-14105308D02*
X13629102Y-14095784D01*
X13629102Y-14095784D02*
X13619579Y-14086260D01*
X13838626Y-14105308D02*
X13876721Y-14105308D01*
X13876721Y-14105308D02*
X13895769Y-14095784D01*
X13895769Y-14095784D02*
X13905293Y-14086260D01*
X13905293Y-14086260D02*
X13924341Y-14057689D01*
X13924341Y-14057689D02*
X13933864Y-14019594D01*
X13933864Y-14019594D02*
X13933864Y-13943403D01*
X13933864Y-13943403D02*
X13924341Y-13924356D01*
X13924341Y-13924356D02*
X13914817Y-13914832D01*
X13914817Y-13914832D02*
X13895769Y-13905308D01*
X13895769Y-13905308D02*
X13857674Y-13905308D01*
X13857674Y-13905308D02*
X13838626Y-13914832D01*
X13838626Y-13914832D02*
X13829102Y-13924356D01*
X13829102Y-13924356D02*
X13819579Y-13943403D01*
X13819579Y-13943403D02*
X13819579Y-13991022D01*
X13819579Y-13991022D02*
X13829102Y-14010070D01*
X13829102Y-14010070D02*
X13838626Y-14019594D01*
X13838626Y-14019594D02*
X13857674Y-14029117D01*
X13857674Y-14029117D02*
X13895769Y-14029117D01*
X13895769Y-14029117D02*
X13914817Y-14019594D01*
X13914817Y-14019594D02*
X13924341Y-14010070D01*
X13924341Y-14010070D02*
X13933864Y-13991022D01*
X14105293Y-13971975D02*
X14105293Y-14105308D01*
X14057674Y-13895784D02*
X14010055Y-14038641D01*
X14010055Y-14038641D02*
X14133864Y-14038641D01*
X14200531Y-13905308D02*
X14200531Y-13943403D01*
X14276722Y-13905308D02*
X14276722Y-13943403D01*
X14571960Y-14181498D02*
X14562436Y-14171975D01*
X14562436Y-14171975D02*
X14543388Y-14143403D01*
X14543388Y-14143403D02*
X14533864Y-14124356D01*
X14533864Y-14124356D02*
X14524341Y-14095784D01*
X14524341Y-14095784D02*
X14514817Y-14048165D01*
X14514817Y-14048165D02*
X14514817Y-14010070D01*
X14514817Y-14010070D02*
X14524341Y-13962451D01*
X14524341Y-13962451D02*
X14533864Y-13933879D01*
X14533864Y-13933879D02*
X14543388Y-13914832D01*
X14543388Y-13914832D02*
X14562436Y-13886260D01*
X14562436Y-13886260D02*
X14571960Y-13876736D01*
X14629103Y-13905308D02*
X14752912Y-13905308D01*
X14752912Y-13905308D02*
X14686245Y-13981498D01*
X14686245Y-13981498D02*
X14714817Y-13981498D01*
X14714817Y-13981498D02*
X14733864Y-13991022D01*
X14733864Y-13991022D02*
X14743388Y-14000546D01*
X14743388Y-14000546D02*
X14752912Y-14019594D01*
X14752912Y-14019594D02*
X14752912Y-14067213D01*
X14752912Y-14067213D02*
X14743388Y-14086260D01*
X14743388Y-14086260D02*
X14733864Y-14095784D01*
X14733864Y-14095784D02*
X14714817Y-14105308D01*
X14714817Y-14105308D02*
X14657674Y-14105308D01*
X14657674Y-14105308D02*
X14638626Y-14095784D01*
X14638626Y-14095784D02*
X14629103Y-14086260D01*
X14991007Y-14105308D02*
X14991007Y-13905308D01*
X15076722Y-14105308D02*
X15076722Y-14000546D01*
X15076722Y-14000546D02*
X15067198Y-13981498D01*
X15067198Y-13981498D02*
X15048150Y-13971975D01*
X15048150Y-13971975D02*
X15019579Y-13971975D01*
X15019579Y-13971975D02*
X15000531Y-13981498D01*
X15000531Y-13981498D02*
X14991007Y-13991022D01*
X15200531Y-14105308D02*
X15181484Y-14095784D01*
X15181484Y-14095784D02*
X15171960Y-14086260D01*
X15171960Y-14086260D02*
X15162436Y-14067213D01*
X15162436Y-14067213D02*
X15162436Y-14010070D01*
X15162436Y-14010070D02*
X15171960Y-13991022D01*
X15171960Y-13991022D02*
X15181484Y-13981498D01*
X15181484Y-13981498D02*
X15200531Y-13971975D01*
X15200531Y-13971975D02*
X15229103Y-13971975D01*
X15229103Y-13971975D02*
X15248150Y-13981498D01*
X15248150Y-13981498D02*
X15257674Y-13991022D01*
X15257674Y-13991022D02*
X15267198Y-14010070D01*
X15267198Y-14010070D02*
X15267198Y-14067213D01*
X15267198Y-14067213D02*
X15257674Y-14086260D01*
X15257674Y-14086260D02*
X15248150Y-14095784D01*
X15248150Y-14095784D02*
X15229103Y-14105308D01*
X15229103Y-14105308D02*
X15200531Y-14105308D01*
X15381484Y-14105308D02*
X15362436Y-14095784D01*
X15362436Y-14095784D02*
X15352912Y-14076736D01*
X15352912Y-14076736D02*
X15352912Y-13905308D01*
X15533865Y-14095784D02*
X15514817Y-14105308D01*
X15514817Y-14105308D02*
X15476722Y-14105308D01*
X15476722Y-14105308D02*
X15457674Y-14095784D01*
X15457674Y-14095784D02*
X15448150Y-14076736D01*
X15448150Y-14076736D02*
X15448150Y-14000546D01*
X15448150Y-14000546D02*
X15457674Y-13981498D01*
X15457674Y-13981498D02*
X15476722Y-13971975D01*
X15476722Y-13971975D02*
X15514817Y-13971975D01*
X15514817Y-13971975D02*
X15533865Y-13981498D01*
X15533865Y-13981498D02*
X15543388Y-14000546D01*
X15543388Y-14000546D02*
X15543388Y-14019594D01*
X15543388Y-14019594D02*
X15448150Y-14038641D01*
X15619579Y-14095784D02*
X15638626Y-14105308D01*
X15638626Y-14105308D02*
X15676722Y-14105308D01*
X15676722Y-14105308D02*
X15695769Y-14095784D01*
X15695769Y-14095784D02*
X15705293Y-14076736D01*
X15705293Y-14076736D02*
X15705293Y-14067213D01*
X15705293Y-14067213D02*
X15695769Y-14048165D01*
X15695769Y-14048165D02*
X15676722Y-14038641D01*
X15676722Y-14038641D02*
X15648150Y-14038641D01*
X15648150Y-14038641D02*
X15629103Y-14029117D01*
X15629103Y-14029117D02*
X15619579Y-14010070D01*
X15619579Y-14010070D02*
X15619579Y-14000546D01*
X15619579Y-14000546D02*
X15629103Y-13981498D01*
X15629103Y-13981498D02*
X15648150Y-13971975D01*
X15648150Y-13971975D02*
X15676722Y-13971975D01*
X15676722Y-13971975D02*
X15695769Y-13981498D01*
X15771960Y-14181498D02*
X15781484Y-14171975D01*
X15781484Y-14171975D02*
X15800531Y-14143403D01*
X15800531Y-14143403D02*
X15810055Y-14124356D01*
X15810055Y-14124356D02*
X15819579Y-14095784D01*
X15819579Y-14095784D02*
X15829103Y-14048165D01*
X15829103Y-14048165D02*
X15829103Y-14010070D01*
X15829103Y-14010070D02*
X15819579Y-13962451D01*
X15819579Y-13962451D02*
X15810055Y-13933879D01*
X15810055Y-13933879D02*
X15800531Y-13914832D01*
X15800531Y-13914832D02*
X15781484Y-13886260D01*
X15781484Y-13886260D02*
X15771960Y-13876736D01*
M02*
