%TF.GenerationSoftware,KiCad,Pcbnew,7.0.5*%
%TF.CreationDate,2024-02-18T16:55:31-05:00*%
%TF.ProjectId,pico-reset,7069636f-2d72-4657-9365-742e6b696361,rev?*%
%TF.SameCoordinates,Original*%
%TF.FileFunction,Drillmap*%
%TF.FilePolarity,Positive*%
%FSLAX45Y45*%
G04 Gerber Fmt 4.5, Leading zero omitted, Abs format (unit mm)*
G04 Created by KiCad (PCBNEW 7.0.5) date 2024-02-18 16:55:31*
%MOMM*%
%LPD*%
G01*
G04 APERTURE LIST*
%ADD10C,0.100000*%
%ADD11C,0.200000*%
G04 APERTURE END LIST*
D10*
X11001897Y-7974826D02*
X13121130Y-7974826D01*
X13121130Y-13104824D01*
X11001897Y-13104824D01*
X11001897Y-7974826D01*
D11*
X11257674Y-13421308D02*
X11257674Y-13221308D01*
X11257674Y-13221308D02*
X11305293Y-13221308D01*
X11305293Y-13221308D02*
X11333864Y-13230832D01*
X11333864Y-13230832D02*
X11352912Y-13249879D01*
X11352912Y-13249879D02*
X11362436Y-13268927D01*
X11362436Y-13268927D02*
X11371959Y-13307022D01*
X11371959Y-13307022D02*
X11371959Y-13335594D01*
X11371959Y-13335594D02*
X11362436Y-13373689D01*
X11362436Y-13373689D02*
X11352912Y-13392736D01*
X11352912Y-13392736D02*
X11333864Y-13411784D01*
X11333864Y-13411784D02*
X11305293Y-13421308D01*
X11305293Y-13421308D02*
X11257674Y-13421308D01*
X11457674Y-13421308D02*
X11457674Y-13287975D01*
X11457674Y-13326070D02*
X11467197Y-13307022D01*
X11467197Y-13307022D02*
X11476721Y-13297498D01*
X11476721Y-13297498D02*
X11495769Y-13287975D01*
X11495769Y-13287975D02*
X11514817Y-13287975D01*
X11581483Y-13421308D02*
X11581483Y-13287975D01*
X11581483Y-13221308D02*
X11571959Y-13230832D01*
X11571959Y-13230832D02*
X11581483Y-13240356D01*
X11581483Y-13240356D02*
X11591007Y-13230832D01*
X11591007Y-13230832D02*
X11581483Y-13221308D01*
X11581483Y-13221308D02*
X11581483Y-13240356D01*
X11705293Y-13421308D02*
X11686245Y-13411784D01*
X11686245Y-13411784D02*
X11676721Y-13392736D01*
X11676721Y-13392736D02*
X11676721Y-13221308D01*
X11810055Y-13421308D02*
X11791007Y-13411784D01*
X11791007Y-13411784D02*
X11781483Y-13392736D01*
X11781483Y-13392736D02*
X11781483Y-13221308D01*
X12038626Y-13421308D02*
X12038626Y-13221308D01*
X12038626Y-13221308D02*
X12105293Y-13364165D01*
X12105293Y-13364165D02*
X12171959Y-13221308D01*
X12171959Y-13221308D02*
X12171959Y-13421308D01*
X12352912Y-13421308D02*
X12352912Y-13316546D01*
X12352912Y-13316546D02*
X12343388Y-13297498D01*
X12343388Y-13297498D02*
X12324340Y-13287975D01*
X12324340Y-13287975D02*
X12286245Y-13287975D01*
X12286245Y-13287975D02*
X12267197Y-13297498D01*
X12352912Y-13411784D02*
X12333864Y-13421308D01*
X12333864Y-13421308D02*
X12286245Y-13421308D01*
X12286245Y-13421308D02*
X12267197Y-13411784D01*
X12267197Y-13411784D02*
X12257674Y-13392736D01*
X12257674Y-13392736D02*
X12257674Y-13373689D01*
X12257674Y-13373689D02*
X12267197Y-13354641D01*
X12267197Y-13354641D02*
X12286245Y-13345117D01*
X12286245Y-13345117D02*
X12333864Y-13345117D01*
X12333864Y-13345117D02*
X12352912Y-13335594D01*
X12448150Y-13287975D02*
X12448150Y-13487975D01*
X12448150Y-13297498D02*
X12467197Y-13287975D01*
X12467197Y-13287975D02*
X12505293Y-13287975D01*
X12505293Y-13287975D02*
X12524340Y-13297498D01*
X12524340Y-13297498D02*
X12533864Y-13307022D01*
X12533864Y-13307022D02*
X12543388Y-13326070D01*
X12543388Y-13326070D02*
X12543388Y-13383213D01*
X12543388Y-13383213D02*
X12533864Y-13402260D01*
X12533864Y-13402260D02*
X12524340Y-13411784D01*
X12524340Y-13411784D02*
X12505293Y-13421308D01*
X12505293Y-13421308D02*
X12467197Y-13421308D01*
X12467197Y-13421308D02*
X12448150Y-13411784D01*
X12629102Y-13402260D02*
X12638626Y-13411784D01*
X12638626Y-13411784D02*
X12629102Y-13421308D01*
X12629102Y-13421308D02*
X12619578Y-13411784D01*
X12619578Y-13411784D02*
X12629102Y-13402260D01*
X12629102Y-13402260D02*
X12629102Y-13421308D01*
X12629102Y-13297498D02*
X12638626Y-13307022D01*
X12638626Y-13307022D02*
X12629102Y-13316546D01*
X12629102Y-13316546D02*
X12619578Y-13307022D01*
X12619578Y-13307022D02*
X12629102Y-13297498D01*
X12629102Y-13297498D02*
X12629102Y-13316546D01*
M02*
