M48
; DRILL file {KiCad 7.0.5} date Sun Feb 18 16:55:30 2024
; FORMAT={-:-/ absolute / metric / decimal}
; #@! TF.CreationDate,2024-02-18T16:55:30-05:00
; #@! TF.GenerationSoftware,Kicad,Pcbnew,7.0.5
; #@! TF.FileFunction,Plated,1,2,PTH
FMAT,2
METRIC
; #@! TA.AperFunction,Plated,PTH,ComponentDrill
T1C0.762
; #@! TA.AperFunction,Plated,PTH,ComponentDrill
T2C1.000
%
G90
G05
T1
X111.76Y-81.28
X111.76Y-83.82
X111.76Y-86.36
X111.76Y-88.9
X111.76Y-91.44
X111.76Y-93.98
X111.76Y-96.52
X111.76Y-99.06
X111.76Y-101.6
X111.76Y-104.14
X111.76Y-106.68
X111.76Y-109.22
X111.76Y-111.76
X111.76Y-114.3
X111.76Y-116.84
X111.76Y-119.38
X111.76Y-121.92
X111.76Y-124.46
X111.76Y-127.0
X111.76Y-129.54
X129.54Y-81.28
X129.54Y-83.82
X129.54Y-86.36
X129.54Y-88.9
X129.54Y-91.44
X129.54Y-93.98
X129.54Y-96.52
X129.54Y-99.06
X129.54Y-101.6
X129.54Y-104.14
X129.54Y-106.68
X129.54Y-109.22
X129.54Y-111.76
X129.54Y-114.3
X129.54Y-116.84
X129.54Y-119.38
X129.54Y-121.92
X129.54Y-124.46
X129.54Y-127.0
X129.54Y-129.54
T2
X118.443Y-120.329
X120.983Y-120.329
X123.523Y-120.329
T0
M30
