%TF.GenerationSoftware,KiCad,Pcbnew,7.0.5*%
%TF.CreationDate,2024-02-18T16:55:48-05:00*%
%TF.ProjectId,pico-reset,7069636f-2d72-4657-9365-742e6b696361,rev?*%
%TF.SameCoordinates,Original*%
%TF.FileFunction,Soldermask,Top*%
%TF.FilePolarity,Negative*%
%FSLAX46Y46*%
G04 Gerber Fmt 4.6, Leading zero omitted, Abs format (unit mm)*
G04 Created by KiCad (PCBNEW 7.0.5) date 2024-02-18 16:55:48*
%MOMM*%
%LPD*%
G01*
G04 APERTURE LIST*
%ADD10O,2.400000X1.800000*%
%ADD11R,1.700000X1.700000*%
%ADD12O,1.700000X1.700000*%
G04 APERTURE END LIST*
D10*
%TO.C,A1*%
X111760000Y-81280000D03*
X111760000Y-83820000D03*
X111760000Y-86360000D03*
X111760000Y-88900000D03*
X111760000Y-91440000D03*
X111760000Y-93980000D03*
X111760000Y-96520000D03*
X111760000Y-99060000D03*
X111760000Y-101600000D03*
X111760000Y-104140000D03*
X111760000Y-106680000D03*
X111760000Y-109220000D03*
X111760000Y-111760000D03*
X111760000Y-114300000D03*
X111760000Y-116840000D03*
X111760000Y-119380000D03*
X111760000Y-121920000D03*
X111760000Y-124460000D03*
X111760000Y-127000000D03*
X111760000Y-129540000D03*
X129540000Y-129540000D03*
X129540000Y-127000000D03*
X129540000Y-124460000D03*
X129540000Y-121920000D03*
X129540000Y-119380000D03*
X129540000Y-116840000D03*
X129540000Y-114300000D03*
X129540000Y-111760000D03*
X129540000Y-109220000D03*
X129540000Y-106680000D03*
X129540000Y-104140000D03*
X129540000Y-101600000D03*
X129540000Y-99060000D03*
X129540000Y-96520000D03*
X129540000Y-93980000D03*
X129540000Y-91440000D03*
X129540000Y-88900000D03*
X129540000Y-86360000D03*
X129540000Y-83820000D03*
X129540000Y-81280000D03*
%TD*%
D11*
%TO.C,J2*%
X118443146Y-120329108D03*
D12*
X120983146Y-120329108D03*
X123523146Y-120329108D03*
%TD*%
M02*
