%TF.GenerationSoftware,KiCad,Pcbnew,7.0.10-7.0.10~ubuntu22.04.1*%
%TF.CreationDate,2024-02-12T13:51:06-05:00*%
%TF.ProjectId,sprig_console,73707269-675f-4636-9f6e-736f6c652e6b,rev?*%
%TF.SameCoordinates,Original*%
%TF.FileFunction,Soldermask,Bot*%
%TF.FilePolarity,Negative*%
%FSLAX46Y46*%
G04 Gerber Fmt 4.6, Leading zero omitted, Abs format (unit mm)*
G04 Created by KiCad (PCBNEW 7.0.10-7.0.10~ubuntu22.04.1) date 2024-02-12 13:51:06*
%MOMM*%
%LPD*%
G01*
G04 APERTURE LIST*
G04 Aperture macros list*
%AMOutline5P*
0 Free polygon, 5 corners , with rotation*
0 The origin of the aperture is its center*
0 number of corners: always 5*
0 $1 to $10 corner X, Y*
0 $11 Rotation angle, in degrees counterclockwise*
0 create outline with 5 corners*
4,1,5,$1,$2,$3,$4,$5,$6,$7,$8,$9,$10,$1,$2,$11*%
%AMOutline6P*
0 Free polygon, 6 corners , with rotation*
0 The origin of the aperture is its center*
0 number of corners: always 6*
0 $1 to $12 corner X, Y*
0 $13 Rotation angle, in degrees counterclockwise*
0 create outline with 6 corners*
4,1,6,$1,$2,$3,$4,$5,$6,$7,$8,$9,$10,$11,$12,$1,$2,$13*%
%AMOutline7P*
0 Free polygon, 7 corners , with rotation*
0 The origin of the aperture is its center*
0 number of corners: always 7*
0 $1 to $14 corner X, Y*
0 $15 Rotation angle, in degrees counterclockwise*
0 create outline with 7 corners*
4,1,7,$1,$2,$3,$4,$5,$6,$7,$8,$9,$10,$11,$12,$13,$14,$1,$2,$15*%
%AMOutline8P*
0 Free polygon, 8 corners , with rotation*
0 The origin of the aperture is its center*
0 number of corners: always 8*
0 $1 to $16 corner X, Y*
0 $17 Rotation angle, in degrees counterclockwise*
0 create outline with 8 corners*
4,1,8,$1,$2,$3,$4,$5,$6,$7,$8,$9,$10,$11,$12,$13,$14,$15,$16,$1,$2,$17*%
G04 Aperture macros list end*
%ADD10R,1.727200X1.727200*%
%ADD11C,1.727200*%
%ADD12O,1.727200X1.727200*%
%ADD13O,2.500000X3.000000*%
%ADD14C,2.200000*%
%ADD15Outline8P,-0.900000X0.450000X-0.450000X0.900000X0.450000X0.900000X0.900000X0.450000X0.900000X-0.450000X0.450000X-0.900000X-0.450000X-0.900000X-0.900000X-0.450000X180.000000*%
%ADD16C,1.524000*%
%ADD17C,2.800000*%
%ADD18R,5.100000X6.400000*%
%ADD19O,1.700000X1.700000*%
%ADD20R,1.700000X1.700000*%
%TA.AperFunction,Profile*%
%ADD21C,0.100000*%
%TD*%
G04 APERTURE END LIST*
%TO.C,G\u002A\u002A\u002A*%
G36*
X196213638Y-120271182D02*
G01*
X196268360Y-120271585D01*
X196309092Y-120272587D01*
X196338759Y-120274458D01*
X196360285Y-120277469D01*
X196376595Y-120281892D01*
X196390614Y-120287997D01*
X196405264Y-120296057D01*
X196448538Y-120330210D01*
X196478957Y-120374839D01*
X196494867Y-120425201D01*
X196496641Y-120477698D01*
X196484653Y-120528732D01*
X196459276Y-120574704D01*
X196420884Y-120612016D01*
X196369850Y-120637071D01*
X196366201Y-120637892D01*
X196342478Y-120640274D01*
X196303188Y-120642162D01*
X196251752Y-120643458D01*
X196191591Y-120644068D01*
X196126124Y-120643896D01*
X196060257Y-120643171D01*
X196002689Y-120642039D01*
X195959561Y-120640334D01*
X195927906Y-120637810D01*
X195904760Y-120634222D01*
X195887157Y-120629325D01*
X195872132Y-120622873D01*
X195870052Y-120621821D01*
X195827040Y-120589241D01*
X195796567Y-120544988D01*
X195779497Y-120493528D01*
X195776698Y-120439325D01*
X195789034Y-120386842D01*
X195817373Y-120340544D01*
X195827682Y-120328950D01*
X195845900Y-120310328D01*
X195864236Y-120296201D01*
X195885535Y-120285949D01*
X195912647Y-120278951D01*
X195948417Y-120274588D01*
X195995692Y-120272240D01*
X196057320Y-120271285D01*
X196136148Y-120271105D01*
X196142004Y-120271105D01*
X196213638Y-120271182D01*
G37*
G36*
X196206240Y-120997893D02*
G01*
X196264692Y-120998277D01*
X196308571Y-120999206D01*
X196340720Y-121000918D01*
X196363984Y-121003645D01*
X196381208Y-121007622D01*
X196395235Y-121013085D01*
X196408911Y-121020267D01*
X196415622Y-121024378D01*
X196447656Y-121051592D01*
X196473105Y-121084105D01*
X196497362Y-121125496D01*
X196494675Y-121906154D01*
X196491989Y-122686811D01*
X196468629Y-122719563D01*
X196466024Y-122723043D01*
X196439246Y-122750185D01*
X196408487Y-122771744D01*
X196402347Y-122774832D01*
X196388331Y-122780376D01*
X196371033Y-122784531D01*
X196347658Y-122787499D01*
X196315413Y-122789487D01*
X196271503Y-122790700D01*
X196213134Y-122791341D01*
X196137513Y-122791617D01*
X196063875Y-122791677D01*
X196006046Y-122791390D01*
X195962658Y-122790526D01*
X195930885Y-122788858D01*
X195907898Y-122786160D01*
X195890870Y-122782205D01*
X195876975Y-122776765D01*
X195863385Y-122769615D01*
X195856366Y-122765297D01*
X195824550Y-122738201D01*
X195799372Y-122706086D01*
X195775296Y-122665003D01*
X195775296Y-121902231D01*
X195775377Y-121772109D01*
X195775723Y-121621548D01*
X195776344Y-121490737D01*
X195777241Y-121379507D01*
X195778418Y-121287693D01*
X195779875Y-121215126D01*
X195781616Y-121161640D01*
X195783643Y-121127067D01*
X195785957Y-121111241D01*
X195786975Y-121108705D01*
X195802483Y-121081327D01*
X195823546Y-121054563D01*
X195832313Y-121045437D01*
X195848674Y-121030180D01*
X195865695Y-121018585D01*
X195886147Y-121010151D01*
X195912799Y-121004375D01*
X195948420Y-121000755D01*
X195995779Y-120998791D01*
X196057647Y-120997980D01*
X196136792Y-120997822D01*
X196206240Y-120997893D01*
G37*
G36*
X187975133Y-120907609D02*
G01*
X188006393Y-120907641D01*
X188067725Y-120908056D01*
X188112981Y-120909121D01*
X188144951Y-120911050D01*
X188166431Y-120914062D01*
X188180212Y-120918372D01*
X188189088Y-120924198D01*
X188196895Y-120933647D01*
X188202281Y-120948131D01*
X188205483Y-120971210D01*
X188207022Y-121006697D01*
X188207419Y-121058407D01*
X188207774Y-121106903D01*
X188209312Y-121144336D01*
X188212589Y-121169556D01*
X188218158Y-121186647D01*
X188226572Y-121199691D01*
X188245724Y-121223354D01*
X188609393Y-121226228D01*
X188715221Y-121227330D01*
X188809308Y-121228949D01*
X188883415Y-121231023D01*
X188937574Y-121233553D01*
X188971816Y-121236540D01*
X188986175Y-121239984D01*
X188991836Y-121250301D01*
X188996125Y-121274467D01*
X188998535Y-121314171D01*
X188999289Y-121371642D01*
X188999084Y-121409168D01*
X188997785Y-121451876D01*
X188994912Y-121480609D01*
X188990029Y-121499015D01*
X188982700Y-121510746D01*
X188979806Y-121513607D01*
X188973060Y-121517925D01*
X188962519Y-121521358D01*
X188946151Y-121524009D01*
X188921926Y-121525975D01*
X188887811Y-121527360D01*
X188841775Y-121528261D01*
X188781786Y-121528781D01*
X188705813Y-121529020D01*
X188611824Y-121529077D01*
X188525903Y-121529234D01*
X188441947Y-121529401D01*
X188374650Y-121528846D01*
X188322186Y-121526829D01*
X188282731Y-121522612D01*
X188254458Y-121515456D01*
X188235542Y-121504623D01*
X188224159Y-121489372D01*
X188218483Y-121468966D01*
X188216688Y-121442666D01*
X188216950Y-121409732D01*
X188217443Y-121369425D01*
X188217437Y-121324198D01*
X188216028Y-121284586D01*
X188210889Y-121255203D01*
X188199690Y-121234524D01*
X188180100Y-121221024D01*
X188149789Y-121213178D01*
X188106427Y-121209462D01*
X188047683Y-121208351D01*
X187971227Y-121208319D01*
X187954918Y-121208310D01*
X187889987Y-121207969D01*
X187841799Y-121206989D01*
X187807634Y-121205163D01*
X187784772Y-121202288D01*
X187770495Y-121198157D01*
X187762081Y-121192567D01*
X187758769Y-121188572D01*
X187752698Y-121174310D01*
X187748881Y-121150558D01*
X187746898Y-121113806D01*
X187746330Y-121060543D01*
X187746181Y-121021146D01*
X187746830Y-120981389D01*
X187750653Y-120952156D01*
X187760060Y-120931836D01*
X187777458Y-120918822D01*
X187805256Y-120911501D01*
X187845862Y-120908265D01*
X187901685Y-120907505D01*
X187975133Y-120907609D01*
G37*
G36*
X188507379Y-121538906D02*
G01*
X188606136Y-121539100D01*
X188664816Y-121539135D01*
X188748620Y-121539386D01*
X188815596Y-121539951D01*
X188867760Y-121540916D01*
X188907129Y-121542365D01*
X188935722Y-121544384D01*
X188955555Y-121547057D01*
X188968646Y-121550469D01*
X188977012Y-121554704D01*
X188983938Y-121560083D01*
X188991048Y-121569215D01*
X188995544Y-121583496D01*
X188998021Y-121606648D01*
X188999071Y-121642397D01*
X188999289Y-121694467D01*
X188999195Y-121733134D01*
X188998450Y-121773281D01*
X188996452Y-121799739D01*
X188992610Y-121816234D01*
X188986327Y-121826489D01*
X188977012Y-121834230D01*
X188971904Y-121837126D01*
X188960688Y-121840783D01*
X188943437Y-121843683D01*
X188918151Y-121845909D01*
X188882828Y-121847544D01*
X188835465Y-121848670D01*
X188774062Y-121849372D01*
X188696615Y-121849733D01*
X188601124Y-121849834D01*
X188516320Y-121849680D01*
X188432261Y-121849510D01*
X188364878Y-121850058D01*
X188312345Y-121852063D01*
X188272833Y-121856267D01*
X188244517Y-121863411D01*
X188225570Y-121874236D01*
X188214164Y-121889482D01*
X188208473Y-121909890D01*
X188206669Y-121936201D01*
X188206927Y-121969157D01*
X188207419Y-122009497D01*
X188207287Y-122039342D01*
X188206113Y-122084424D01*
X188203387Y-122114719D01*
X188198706Y-122133694D01*
X188191667Y-122144817D01*
X188189446Y-122146775D01*
X188179574Y-122151808D01*
X188163050Y-122155486D01*
X188137197Y-122158004D01*
X188099336Y-122159560D01*
X188046788Y-122160349D01*
X187976874Y-122160568D01*
X187952104Y-122160548D01*
X187888123Y-122160165D01*
X187840638Y-122159148D01*
X187806969Y-122157301D01*
X187784439Y-122154428D01*
X187770370Y-122150332D01*
X187762081Y-122144817D01*
X187758769Y-122140822D01*
X187752698Y-122126559D01*
X187748881Y-122102808D01*
X187746898Y-122066056D01*
X187746330Y-122012792D01*
X187746215Y-121979285D01*
X187746685Y-121937602D01*
X187750096Y-121906916D01*
X187758890Y-121885551D01*
X187775508Y-121871831D01*
X187802393Y-121864078D01*
X187841986Y-121860616D01*
X187896728Y-121859768D01*
X187969063Y-121859858D01*
X188019169Y-121859691D01*
X188081222Y-121858611D01*
X188127623Y-121856204D01*
X188161025Y-121852093D01*
X188184081Y-121845902D01*
X188199445Y-121837257D01*
X188209771Y-121825781D01*
X188212523Y-121813168D01*
X188214956Y-121784432D01*
X188216631Y-121744228D01*
X188217289Y-121696973D01*
X188217019Y-121666267D01*
X188216614Y-121631745D01*
X188217844Y-121604056D01*
X188222549Y-121582454D01*
X188232571Y-121566192D01*
X188249748Y-121554521D01*
X188275921Y-121546696D01*
X188312931Y-121541970D01*
X188362617Y-121539594D01*
X188426820Y-121538821D01*
X188507379Y-121538906D01*
G37*
G36*
X218239578Y-120276215D02*
G01*
X218313070Y-120277099D01*
X218370587Y-120279441D01*
X218414692Y-120283878D01*
X218447946Y-120291052D01*
X218472914Y-120301600D01*
X218492158Y-120316163D01*
X218508242Y-120335380D01*
X218523727Y-120359891D01*
X218549345Y-120403605D01*
X218546712Y-121545991D01*
X218544080Y-122688376D01*
X218517221Y-122723589D01*
X218512179Y-122729803D01*
X218485025Y-122756180D01*
X218457078Y-122775203D01*
X218446806Y-122779461D01*
X218429633Y-122783860D01*
X218405734Y-122787104D01*
X218372446Y-122789357D01*
X218327104Y-122790786D01*
X218267045Y-122791556D01*
X218189604Y-122791832D01*
X218118776Y-122791826D01*
X218060210Y-122791495D01*
X218016215Y-122790607D01*
X217983966Y-122788935D01*
X217960640Y-122786254D01*
X217943414Y-122782337D01*
X217929463Y-122776957D01*
X217915964Y-122769889D01*
X217908704Y-122765451D01*
X217878034Y-122740376D01*
X217854457Y-122712252D01*
X217853065Y-122710004D01*
X217848673Y-122702328D01*
X217844933Y-122693678D01*
X217841777Y-122682463D01*
X217839137Y-122667095D01*
X217836946Y-122645984D01*
X217835134Y-122617540D01*
X217833635Y-122580175D01*
X217832380Y-122532299D01*
X217831301Y-122472323D01*
X217830331Y-122398658D01*
X217829400Y-122309714D01*
X217828442Y-122203902D01*
X217827387Y-122079632D01*
X217822375Y-121482476D01*
X217797488Y-121446169D01*
X217789268Y-121435066D01*
X217747482Y-121396960D01*
X217698378Y-121374837D01*
X217645839Y-121368696D01*
X217593750Y-121378537D01*
X217545995Y-121404362D01*
X217506457Y-121446169D01*
X217481570Y-121482476D01*
X217476559Y-122079632D01*
X217476242Y-122117311D01*
X217475222Y-122236116D01*
X217474279Y-122336920D01*
X217473344Y-122421313D01*
X217472349Y-122490883D01*
X217471226Y-122547221D01*
X217469908Y-122591915D01*
X217468326Y-122626554D01*
X217466413Y-122652729D01*
X217464099Y-122672028D01*
X217461318Y-122686040D01*
X217458001Y-122696355D01*
X217454081Y-122704563D01*
X217449489Y-122712252D01*
X217444445Y-122719560D01*
X217417922Y-122747727D01*
X217387093Y-122770388D01*
X217382890Y-122772730D01*
X217369924Y-122779267D01*
X217356150Y-122784175D01*
X217338819Y-122787644D01*
X217315182Y-122789864D01*
X217282492Y-122791025D01*
X217238001Y-122791317D01*
X217178961Y-122790930D01*
X217102623Y-122790054D01*
X216858492Y-122787048D01*
X216823119Y-122760049D01*
X216819086Y-122756991D01*
X216805851Y-122746907D01*
X216794570Y-122737127D01*
X216785087Y-122726087D01*
X216777244Y-122712221D01*
X216770888Y-122693963D01*
X216765862Y-122669748D01*
X216762010Y-122638009D01*
X216759177Y-122597183D01*
X216757207Y-122545702D01*
X216755945Y-122482002D01*
X216755234Y-122404517D01*
X216754919Y-122311681D01*
X216754844Y-122201929D01*
X216754854Y-122073696D01*
X216754859Y-122014785D01*
X216754923Y-121899422D01*
X216755099Y-121801781D01*
X216755433Y-121720266D01*
X216755974Y-121653278D01*
X216756769Y-121599221D01*
X216757866Y-121556497D01*
X216759311Y-121523511D01*
X216761153Y-121498664D01*
X216763438Y-121480360D01*
X216766215Y-121467001D01*
X216769530Y-121456990D01*
X216773432Y-121448731D01*
X216779374Y-121438473D01*
X216817561Y-121396283D01*
X216870921Y-121366411D01*
X216938484Y-121349438D01*
X216993443Y-121337600D01*
X217040932Y-121314958D01*
X217074814Y-121280355D01*
X217097182Y-121231557D01*
X217110128Y-121166333D01*
X217112345Y-121151788D01*
X217131897Y-121093376D01*
X217165917Y-121045790D01*
X217212272Y-121012244D01*
X217213564Y-121011617D01*
X217228581Y-121005514D01*
X217246959Y-121000731D01*
X217271477Y-120997020D01*
X217304917Y-120994138D01*
X217350061Y-120991837D01*
X217409689Y-120989872D01*
X217486582Y-120987996D01*
X217549699Y-120986524D01*
X217616428Y-120984404D01*
X217667756Y-120981450D01*
X217706315Y-120976999D01*
X217734736Y-120970388D01*
X217755648Y-120960953D01*
X217771683Y-120948032D01*
X217785472Y-120930961D01*
X217799646Y-120909077D01*
X217806803Y-120896625D01*
X217812385Y-120883277D01*
X217816628Y-120866348D01*
X217819808Y-120843096D01*
X217822199Y-120810774D01*
X217824076Y-120766640D01*
X217825714Y-120707949D01*
X217827387Y-120631957D01*
X217828454Y-120582270D01*
X217830261Y-120514067D01*
X217832539Y-120461575D01*
X217835790Y-120422086D01*
X217840515Y-120392894D01*
X217847214Y-120371292D01*
X217856387Y-120354572D01*
X217868536Y-120340029D01*
X217884161Y-120324954D01*
X217890976Y-120318703D01*
X217907309Y-120305018D01*
X217923941Y-120294630D01*
X217943692Y-120287083D01*
X217969383Y-120281926D01*
X218003836Y-120278704D01*
X218049873Y-120276965D01*
X218110314Y-120276253D01*
X218187980Y-120276117D01*
X218239578Y-120276215D01*
G37*
G36*
X205158678Y-120276215D02*
G01*
X205232170Y-120277099D01*
X205289687Y-120279441D01*
X205333792Y-120283878D01*
X205367047Y-120291052D01*
X205392014Y-120301600D01*
X205411259Y-120316163D01*
X205427342Y-120335380D01*
X205442827Y-120359891D01*
X205468445Y-120403605D01*
X205465813Y-121545991D01*
X205463180Y-122688376D01*
X205436321Y-122723589D01*
X205431280Y-122729803D01*
X205404126Y-122756180D01*
X205376179Y-122775203D01*
X205365906Y-122779461D01*
X205348733Y-122783860D01*
X205324834Y-122787104D01*
X205291546Y-122789357D01*
X205246204Y-122790786D01*
X205186145Y-122791556D01*
X205108705Y-122791832D01*
X205037876Y-122791826D01*
X204979310Y-122791495D01*
X204935315Y-122790607D01*
X204903066Y-122788935D01*
X204879740Y-122786254D01*
X204862514Y-122782337D01*
X204848563Y-122776957D01*
X204835064Y-122769889D01*
X204827804Y-122765451D01*
X204797134Y-122740376D01*
X204773557Y-122712252D01*
X204772165Y-122710004D01*
X204767773Y-122702328D01*
X204764033Y-122693678D01*
X204760877Y-122682463D01*
X204758237Y-122667095D01*
X204756046Y-122645984D01*
X204754235Y-122617540D01*
X204752735Y-122580175D01*
X204751480Y-122532299D01*
X204750401Y-122472323D01*
X204749431Y-122398658D01*
X204748500Y-122309714D01*
X204747542Y-122203902D01*
X204746488Y-122079632D01*
X204741476Y-121482476D01*
X204716589Y-121446169D01*
X204708368Y-121435066D01*
X204666582Y-121396960D01*
X204617478Y-121374837D01*
X204564939Y-121368696D01*
X204512850Y-121378537D01*
X204465095Y-121404362D01*
X204425558Y-121446169D01*
X204400671Y-121482476D01*
X204395659Y-122079632D01*
X204395342Y-122117311D01*
X204394322Y-122236116D01*
X204393379Y-122336920D01*
X204392444Y-122421313D01*
X204391449Y-122490883D01*
X204390327Y-122547221D01*
X204389008Y-122591915D01*
X204387426Y-122626554D01*
X204385513Y-122652729D01*
X204383199Y-122672028D01*
X204380418Y-122686040D01*
X204377102Y-122696355D01*
X204373181Y-122704563D01*
X204368589Y-122712252D01*
X204363545Y-122719560D01*
X204337022Y-122747727D01*
X204306193Y-122770388D01*
X204301990Y-122772730D01*
X204289025Y-122779267D01*
X204275250Y-122784175D01*
X204257919Y-122787644D01*
X204234282Y-122789864D01*
X204201592Y-122791025D01*
X204157101Y-122791317D01*
X204098061Y-122790930D01*
X204021724Y-122790054D01*
X203777592Y-122787048D01*
X203742219Y-122760049D01*
X203738186Y-122756991D01*
X203724952Y-122746907D01*
X203713671Y-122737127D01*
X203704187Y-122726087D01*
X203696345Y-122712221D01*
X203689988Y-122693963D01*
X203684962Y-122669748D01*
X203681111Y-122638009D01*
X203678278Y-122597183D01*
X203676308Y-122545702D01*
X203675045Y-122482002D01*
X203674334Y-122404517D01*
X203674019Y-122311681D01*
X203673944Y-122201929D01*
X203673954Y-122073696D01*
X203673959Y-122014785D01*
X203674023Y-121899422D01*
X203674199Y-121801781D01*
X203674534Y-121720266D01*
X203675075Y-121653278D01*
X203675870Y-121599221D01*
X203676966Y-121556497D01*
X203678411Y-121523511D01*
X203680253Y-121498664D01*
X203682538Y-121480360D01*
X203685315Y-121467001D01*
X203688631Y-121456990D01*
X203692532Y-121448731D01*
X203698474Y-121438473D01*
X203736661Y-121396283D01*
X203790021Y-121366411D01*
X203857584Y-121349438D01*
X203912543Y-121337600D01*
X203960032Y-121314958D01*
X203993915Y-121280355D01*
X204016282Y-121231557D01*
X204029229Y-121166333D01*
X204031445Y-121151788D01*
X204050998Y-121093376D01*
X204085017Y-121045790D01*
X204131372Y-121012244D01*
X204132664Y-121011617D01*
X204147682Y-121005514D01*
X204166059Y-121000731D01*
X204190577Y-120997020D01*
X204224017Y-120994138D01*
X204269161Y-120991837D01*
X204328789Y-120989872D01*
X204405682Y-120987996D01*
X204468800Y-120986524D01*
X204535528Y-120984404D01*
X204586857Y-120981450D01*
X204625416Y-120976999D01*
X204653836Y-120970388D01*
X204674748Y-120960953D01*
X204690784Y-120948032D01*
X204704573Y-120930961D01*
X204718746Y-120909077D01*
X204725904Y-120896625D01*
X204731485Y-120883277D01*
X204735728Y-120866348D01*
X204738908Y-120843096D01*
X204741299Y-120810774D01*
X204743177Y-120766640D01*
X204744814Y-120707949D01*
X204746488Y-120631957D01*
X204747555Y-120582270D01*
X204749361Y-120514067D01*
X204751639Y-120461575D01*
X204754890Y-120422086D01*
X204759615Y-120392894D01*
X204766314Y-120371292D01*
X204775488Y-120354572D01*
X204787636Y-120340029D01*
X204803261Y-120324954D01*
X204810076Y-120318703D01*
X204826410Y-120305018D01*
X204843041Y-120294630D01*
X204862792Y-120287083D01*
X204888483Y-120281926D01*
X204922937Y-120278704D01*
X204968973Y-120276965D01*
X205029414Y-120276253D01*
X205107080Y-120276117D01*
X205158678Y-120276215D01*
G37*
G36*
X194182293Y-120992844D02*
G01*
X194246324Y-120993390D01*
X194303882Y-120994515D01*
X194351574Y-120996117D01*
X194386006Y-120998088D01*
X194403785Y-121000325D01*
X194412804Y-121003418D01*
X194449159Y-121024617D01*
X194483703Y-121056007D01*
X194508858Y-121091046D01*
X194516424Y-121110375D01*
X194525835Y-121146149D01*
X194532627Y-121185418D01*
X194538876Y-121218827D01*
X194561554Y-121273918D01*
X194597104Y-121314678D01*
X194644344Y-121339968D01*
X194702093Y-121348650D01*
X194708001Y-121348562D01*
X194765100Y-121337752D01*
X194813356Y-121310541D01*
X194850574Y-121269286D01*
X194874564Y-121216343D01*
X194883132Y-121154069D01*
X194888105Y-121125368D01*
X194907250Y-121084981D01*
X194936656Y-121047606D01*
X194971910Y-121019912D01*
X194982799Y-121014229D01*
X195038246Y-120997105D01*
X195094090Y-120997084D01*
X195146372Y-121013086D01*
X195191129Y-121044029D01*
X195224400Y-121088832D01*
X195227811Y-121095894D01*
X195231037Y-121104291D01*
X195233803Y-121114806D01*
X195236138Y-121128819D01*
X195238072Y-121147707D01*
X195239632Y-121172851D01*
X195240849Y-121205630D01*
X195241752Y-121247423D01*
X195242369Y-121299608D01*
X195242731Y-121363566D01*
X195242865Y-121440675D01*
X195242801Y-121532315D01*
X195242569Y-121639864D01*
X195242197Y-121764702D01*
X195241715Y-121908208D01*
X195239029Y-122688380D01*
X195212169Y-122723591D01*
X195207129Y-122729803D01*
X195179975Y-122756180D01*
X195152027Y-122775203D01*
X195141755Y-122779461D01*
X195124582Y-122783860D01*
X195100683Y-122787104D01*
X195067394Y-122789357D01*
X195022052Y-122790786D01*
X194961993Y-122791556D01*
X194884553Y-122791832D01*
X194813724Y-122791826D01*
X194755159Y-122791495D01*
X194711163Y-122790607D01*
X194678915Y-122788935D01*
X194655589Y-122786254D01*
X194638362Y-122782337D01*
X194624411Y-122776957D01*
X194610913Y-122769889D01*
X194603653Y-122765451D01*
X194572983Y-122740376D01*
X194549406Y-122712252D01*
X194548014Y-122710004D01*
X194543622Y-122702328D01*
X194539882Y-122693678D01*
X194536726Y-122682463D01*
X194534086Y-122667095D01*
X194531894Y-122645984D01*
X194530083Y-122617540D01*
X194528584Y-122580175D01*
X194527329Y-122532299D01*
X194526250Y-122472323D01*
X194525279Y-122398658D01*
X194524349Y-122309714D01*
X194523390Y-122203902D01*
X194522336Y-122079632D01*
X194517324Y-121482476D01*
X194492437Y-121446169D01*
X194484217Y-121435066D01*
X194442431Y-121396960D01*
X194393327Y-121374837D01*
X194340788Y-121368696D01*
X194288699Y-121378537D01*
X194240944Y-121404362D01*
X194201406Y-121446169D01*
X194176519Y-121482476D01*
X194171507Y-122079632D01*
X194171191Y-122117311D01*
X194170171Y-122236116D01*
X194169227Y-122336920D01*
X194168292Y-122421313D01*
X194167297Y-122490883D01*
X194166175Y-122547221D01*
X194164857Y-122591915D01*
X194163275Y-122626554D01*
X194161361Y-122652729D01*
X194159048Y-122672028D01*
X194156267Y-122686040D01*
X194152950Y-122696355D01*
X194149030Y-122704563D01*
X194144437Y-122712252D01*
X194139394Y-122719560D01*
X194112870Y-122747727D01*
X194082042Y-122770388D01*
X194077838Y-122772730D01*
X194064873Y-122779267D01*
X194051099Y-122784175D01*
X194033767Y-122787644D01*
X194010131Y-122789864D01*
X193977441Y-122791025D01*
X193932950Y-122791317D01*
X193873909Y-122790930D01*
X193797572Y-122790054D01*
X193553440Y-122787048D01*
X193518067Y-122760049D01*
X193514034Y-122756991D01*
X193500800Y-122746907D01*
X193489519Y-122737127D01*
X193480035Y-122726087D01*
X193472193Y-122712221D01*
X193465837Y-122693963D01*
X193460811Y-122669748D01*
X193456959Y-122638009D01*
X193454126Y-122597183D01*
X193452156Y-122545702D01*
X193450894Y-122482002D01*
X193450183Y-122404517D01*
X193449868Y-122311681D01*
X193449793Y-122201929D01*
X193449802Y-122073696D01*
X193449808Y-122014785D01*
X193449872Y-121899422D01*
X193450047Y-121801781D01*
X193450382Y-121720266D01*
X193450923Y-121653278D01*
X193451718Y-121599221D01*
X193452815Y-121556497D01*
X193454260Y-121523511D01*
X193456101Y-121498664D01*
X193458387Y-121480360D01*
X193461164Y-121467001D01*
X193464479Y-121456990D01*
X193468381Y-121448731D01*
X193474433Y-121438288D01*
X193512722Y-121396063D01*
X193566350Y-121366267D01*
X193634720Y-121349256D01*
X193681280Y-121340023D01*
X193730089Y-121319619D01*
X193764884Y-121287816D01*
X193788161Y-121242094D01*
X193802412Y-121179937D01*
X193807372Y-121152822D01*
X193828468Y-121091124D01*
X193861502Y-121044599D01*
X193907221Y-121012046D01*
X193907626Y-121011846D01*
X193922465Y-121005444D01*
X193939483Y-121000645D01*
X193961658Y-120997223D01*
X193991968Y-120994955D01*
X194033390Y-120993613D01*
X194088903Y-120992973D01*
X194161484Y-120992810D01*
X194182293Y-120992844D01*
G37*
G36*
X216405166Y-122306685D02*
G01*
X216395349Y-122332069D01*
X216364667Y-122374597D01*
X216321604Y-122409292D01*
X216271019Y-122432665D01*
X216217768Y-122441231D01*
X216183112Y-122445226D01*
X216135617Y-122465958D01*
X216096840Y-122502502D01*
X216068783Y-122552744D01*
X216053454Y-122614569D01*
X216048684Y-122645939D01*
X216041814Y-122678085D01*
X216035170Y-122697835D01*
X216028017Y-122708640D01*
X216004584Y-122734911D01*
X215975390Y-122761197D01*
X215947948Y-122780390D01*
X215946422Y-122781091D01*
X215925842Y-122785128D01*
X215889326Y-122788267D01*
X215840418Y-122790522D01*
X215782663Y-122791907D01*
X215719606Y-122792436D01*
X215654792Y-122792122D01*
X215591765Y-122790978D01*
X215534071Y-122789020D01*
X215485254Y-122786259D01*
X215448860Y-122782711D01*
X215428432Y-122778388D01*
X215385963Y-122750452D01*
X215352120Y-122707826D01*
X215329707Y-122655052D01*
X215321359Y-122596598D01*
X215318141Y-122573338D01*
X215300647Y-122531563D01*
X215271816Y-122492681D01*
X215236062Y-122463574D01*
X215200829Y-122448845D01*
X215147115Y-122442188D01*
X215093558Y-122450969D01*
X215046931Y-122474784D01*
X215032145Y-122486656D01*
X215010495Y-122508915D01*
X214995410Y-122535019D01*
X214984199Y-122570352D01*
X214974171Y-122620294D01*
X214961423Y-122672281D01*
X214935699Y-122725878D01*
X214899054Y-122763176D01*
X214850632Y-122784972D01*
X214789579Y-122792060D01*
X214773087Y-122791389D01*
X214716034Y-122777732D01*
X214667930Y-122747947D01*
X214632232Y-122703971D01*
X214609787Y-122664035D01*
X214609787Y-122270459D01*
X215337386Y-122270459D01*
X215348603Y-122320011D01*
X215374482Y-122364601D01*
X215415155Y-122400186D01*
X215463035Y-122420849D01*
X215515877Y-122426360D01*
X215566732Y-122416295D01*
X215612204Y-122392479D01*
X215648891Y-122356736D01*
X215673396Y-122310891D01*
X215682320Y-122256768D01*
X215678828Y-122221266D01*
X215659956Y-122171157D01*
X215627488Y-122131201D01*
X215584571Y-122103201D01*
X215534350Y-122088962D01*
X215479972Y-122090287D01*
X215424582Y-122108982D01*
X215390407Y-122132450D01*
X215358419Y-122172636D01*
X215340702Y-122219987D01*
X215337386Y-122270459D01*
X214609787Y-122270459D01*
X214609787Y-121482883D01*
X214638506Y-121437598D01*
X214657593Y-121411974D01*
X214693471Y-121381843D01*
X214740622Y-121361332D01*
X214803086Y-121348248D01*
X214846630Y-121339141D01*
X214892586Y-121318337D01*
X214926263Y-121285496D01*
X214949916Y-121238204D01*
X214965795Y-121174052D01*
X214976187Y-121127623D01*
X214996901Y-121076685D01*
X215026726Y-121039201D01*
X215067804Y-121011762D01*
X215068375Y-121011480D01*
X215079190Y-121006740D01*
X215091840Y-121002874D01*
X215108347Y-120999793D01*
X215130734Y-120997411D01*
X215161027Y-120995637D01*
X215201248Y-120994383D01*
X215253422Y-120993562D01*
X215319572Y-120993085D01*
X215401721Y-120992864D01*
X215501894Y-120992810D01*
X215524086Y-120992822D01*
X215611129Y-120993097D01*
X215692118Y-120993707D01*
X215764721Y-120994610D01*
X215826604Y-120995765D01*
X215875437Y-120997130D01*
X215908887Y-120998664D01*
X215924622Y-121000325D01*
X215959018Y-121015319D01*
X215998962Y-121049044D01*
X216029058Y-121094012D01*
X216047245Y-121145724D01*
X216051464Y-121199685D01*
X216039654Y-121251398D01*
X216028801Y-121271364D01*
X215997342Y-121308029D01*
X215957233Y-121338987D01*
X215915645Y-121358071D01*
X215913988Y-121358488D01*
X215890186Y-121361689D01*
X215850568Y-121364470D01*
X215798901Y-121366666D01*
X215738950Y-121368111D01*
X215674480Y-121368642D01*
X215616213Y-121368829D01*
X215551273Y-121369926D01*
X215501441Y-121372516D01*
X215463861Y-121377174D01*
X215435673Y-121384471D01*
X215414022Y-121394981D01*
X215396050Y-121409277D01*
X215378900Y-121427933D01*
X215369523Y-121440015D01*
X215344050Y-121491327D01*
X215336952Y-121545727D01*
X215348244Y-121599550D01*
X215377943Y-121649131D01*
X215387974Y-121660793D01*
X215401940Y-121674821D01*
X215417309Y-121685543D01*
X215436742Y-121693479D01*
X215462903Y-121699147D01*
X215498456Y-121703064D01*
X215546063Y-121705751D01*
X215608389Y-121707724D01*
X215688096Y-121709503D01*
X215728097Y-121710339D01*
X215794759Y-121711861D01*
X215845506Y-121713435D01*
X215883093Y-121715371D01*
X215910274Y-121717983D01*
X215929805Y-121721582D01*
X215944442Y-121726480D01*
X215956938Y-121732988D01*
X215970050Y-121741418D01*
X215984358Y-121752215D01*
X216019979Y-121792978D01*
X216044236Y-121842469D01*
X216053196Y-121893493D01*
X216053488Y-121901105D01*
X216063245Y-121944833D01*
X216083599Y-121988584D01*
X216110133Y-122022361D01*
X216112254Y-122024223D01*
X216149241Y-122047242D01*
X216194890Y-122063924D01*
X216238712Y-122070355D01*
X216244482Y-122070465D01*
X216296179Y-122081585D01*
X216341115Y-122108554D01*
X216376884Y-122147961D01*
X216401085Y-122196393D01*
X216411313Y-122250439D01*
X216410621Y-122256768D01*
X216405166Y-122306685D01*
G37*
G36*
X203324267Y-122306685D02*
G01*
X203314449Y-122332069D01*
X203283767Y-122374597D01*
X203240705Y-122409292D01*
X203190119Y-122432665D01*
X203136868Y-122441231D01*
X203102212Y-122445226D01*
X203054717Y-122465958D01*
X203015940Y-122502502D01*
X202987884Y-122552744D01*
X202972554Y-122614569D01*
X202967784Y-122645939D01*
X202960914Y-122678085D01*
X202954270Y-122697835D01*
X202947117Y-122708640D01*
X202923684Y-122734911D01*
X202894490Y-122761197D01*
X202867048Y-122780390D01*
X202865523Y-122781091D01*
X202844943Y-122785128D01*
X202808426Y-122788267D01*
X202759518Y-122790522D01*
X202701763Y-122791907D01*
X202638706Y-122792436D01*
X202573892Y-122792122D01*
X202510865Y-122790978D01*
X202453171Y-122789020D01*
X202404355Y-122786259D01*
X202367960Y-122782711D01*
X202347533Y-122778388D01*
X202305063Y-122750452D01*
X202271220Y-122707826D01*
X202248808Y-122655052D01*
X202240459Y-122596598D01*
X202237241Y-122573338D01*
X202219747Y-122531563D01*
X202190916Y-122492681D01*
X202155162Y-122463574D01*
X202119929Y-122448845D01*
X202066215Y-122442188D01*
X202012659Y-122450969D01*
X201966032Y-122474784D01*
X201951245Y-122486656D01*
X201929595Y-122508915D01*
X201914510Y-122535019D01*
X201903299Y-122570352D01*
X201893271Y-122620294D01*
X201880523Y-122672281D01*
X201854799Y-122725878D01*
X201818154Y-122763176D01*
X201769732Y-122784972D01*
X201708679Y-122792060D01*
X201692187Y-122791389D01*
X201635134Y-122777732D01*
X201587030Y-122747947D01*
X201551332Y-122703971D01*
X201528887Y-122664035D01*
X201528887Y-122270459D01*
X202256487Y-122270459D01*
X202267703Y-122320011D01*
X202293582Y-122364601D01*
X202334255Y-122400186D01*
X202382135Y-122420849D01*
X202434977Y-122426360D01*
X202485833Y-122416295D01*
X202531304Y-122392479D01*
X202567992Y-122356736D01*
X202592497Y-122310891D01*
X202601420Y-122256768D01*
X202597928Y-122221266D01*
X202579056Y-122171157D01*
X202546588Y-122131201D01*
X202503671Y-122103201D01*
X202453450Y-122088962D01*
X202399072Y-122090287D01*
X202343683Y-122108982D01*
X202309507Y-122132450D01*
X202277520Y-122172636D01*
X202259803Y-122219987D01*
X202256487Y-122270459D01*
X201528887Y-122270459D01*
X201528887Y-121482883D01*
X201557606Y-121437598D01*
X201576694Y-121411974D01*
X201612571Y-121381843D01*
X201659722Y-121361332D01*
X201722186Y-121348248D01*
X201765730Y-121339141D01*
X201811686Y-121318337D01*
X201845364Y-121285496D01*
X201869016Y-121238204D01*
X201884895Y-121174052D01*
X201895287Y-121127623D01*
X201916001Y-121076685D01*
X201945826Y-121039201D01*
X201986904Y-121011762D01*
X201987475Y-121011480D01*
X201998291Y-121006740D01*
X202010940Y-121002874D01*
X202027447Y-120999793D01*
X202049835Y-120997411D01*
X202080127Y-120995637D01*
X202120349Y-120994383D01*
X202172522Y-120993562D01*
X202238672Y-120993085D01*
X202320821Y-120992864D01*
X202420994Y-120992810D01*
X202443186Y-120992822D01*
X202530230Y-120993097D01*
X202611219Y-120993707D01*
X202683821Y-120994610D01*
X202745705Y-120995765D01*
X202794537Y-120997130D01*
X202827987Y-120998664D01*
X202843722Y-121000325D01*
X202878119Y-121015319D01*
X202918062Y-121049044D01*
X202948158Y-121094012D01*
X202966345Y-121145724D01*
X202970564Y-121199685D01*
X202958754Y-121251398D01*
X202947901Y-121271364D01*
X202916442Y-121308029D01*
X202876333Y-121338987D01*
X202834745Y-121358071D01*
X202833088Y-121358488D01*
X202809286Y-121361689D01*
X202769669Y-121364470D01*
X202718001Y-121366666D01*
X202658050Y-121368111D01*
X202593581Y-121368642D01*
X202535313Y-121368829D01*
X202470373Y-121369926D01*
X202420542Y-121372516D01*
X202382961Y-121377174D01*
X202354774Y-121384471D01*
X202333123Y-121394981D01*
X202315151Y-121409277D01*
X202298000Y-121427933D01*
X202288623Y-121440015D01*
X202263150Y-121491327D01*
X202256052Y-121545727D01*
X202267344Y-121599550D01*
X202297043Y-121649131D01*
X202307074Y-121660793D01*
X202321041Y-121674821D01*
X202336409Y-121685543D01*
X202355842Y-121693479D01*
X202382003Y-121699147D01*
X202417556Y-121703064D01*
X202465163Y-121705751D01*
X202527489Y-121707724D01*
X202607196Y-121709503D01*
X202647197Y-121710339D01*
X202713860Y-121711861D01*
X202764606Y-121713435D01*
X202802193Y-121715371D01*
X202829374Y-121717983D01*
X202848906Y-121721582D01*
X202863542Y-121726480D01*
X202876039Y-121732988D01*
X202889151Y-121741418D01*
X202903458Y-121752215D01*
X202939079Y-121792978D01*
X202963337Y-121842469D01*
X202972297Y-121893493D01*
X202972588Y-121901105D01*
X202982345Y-121944833D01*
X203002699Y-121988584D01*
X203029233Y-122022361D01*
X203031354Y-122024223D01*
X203068342Y-122047242D01*
X203113991Y-122063924D01*
X203157812Y-122070355D01*
X203163582Y-122070465D01*
X203215280Y-122081585D01*
X203260215Y-122108554D01*
X203295984Y-122147961D01*
X203320185Y-122196393D01*
X203330413Y-122250439D01*
X203329721Y-122256768D01*
X203324267Y-122306685D01*
G37*
G36*
X209131314Y-120998116D02*
G01*
X209189248Y-120998552D01*
X209232714Y-120999527D01*
X209264544Y-121001278D01*
X209287568Y-121004040D01*
X209304618Y-121008048D01*
X209318523Y-121013537D01*
X209332116Y-121020744D01*
X209337921Y-121024288D01*
X209369876Y-121051277D01*
X209394727Y-121083227D01*
X209417447Y-121123118D01*
X209414978Y-121725325D01*
X209412510Y-122327532D01*
X209384426Y-122364345D01*
X209361649Y-122390228D01*
X209329232Y-122413866D01*
X209287823Y-122429725D01*
X209231962Y-122440533D01*
X209179744Y-122451849D01*
X209132030Y-122474502D01*
X209097884Y-122509222D01*
X209075294Y-122558181D01*
X209062247Y-122623549D01*
X209056180Y-122656876D01*
X209033603Y-122711518D01*
X208996414Y-122752818D01*
X208944124Y-122781232D01*
X208876243Y-122797219D01*
X208851686Y-122801044D01*
X208805326Y-122814169D01*
X208769809Y-122835726D01*
X208738935Y-122868953D01*
X208728223Y-122883986D01*
X208717168Y-122906462D01*
X208712080Y-122933373D01*
X208710852Y-122972486D01*
X208711268Y-122998481D01*
X208714628Y-123029148D01*
X208723148Y-123052405D01*
X208738935Y-123076020D01*
X208740265Y-123077748D01*
X208777179Y-123114750D01*
X208821770Y-123137791D01*
X208879288Y-123149624D01*
X208910415Y-123155323D01*
X208959328Y-123172851D01*
X209001311Y-123197779D01*
X209029809Y-123226749D01*
X209046023Y-123256892D01*
X209060707Y-123312348D01*
X209058911Y-123368048D01*
X209041593Y-123420042D01*
X209009712Y-123464382D01*
X208964224Y-123497116D01*
X208945005Y-123502308D01*
X208908269Y-123507001D01*
X208858672Y-123510639D01*
X208799868Y-123513206D01*
X208735508Y-123514684D01*
X208669244Y-123515055D01*
X208604730Y-123514301D01*
X208545617Y-123512404D01*
X208495558Y-123509348D01*
X208458204Y-123505113D01*
X208437209Y-123499682D01*
X208406741Y-123479049D01*
X208369062Y-123435961D01*
X208344020Y-123383195D01*
X208334799Y-123326143D01*
X208334799Y-123326084D01*
X208325705Y-123279016D01*
X208301584Y-123234917D01*
X208266489Y-123198049D01*
X208224475Y-123172671D01*
X208179597Y-123163045D01*
X208153746Y-123161216D01*
X208096879Y-123145499D01*
X208047124Y-123116054D01*
X208008567Y-123075734D01*
X207985292Y-123027391D01*
X207981894Y-123006380D01*
X207978744Y-122967189D01*
X207976311Y-122914121D01*
X207974737Y-122850390D01*
X207974168Y-122779209D01*
X207973869Y-122706060D01*
X207972555Y-122643068D01*
X207969643Y-122594792D01*
X207964551Y-122558456D01*
X207956696Y-122531283D01*
X207945494Y-122510497D01*
X207930363Y-122493321D01*
X207910720Y-122476978D01*
X207902609Y-122471213D01*
X207862575Y-122452288D01*
X207808843Y-122440533D01*
X207763449Y-122432350D01*
X207719428Y-122417792D01*
X207685558Y-122396033D01*
X207656378Y-122364345D01*
X207628295Y-122327532D01*
X207625826Y-121725325D01*
X207623358Y-121123118D01*
X207646078Y-121083227D01*
X207649640Y-121077423D01*
X207676707Y-121045510D01*
X207708689Y-121020744D01*
X207721899Y-121013720D01*
X207735756Y-121008184D01*
X207752676Y-121004136D01*
X207775488Y-121001342D01*
X207807025Y-120999565D01*
X207850117Y-120998571D01*
X207907595Y-120998123D01*
X207982289Y-120997987D01*
X208045848Y-120998193D01*
X208122287Y-120999381D01*
X208180080Y-121001604D01*
X208218769Y-121004840D01*
X208237892Y-121009070D01*
X208246902Y-121014265D01*
X208277665Y-121037547D01*
X208307566Y-121066376D01*
X208328309Y-121093047D01*
X208330237Y-121099574D01*
X208332796Y-121120353D01*
X208335105Y-121155299D01*
X208337187Y-121205250D01*
X208339064Y-121271047D01*
X208340761Y-121353531D01*
X208342298Y-121453542D01*
X208343700Y-121571919D01*
X208344988Y-121709503D01*
X208345295Y-121746009D01*
X208346316Y-121864899D01*
X208347261Y-121965776D01*
X208348197Y-122050229D01*
X208349191Y-122119849D01*
X208350314Y-122176227D01*
X208351632Y-122220953D01*
X208353214Y-122255618D01*
X208355127Y-122281811D01*
X208357441Y-122301124D01*
X208360222Y-122315146D01*
X208363540Y-122325469D01*
X208367463Y-122333682D01*
X208372058Y-122341376D01*
X208392112Y-122367335D01*
X208434355Y-122399316D01*
X208483730Y-122416774D01*
X208536047Y-122419708D01*
X208587116Y-122408121D01*
X208632746Y-122382010D01*
X208668747Y-122341376D01*
X208670097Y-122339196D01*
X208674498Y-122331517D01*
X208678245Y-122322876D01*
X208681407Y-122311684D01*
X208684052Y-122296349D01*
X208686247Y-122275281D01*
X208688062Y-122246889D01*
X208689563Y-122209584D01*
X208690820Y-122161775D01*
X208691900Y-122101872D01*
X208692871Y-122028283D01*
X208693803Y-121939419D01*
X208694762Y-121833689D01*
X208695817Y-121709503D01*
X208696697Y-121612215D01*
X208698061Y-121488010D01*
X208699554Y-121382432D01*
X208701199Y-121294639D01*
X208703019Y-121223790D01*
X208705035Y-121169047D01*
X208707272Y-121129569D01*
X208709751Y-121104516D01*
X208712495Y-121093047D01*
X208717878Y-121084874D01*
X208742595Y-121056628D01*
X208773705Y-121028792D01*
X208802912Y-121009070D01*
X208814037Y-121006038D01*
X208846746Y-121002494D01*
X208898702Y-120999957D01*
X208969445Y-120998448D01*
X209058516Y-120997987D01*
X209131314Y-120998116D01*
G37*
G36*
X214076145Y-122447026D02*
G01*
X214073520Y-123410082D01*
X214046660Y-123445294D01*
X214041619Y-123451508D01*
X214014465Y-123477885D01*
X213986518Y-123496908D01*
X213976246Y-123501166D01*
X213959073Y-123505565D01*
X213935174Y-123508809D01*
X213901885Y-123511062D01*
X213856543Y-123512491D01*
X213796484Y-123513260D01*
X213719044Y-123513537D01*
X213648215Y-123513531D01*
X213589650Y-123513199D01*
X213545654Y-123512311D01*
X213513406Y-123510640D01*
X213490080Y-123507959D01*
X213472853Y-123504042D01*
X213458902Y-123498662D01*
X213445404Y-123491593D01*
X213438144Y-123487156D01*
X213407474Y-123462081D01*
X213383897Y-123433957D01*
X213377416Y-123422660D01*
X213371880Y-123409403D01*
X213367654Y-123392468D01*
X213364470Y-123369129D01*
X213362063Y-123336657D01*
X213360164Y-123292323D01*
X213358508Y-123233400D01*
X213356827Y-123157160D01*
X213356024Y-123118750D01*
X213354495Y-123051707D01*
X213352920Y-123000639D01*
X213350989Y-122962795D01*
X213348391Y-122935421D01*
X213344818Y-122915764D01*
X213339959Y-122901069D01*
X213333504Y-122888585D01*
X213325144Y-122875558D01*
X213319633Y-122867404D01*
X213303187Y-122846112D01*
X213285162Y-122829586D01*
X213262920Y-122817168D01*
X213233824Y-122808203D01*
X213195234Y-122802036D01*
X213144513Y-122798009D01*
X213079021Y-122795468D01*
X212996122Y-122793756D01*
X212992401Y-122793694D01*
X212918493Y-122792295D01*
X212861642Y-122790688D01*
X212818984Y-122788625D01*
X212787655Y-122785856D01*
X212764793Y-122782131D01*
X212747532Y-122777201D01*
X212733011Y-122770815D01*
X212720476Y-122763664D01*
X212681151Y-122727353D01*
X212653208Y-122675326D01*
X212636267Y-122606940D01*
X212627432Y-122563585D01*
X212606944Y-122513342D01*
X212575416Y-122477766D01*
X212530341Y-122454359D01*
X212469211Y-122440626D01*
X212453617Y-122438124D01*
X212388302Y-122418391D01*
X212337854Y-122385948D01*
X212302872Y-122341151D01*
X212301811Y-122339114D01*
X212297380Y-122329014D01*
X212293763Y-122316517D01*
X212292198Y-122307381D01*
X213011010Y-122307381D01*
X213035897Y-122343701D01*
X213039935Y-122349240D01*
X213067271Y-122378165D01*
X213097404Y-122400603D01*
X213131360Y-122414917D01*
X213185531Y-122421608D01*
X213239124Y-122411215D01*
X213287756Y-122384826D01*
X213327043Y-122343533D01*
X213351815Y-122307381D01*
X213351815Y-121895675D01*
X213351795Y-121797623D01*
X213351668Y-121713405D01*
X213351338Y-121645382D01*
X213350708Y-121591589D01*
X213349681Y-121550063D01*
X213348160Y-121518839D01*
X213346049Y-121495954D01*
X213343249Y-121479441D01*
X213339666Y-121467339D01*
X213335201Y-121457682D01*
X213329757Y-121448505D01*
X213309703Y-121422546D01*
X213267460Y-121390566D01*
X213218085Y-121373108D01*
X213165768Y-121370173D01*
X213114699Y-121381761D01*
X213069069Y-121407872D01*
X213033068Y-121448505D01*
X213027816Y-121457330D01*
X213023315Y-121466932D01*
X213019699Y-121478904D01*
X213016871Y-121495208D01*
X213014735Y-121517811D01*
X213013193Y-121548675D01*
X213012149Y-121589766D01*
X213011505Y-121643047D01*
X213011166Y-121710483D01*
X213011033Y-121794038D01*
X213011010Y-121895675D01*
X213011010Y-122307381D01*
X212292198Y-122307381D01*
X212290876Y-122299664D01*
X212288640Y-122276491D01*
X212286972Y-122245040D01*
X212285790Y-122203347D01*
X212285013Y-122149452D01*
X212284559Y-122081393D01*
X212284346Y-121997210D01*
X212284293Y-121894941D01*
X212284295Y-121871456D01*
X212284375Y-121773219D01*
X212284633Y-121692648D01*
X212285149Y-121627783D01*
X212286006Y-121576662D01*
X212287285Y-121537323D01*
X212289068Y-121507807D01*
X212291436Y-121486150D01*
X212294472Y-121470393D01*
X212298257Y-121458574D01*
X212302872Y-121448731D01*
X212308924Y-121438288D01*
X212347213Y-121396063D01*
X212400841Y-121366267D01*
X212469211Y-121349256D01*
X212515771Y-121340023D01*
X212564579Y-121319619D01*
X212599375Y-121287816D01*
X212622652Y-121242094D01*
X212636903Y-121179937D01*
X212641863Y-121152822D01*
X212662959Y-121091124D01*
X212695993Y-121044599D01*
X212741712Y-121012046D01*
X212743728Y-121011060D01*
X212754648Y-121006404D01*
X212767500Y-121002611D01*
X212784298Y-120999595D01*
X212807053Y-120997267D01*
X212837779Y-120995538D01*
X212878488Y-120994321D01*
X212931193Y-120993528D01*
X212997907Y-120993070D01*
X213080642Y-120992860D01*
X213181413Y-120992810D01*
X213201974Y-120992811D01*
X213299175Y-120992885D01*
X213378722Y-120993135D01*
X213442628Y-120993650D01*
X213492907Y-120994516D01*
X213531571Y-120995823D01*
X213560632Y-120997659D01*
X213582105Y-121000111D01*
X213598000Y-121003267D01*
X213610332Y-121007216D01*
X213621113Y-121012046D01*
X213639681Y-121022620D01*
X213680585Y-121060239D01*
X213709083Y-121112278D01*
X213725922Y-121179937D01*
X213735690Y-121227579D01*
X213756374Y-121277341D01*
X213787927Y-121312530D01*
X213832842Y-121335662D01*
X213893614Y-121349256D01*
X213909002Y-121351720D01*
X213974433Y-121371448D01*
X214024967Y-121403943D01*
X214060072Y-121448887D01*
X214060890Y-121450454D01*
X214063912Y-121457186D01*
X214066565Y-121465617D01*
X214068871Y-121476970D01*
X214070849Y-121492469D01*
X214072518Y-121513335D01*
X214073898Y-121540793D01*
X214075009Y-121576066D01*
X214075870Y-121620377D01*
X214076502Y-121674950D01*
X214076924Y-121741007D01*
X214077155Y-121819772D01*
X214077216Y-121912468D01*
X214077125Y-122020318D01*
X214076903Y-122144545D01*
X214076570Y-122286374D01*
X214076514Y-122307381D01*
X214076145Y-122447026D01*
G37*
G36*
X211750651Y-122447026D02*
G01*
X211748027Y-123410082D01*
X211721167Y-123445294D01*
X211716126Y-123451508D01*
X211688972Y-123477885D01*
X211661025Y-123496908D01*
X211650752Y-123501166D01*
X211633579Y-123505565D01*
X211609681Y-123508809D01*
X211576392Y-123511062D01*
X211531050Y-123512491D01*
X211470991Y-123513260D01*
X211393551Y-123513537D01*
X211322722Y-123513531D01*
X211264156Y-123513199D01*
X211220161Y-123512311D01*
X211187912Y-123510640D01*
X211164586Y-123507959D01*
X211147360Y-123504042D01*
X211133409Y-123498662D01*
X211119910Y-123491593D01*
X211112650Y-123487156D01*
X211081980Y-123462081D01*
X211058403Y-123433957D01*
X211051923Y-123422660D01*
X211046387Y-123409403D01*
X211042161Y-123392468D01*
X211038977Y-123369129D01*
X211036569Y-123336657D01*
X211034671Y-123292323D01*
X211033014Y-123233400D01*
X211031334Y-123157160D01*
X211030531Y-123118750D01*
X211029002Y-123051707D01*
X211027427Y-123000639D01*
X211025496Y-122962795D01*
X211022898Y-122935421D01*
X211019324Y-122915764D01*
X211014465Y-122901069D01*
X211008011Y-122888585D01*
X210999651Y-122875558D01*
X210994140Y-122867404D01*
X210977693Y-122846112D01*
X210959669Y-122829586D01*
X210937427Y-122817168D01*
X210908331Y-122808203D01*
X210869741Y-122802036D01*
X210819019Y-122798009D01*
X210753528Y-122795468D01*
X210670628Y-122793756D01*
X210666908Y-122793694D01*
X210593000Y-122792295D01*
X210536149Y-122790688D01*
X210493490Y-122788625D01*
X210462162Y-122785856D01*
X210439299Y-122782131D01*
X210422039Y-122777201D01*
X210407518Y-122770815D01*
X210394982Y-122763664D01*
X210355657Y-122727353D01*
X210327714Y-122675326D01*
X210310774Y-122606940D01*
X210301938Y-122563585D01*
X210281451Y-122513342D01*
X210249923Y-122477766D01*
X210204847Y-122454359D01*
X210143718Y-122440626D01*
X210128124Y-122438124D01*
X210062808Y-122418391D01*
X210012361Y-122385948D01*
X209977379Y-122341151D01*
X209976318Y-122339114D01*
X209971887Y-122329014D01*
X209968269Y-122316517D01*
X209966705Y-122307381D01*
X210685517Y-122307381D01*
X210710404Y-122343701D01*
X210714441Y-122349240D01*
X210741777Y-122378165D01*
X210771911Y-122400603D01*
X210805867Y-122414917D01*
X210860037Y-122421608D01*
X210913631Y-122411215D01*
X210962263Y-122384826D01*
X211001550Y-122343533D01*
X211026322Y-122307381D01*
X211026322Y-121895675D01*
X211026301Y-121797623D01*
X211026175Y-121713405D01*
X211025845Y-121645382D01*
X211025215Y-121591589D01*
X211024188Y-121550063D01*
X211022667Y-121518839D01*
X211020555Y-121495954D01*
X211017756Y-121479441D01*
X211014172Y-121467339D01*
X211009707Y-121457682D01*
X211004264Y-121448505D01*
X210984209Y-121422546D01*
X210941967Y-121390566D01*
X210892592Y-121373108D01*
X210840274Y-121370173D01*
X210789205Y-121381761D01*
X210743575Y-121407872D01*
X210707575Y-121448505D01*
X210702323Y-121457330D01*
X210697822Y-121466932D01*
X210694206Y-121478904D01*
X210691378Y-121495208D01*
X210689242Y-121517811D01*
X210687700Y-121548675D01*
X210686655Y-121589766D01*
X210686012Y-121643047D01*
X210685672Y-121710483D01*
X210685539Y-121794038D01*
X210685517Y-121895675D01*
X210685517Y-122307381D01*
X209966705Y-122307381D01*
X209965383Y-122299664D01*
X209963147Y-122276491D01*
X209961478Y-122245040D01*
X209960296Y-122203347D01*
X209959519Y-122149452D01*
X209959065Y-122081393D01*
X209958853Y-121997210D01*
X209958800Y-121894941D01*
X209958802Y-121871456D01*
X209958882Y-121773219D01*
X209959139Y-121692648D01*
X209959655Y-121627783D01*
X209960512Y-121576662D01*
X209961791Y-121537323D01*
X209963574Y-121507807D01*
X209965943Y-121486150D01*
X209968979Y-121470393D01*
X209972763Y-121458574D01*
X209977379Y-121448731D01*
X209983430Y-121438288D01*
X210021719Y-121396063D01*
X210075347Y-121366267D01*
X210143718Y-121349256D01*
X210190278Y-121340023D01*
X210239086Y-121319619D01*
X210273882Y-121287816D01*
X210297158Y-121242094D01*
X210311410Y-121179937D01*
X210316370Y-121152822D01*
X210337466Y-121091124D01*
X210370499Y-121044599D01*
X210416218Y-121012046D01*
X210418234Y-121011060D01*
X210429155Y-121006404D01*
X210442007Y-121002611D01*
X210458804Y-120999595D01*
X210481560Y-120997267D01*
X210512285Y-120995538D01*
X210552994Y-120994321D01*
X210605699Y-120993528D01*
X210672413Y-120993070D01*
X210755149Y-120992860D01*
X210855919Y-120992810D01*
X210876481Y-120992811D01*
X210973681Y-120992885D01*
X211053228Y-120993135D01*
X211117135Y-120993650D01*
X211167413Y-120994516D01*
X211206077Y-120995823D01*
X211235139Y-120997659D01*
X211256611Y-121000111D01*
X211272507Y-121003267D01*
X211284839Y-121007216D01*
X211295620Y-121012046D01*
X211314188Y-121022620D01*
X211355092Y-121060239D01*
X211383589Y-121112278D01*
X211400429Y-121179937D01*
X211410197Y-121227579D01*
X211430881Y-121277341D01*
X211462434Y-121312530D01*
X211507349Y-121335662D01*
X211568121Y-121349256D01*
X211583509Y-121351720D01*
X211648939Y-121371448D01*
X211699473Y-121403943D01*
X211734579Y-121448887D01*
X211735397Y-121450454D01*
X211738418Y-121457186D01*
X211741072Y-121465617D01*
X211743378Y-121476970D01*
X211745356Y-121492469D01*
X211747025Y-121513335D01*
X211748405Y-121540793D01*
X211749516Y-121576066D01*
X211750377Y-121620377D01*
X211751009Y-121674950D01*
X211751430Y-121741007D01*
X211751662Y-121819772D01*
X211751722Y-121912468D01*
X211751632Y-122020318D01*
X211751410Y-122144545D01*
X211751077Y-122286374D01*
X211751021Y-122307381D01*
X211750651Y-122447026D01*
G37*
G36*
X198585356Y-120990086D02*
G01*
X198647168Y-120994759D01*
X198695661Y-121003327D01*
X198733155Y-121016404D01*
X198761972Y-121034604D01*
X198784431Y-121058542D01*
X198802853Y-121088832D01*
X198806264Y-121095894D01*
X198809490Y-121104291D01*
X198812256Y-121114806D01*
X198814591Y-121128819D01*
X198816525Y-121147707D01*
X198818085Y-121172851D01*
X198819302Y-121205630D01*
X198820205Y-121247423D01*
X198820822Y-121299608D01*
X198821184Y-121363566D01*
X198821318Y-121440675D01*
X198821254Y-121532315D01*
X198821022Y-121639864D01*
X198820650Y-121764702D01*
X198820168Y-121908208D01*
X198817482Y-122688380D01*
X198790622Y-122723591D01*
X198785582Y-122729803D01*
X198758428Y-122756180D01*
X198730480Y-122775203D01*
X198720208Y-122779461D01*
X198703035Y-122783860D01*
X198679136Y-122787104D01*
X198645847Y-122789357D01*
X198600505Y-122790786D01*
X198540446Y-122791556D01*
X198463006Y-122791832D01*
X198392177Y-122791826D01*
X198333612Y-122791495D01*
X198289616Y-122790607D01*
X198257368Y-122788935D01*
X198234042Y-122786254D01*
X198216815Y-122782337D01*
X198202864Y-122776957D01*
X198189366Y-122769889D01*
X198182106Y-122765451D01*
X198151436Y-122740376D01*
X198127859Y-122712252D01*
X198121975Y-122702108D01*
X198116246Y-122688916D01*
X198111877Y-122672271D01*
X198108592Y-122649408D01*
X198106116Y-122617562D01*
X198104174Y-122573966D01*
X198102490Y-122515856D01*
X198100789Y-122440466D01*
X198100151Y-122410503D01*
X198098590Y-122342470D01*
X198097006Y-122290651D01*
X198095079Y-122252254D01*
X198092489Y-122224487D01*
X198088917Y-122204558D01*
X198084042Y-122189674D01*
X198077545Y-122177044D01*
X198069107Y-122163876D01*
X198058394Y-122149440D01*
X198017556Y-122114049D01*
X197969047Y-122093776D01*
X197917034Y-122088623D01*
X197865684Y-122098588D01*
X197819165Y-122123672D01*
X197781643Y-122163876D01*
X197778261Y-122169007D01*
X197770581Y-122181649D01*
X197764724Y-122194791D01*
X197760371Y-122211223D01*
X197757201Y-122233738D01*
X197754894Y-122265127D01*
X197753132Y-122308184D01*
X197751594Y-122365699D01*
X197749960Y-122440466D01*
X197748561Y-122503447D01*
X197746894Y-122564509D01*
X197745020Y-122610552D01*
X197742662Y-122644339D01*
X197739546Y-122668638D01*
X197735395Y-122686213D01*
X197729935Y-122699829D01*
X197722890Y-122712252D01*
X197718411Y-122718816D01*
X197692049Y-122747183D01*
X197661384Y-122769889D01*
X197648714Y-122776565D01*
X197634865Y-122782046D01*
X197617912Y-122786051D01*
X197595030Y-122788808D01*
X197563396Y-122790544D01*
X197520186Y-122791486D01*
X197462576Y-122791860D01*
X197387743Y-122791895D01*
X197314213Y-122791764D01*
X197256356Y-122791326D01*
X197212946Y-122790348D01*
X197181156Y-122788594D01*
X197158160Y-122785831D01*
X197141130Y-122781824D01*
X197127239Y-122776338D01*
X197113661Y-122769138D01*
X197081864Y-122745025D01*
X197049903Y-122701474D01*
X197031598Y-122649410D01*
X197028410Y-122593518D01*
X197041798Y-122538484D01*
X197055910Y-122513421D01*
X197087906Y-122478086D01*
X197126802Y-122450636D01*
X197165867Y-122436600D01*
X197226576Y-122425527D01*
X197279427Y-122410912D01*
X197315004Y-122394499D01*
X197322884Y-122388624D01*
X197350728Y-122354717D01*
X197372149Y-122306882D01*
X197384921Y-122249730D01*
X197394248Y-122202668D01*
X197417185Y-122150411D01*
X197453177Y-122111937D01*
X197503816Y-122085710D01*
X197570690Y-122070192D01*
X197607354Y-122062650D01*
X197663537Y-122038752D01*
X197705171Y-122002754D01*
X197731043Y-121955881D01*
X197739937Y-121899361D01*
X197737604Y-121867937D01*
X197720313Y-121815652D01*
X197686757Y-121774545D01*
X197637627Y-121745325D01*
X197573614Y-121728703D01*
X197520848Y-121717848D01*
X197467320Y-121695010D01*
X197428499Y-121660455D01*
X197402386Y-121612254D01*
X197386980Y-121548476D01*
X197376524Y-121498184D01*
X197354422Y-121445436D01*
X197321193Y-121407553D01*
X197274797Y-121382418D01*
X197213197Y-121367912D01*
X197158194Y-121355625D01*
X197101760Y-121328927D01*
X197061108Y-121290152D01*
X197036515Y-121239583D01*
X197028255Y-121177506D01*
X197028624Y-121164714D01*
X197041249Y-121106363D01*
X197071374Y-121057550D01*
X197118361Y-121019392D01*
X197163575Y-120992810D01*
X197389108Y-120992810D01*
X197423464Y-120992830D01*
X197494332Y-120993238D01*
X197549179Y-120994605D01*
X197590861Y-120997497D01*
X197622232Y-121002478D01*
X197646147Y-121010110D01*
X197665462Y-121020960D01*
X197683031Y-121035589D01*
X197701710Y-121054563D01*
X197712776Y-121066911D01*
X197725472Y-121084676D01*
X197734920Y-121105174D01*
X197741593Y-121131288D01*
X197745961Y-121165906D01*
X197748497Y-121211911D01*
X197749673Y-121272189D01*
X197749960Y-121349625D01*
X197750204Y-121418258D01*
X197751150Y-121477974D01*
X197752976Y-121522924D01*
X197755856Y-121555881D01*
X197759964Y-121579622D01*
X197765474Y-121596922D01*
X197782743Y-121630684D01*
X197820331Y-121674181D01*
X197868081Y-121700600D01*
X197925375Y-121709503D01*
X197960539Y-121706348D01*
X198012236Y-121686984D01*
X198054021Y-121650363D01*
X198085275Y-121596922D01*
X198090298Y-121581603D01*
X198094539Y-121558634D01*
X198097535Y-121526727D01*
X198099459Y-121483107D01*
X198100485Y-121424998D01*
X198100789Y-121349625D01*
X198100918Y-121293512D01*
X198101777Y-121228384D01*
X198103855Y-121178395D01*
X198107624Y-121140661D01*
X198113555Y-121112295D01*
X198122120Y-121090414D01*
X198133791Y-121072132D01*
X198149039Y-121054563D01*
X198160227Y-121043039D01*
X198179403Y-121025908D01*
X198199677Y-121013169D01*
X198224208Y-121004087D01*
X198256154Y-120997927D01*
X198298674Y-120993955D01*
X198354925Y-120991434D01*
X198428064Y-120989632D01*
X198507904Y-120988694D01*
X198585356Y-120990086D01*
G37*
G36*
X200645280Y-121017761D02*
G01*
X200672967Y-121037804D01*
X200705739Y-121074152D01*
X200728505Y-121114983D01*
X200737072Y-121154069D01*
X200742143Y-121198799D01*
X200760920Y-121250775D01*
X200790859Y-121294762D01*
X200829112Y-121326798D01*
X200872831Y-121342922D01*
X200878965Y-121343857D01*
X200944190Y-121356172D01*
X200993135Y-121371302D01*
X201029266Y-121391099D01*
X201056052Y-121417421D01*
X201076961Y-121452122D01*
X201079940Y-121458446D01*
X201084629Y-121470059D01*
X201088422Y-121483459D01*
X201091412Y-121500678D01*
X201093695Y-121523742D01*
X201095366Y-121554681D01*
X201096521Y-121595524D01*
X201097253Y-121648299D01*
X201097658Y-121715035D01*
X201097832Y-121797761D01*
X201097869Y-121898505D01*
X201097862Y-121945615D01*
X201097769Y-122038185D01*
X201097493Y-122113613D01*
X201096940Y-122173912D01*
X201096020Y-122221092D01*
X201094640Y-122257167D01*
X201092708Y-122284149D01*
X201090132Y-122304049D01*
X201086821Y-122318880D01*
X201082682Y-122330654D01*
X201077623Y-122341383D01*
X201074380Y-122347355D01*
X201040885Y-122388013D01*
X200995496Y-122419018D01*
X200945008Y-122435546D01*
X200944497Y-122435623D01*
X200907919Y-122441200D01*
X200872631Y-122446642D01*
X200866489Y-122447828D01*
X200826524Y-122464983D01*
X200789210Y-122494913D01*
X200761756Y-122532062D01*
X200754160Y-122551893D01*
X200744986Y-122586902D01*
X200737831Y-122625964D01*
X200734081Y-122648073D01*
X200716909Y-122702209D01*
X200689050Y-122742344D01*
X200648502Y-122771744D01*
X200644242Y-122773917D01*
X200633774Y-122778343D01*
X200620952Y-122781946D01*
X200603812Y-122784816D01*
X200580386Y-122787038D01*
X200548709Y-122788698D01*
X200506815Y-122789884D01*
X200452738Y-122790682D01*
X200384511Y-122791179D01*
X200300169Y-122791462D01*
X200197746Y-122791617D01*
X200099455Y-122791633D01*
X200011033Y-122791395D01*
X199939194Y-122790837D01*
X199882138Y-122789899D01*
X199838068Y-122788527D01*
X199805186Y-122786662D01*
X199781694Y-122784246D01*
X199765793Y-122781224D01*
X199755686Y-122777537D01*
X199731969Y-122761944D01*
X199698927Y-122729635D01*
X199673120Y-122692364D01*
X199659965Y-122656955D01*
X199659904Y-122656561D01*
X199654316Y-122620718D01*
X199648606Y-122584069D01*
X199646953Y-122574884D01*
X199626723Y-122521927D01*
X199590559Y-122480564D01*
X199539310Y-122451516D01*
X199473825Y-122435506D01*
X199460495Y-122433642D01*
X199412418Y-122422464D01*
X199375269Y-122403847D01*
X199341857Y-122374466D01*
X199322239Y-122349978D01*
X199298867Y-122298102D01*
X199294314Y-122241637D01*
X199309024Y-122183167D01*
X199326776Y-122148065D01*
X199355306Y-122115289D01*
X199396951Y-122088825D01*
X199405174Y-122084858D01*
X199419323Y-122079573D01*
X199436586Y-122075739D01*
X199459783Y-122073186D01*
X199491738Y-122071742D01*
X199535270Y-122071235D01*
X199593202Y-122071495D01*
X199668356Y-122072350D01*
X199686652Y-122072588D01*
X199756831Y-122073596D01*
X199810378Y-122074730D01*
X199850082Y-122076281D01*
X199878732Y-122078538D01*
X199899116Y-122081792D01*
X199914023Y-122086331D01*
X199926243Y-122092446D01*
X199938564Y-122100426D01*
X199970117Y-122130266D01*
X199998002Y-122171638D01*
X200017804Y-122216780D01*
X200025335Y-122258083D01*
X200032894Y-122306122D01*
X200056292Y-122352659D01*
X200092030Y-122390251D01*
X200136542Y-122416146D01*
X200186259Y-122427591D01*
X200237614Y-122421835D01*
X200246896Y-122418948D01*
X200291959Y-122399819D01*
X200324047Y-122374015D01*
X200349176Y-122336958D01*
X200354705Y-122326035D01*
X200359472Y-122314009D01*
X200363271Y-122299345D01*
X200366241Y-122279867D01*
X200368519Y-122253400D01*
X200370245Y-122217766D01*
X200371555Y-122170790D01*
X200372588Y-122110296D01*
X200373483Y-122034107D01*
X200374377Y-121940047D01*
X200374525Y-121923422D01*
X200375296Y-121819132D01*
X200375525Y-121732652D01*
X200375089Y-121662031D01*
X200373862Y-121605318D01*
X200371721Y-121560560D01*
X200368541Y-121525807D01*
X200364196Y-121499107D01*
X200358562Y-121478508D01*
X200351515Y-121462059D01*
X200342929Y-121447809D01*
X200319946Y-121417983D01*
X200287731Y-121391359D01*
X200248659Y-121377615D01*
X200196728Y-121373710D01*
X200168866Y-121374178D01*
X200138615Y-121377593D01*
X200115651Y-121386080D01*
X200092349Y-121401682D01*
X200082859Y-121409114D01*
X200058649Y-121431979D01*
X200042803Y-121457057D01*
X200032346Y-121490290D01*
X200024303Y-121537619D01*
X200021939Y-121552285D01*
X200002275Y-121616101D01*
X199969751Y-121666144D01*
X199925255Y-121700948D01*
X199921148Y-121703047D01*
X199907521Y-121708568D01*
X199890452Y-121712714D01*
X199867174Y-121715677D01*
X199834919Y-121717648D01*
X199790921Y-121718819D01*
X199732412Y-121719382D01*
X199656624Y-121719527D01*
X199651437Y-121719526D01*
X199572447Y-121719212D01*
X199511071Y-121718251D01*
X199465017Y-121716517D01*
X199431991Y-121713887D01*
X199409700Y-121710237D01*
X199395852Y-121705443D01*
X199353672Y-121674468D01*
X199319723Y-121629170D01*
X199299484Y-121576164D01*
X199294709Y-121520179D01*
X199307149Y-121465950D01*
X199311378Y-121456823D01*
X199343020Y-121414287D01*
X199388099Y-121380007D01*
X199441526Y-121357106D01*
X199498211Y-121348706D01*
X199504909Y-121348470D01*
X199549047Y-121336386D01*
X199589709Y-121308923D01*
X199623256Y-121270132D01*
X199646052Y-121224061D01*
X199654459Y-121174761D01*
X199654460Y-121174248D01*
X199658499Y-121138616D01*
X199668002Y-121105098D01*
X199684690Y-121077346D01*
X199714738Y-121044355D01*
X199749630Y-121016621D01*
X199782445Y-121000472D01*
X199784581Y-121000046D01*
X199805025Y-120998380D01*
X199842605Y-120996854D01*
X199894984Y-120995511D01*
X199959826Y-120994393D01*
X200034794Y-120993542D01*
X200117551Y-120993000D01*
X200205761Y-120992810D01*
X200601697Y-120992810D01*
X200645280Y-121017761D01*
G37*
G36*
X192908402Y-122066774D02*
G01*
X192907945Y-122142468D01*
X192906927Y-122203393D01*
X192905124Y-122251497D01*
X192902314Y-122288730D01*
X192898273Y-122317040D01*
X192892777Y-122338378D01*
X192885603Y-122354692D01*
X192876528Y-122367931D01*
X192865329Y-122380044D01*
X192851783Y-122392981D01*
X192837141Y-122405620D01*
X192787744Y-122432512D01*
X192730610Y-122441231D01*
X192704719Y-122444051D01*
X192659342Y-122458984D01*
X192617350Y-122483137D01*
X192587062Y-122512386D01*
X192577976Y-122529200D01*
X192565582Y-122565344D01*
X192556880Y-122607328D01*
X192549083Y-122650855D01*
X192534542Y-122695332D01*
X192512711Y-122729537D01*
X192480837Y-122758965D01*
X192444052Y-122787048D01*
X192207681Y-122792060D01*
X192137267Y-122793631D01*
X192078046Y-122795285D01*
X192033444Y-122797179D01*
X192000648Y-122799600D01*
X191976843Y-122802835D01*
X191959212Y-122807172D01*
X191944941Y-122812899D01*
X191931215Y-122820304D01*
X191892302Y-122848026D01*
X191863603Y-122884643D01*
X191844976Y-122934015D01*
X191840152Y-122982312D01*
X191851271Y-123034788D01*
X191877240Y-123081909D01*
X191915528Y-123119231D01*
X191963603Y-123142310D01*
X191966489Y-123142989D01*
X191991544Y-123146109D01*
X192032205Y-123148812D01*
X192084789Y-123150943D01*
X192145613Y-123152343D01*
X192210998Y-123152857D01*
X192262397Y-123152903D01*
X192320194Y-123153222D01*
X192363164Y-123154108D01*
X192394365Y-123155862D01*
X192416857Y-123158783D01*
X192433699Y-123163174D01*
X192447952Y-123169333D01*
X192462673Y-123177561D01*
X192468512Y-123181064D01*
X192506047Y-123210252D01*
X192531023Y-123246346D01*
X192548094Y-123295783D01*
X192550711Y-123308012D01*
X192551351Y-123364836D01*
X192534359Y-123418125D01*
X192501671Y-123463677D01*
X192455227Y-123497286D01*
X192447481Y-123500579D01*
X192435009Y-123504017D01*
X192417669Y-123506755D01*
X192393562Y-123508851D01*
X192360791Y-123510363D01*
X192317460Y-123511349D01*
X192261672Y-123511868D01*
X192191528Y-123511978D01*
X192105133Y-123511736D01*
X192000589Y-123511200D01*
X191578803Y-123508753D01*
X191541995Y-123480670D01*
X191516954Y-123458758D01*
X191492893Y-123426258D01*
X191476803Y-123384847D01*
X191465929Y-123329032D01*
X191461479Y-123304292D01*
X191449548Y-123262738D01*
X191434973Y-123233004D01*
X191421890Y-123217773D01*
X191386560Y-123190366D01*
X191345714Y-123170546D01*
X191307641Y-123162880D01*
X191306764Y-123162877D01*
X191249990Y-123154485D01*
X191198059Y-123131963D01*
X191155780Y-123098172D01*
X191127958Y-123055972D01*
X191125404Y-123046845D01*
X191123120Y-123031242D01*
X191121154Y-123008082D01*
X191119486Y-122976114D01*
X191118093Y-122934091D01*
X191116955Y-122880762D01*
X191116051Y-122814880D01*
X191115359Y-122735196D01*
X191114857Y-122640459D01*
X191114525Y-122529423D01*
X191114342Y-122400837D01*
X191114285Y-122253453D01*
X191114288Y-122199900D01*
X191114324Y-122063994D01*
X191114365Y-122019453D01*
X191837403Y-122019453D01*
X191837723Y-122112008D01*
X191838778Y-122185970D01*
X191840579Y-122241970D01*
X191843140Y-122280636D01*
X191846472Y-122302599D01*
X191850907Y-122316172D01*
X191877281Y-122361388D01*
X191916081Y-122397914D01*
X191961757Y-122420095D01*
X191982638Y-122425553D01*
X192011260Y-122429877D01*
X192037430Y-122426867D01*
X192071547Y-122416152D01*
X192115567Y-122392061D01*
X192153458Y-122351724D01*
X192176744Y-122301091D01*
X192179777Y-122280380D01*
X192182364Y-122238471D01*
X192184156Y-122176591D01*
X192185152Y-122094770D01*
X192185351Y-121993041D01*
X192184754Y-121871435D01*
X192181807Y-121482467D01*
X192156920Y-121446164D01*
X192148712Y-121435077D01*
X192106925Y-121396967D01*
X192057820Y-121374840D01*
X192005280Y-121368696D01*
X191953189Y-121378535D01*
X191905430Y-121404358D01*
X191865889Y-121446164D01*
X191841002Y-121482467D01*
X191838056Y-121871435D01*
X191837805Y-121907676D01*
X191837403Y-122019453D01*
X191114365Y-122019453D01*
X191114432Y-121946260D01*
X191114643Y-121845319D01*
X191114989Y-121759791D01*
X191115501Y-121688296D01*
X191116212Y-121629455D01*
X191117153Y-121581889D01*
X191118356Y-121544218D01*
X191119853Y-121515062D01*
X191121676Y-121493042D01*
X191123857Y-121476778D01*
X191126427Y-121464891D01*
X191129419Y-121456002D01*
X191132864Y-121448731D01*
X191138916Y-121438288D01*
X191177205Y-121396063D01*
X191230833Y-121366267D01*
X191299203Y-121349256D01*
X191345763Y-121340023D01*
X191394572Y-121319619D01*
X191429367Y-121287816D01*
X191452644Y-121242094D01*
X191466895Y-121179937D01*
X191471855Y-121152822D01*
X191492951Y-121091124D01*
X191525985Y-121044599D01*
X191571704Y-121012046D01*
X191573720Y-121011060D01*
X191584640Y-121006404D01*
X191597492Y-121002611D01*
X191614290Y-120999595D01*
X191637045Y-120997267D01*
X191667771Y-120995538D01*
X191708480Y-120994321D01*
X191761185Y-120993528D01*
X191827899Y-120993070D01*
X191910635Y-120992860D01*
X192011405Y-120992810D01*
X192031967Y-120992811D01*
X192129167Y-120992885D01*
X192208714Y-120993135D01*
X192272620Y-120993650D01*
X192322899Y-120994516D01*
X192361563Y-120995823D01*
X192390624Y-120997659D01*
X192412097Y-121000111D01*
X192427993Y-121003267D01*
X192440324Y-121007216D01*
X192451105Y-121012046D01*
X192469673Y-121022620D01*
X192510577Y-121060239D01*
X192539075Y-121112278D01*
X192555914Y-121179937D01*
X192565682Y-121227579D01*
X192586366Y-121277341D01*
X192617919Y-121312530D01*
X192662835Y-121335662D01*
X192723606Y-121349256D01*
X192739200Y-121351758D01*
X192804515Y-121371491D01*
X192854963Y-121403934D01*
X192889945Y-121448731D01*
X192891194Y-121451138D01*
X192895577Y-121461262D01*
X192899157Y-121473853D01*
X192902012Y-121490864D01*
X192904225Y-121514249D01*
X192905875Y-121545960D01*
X192907044Y-121587952D01*
X192907813Y-121642177D01*
X192908262Y-121710589D01*
X192908472Y-121795142D01*
X192908524Y-121897788D01*
X192908522Y-121974362D01*
X192908498Y-121993041D01*
X192908402Y-122066774D01*
G37*
G36*
X186515560Y-120267538D02*
G01*
X186598817Y-120268430D01*
X186663913Y-120270123D01*
X186710223Y-120272605D01*
X186737124Y-120275864D01*
X186761048Y-120282382D01*
X186815551Y-120309914D01*
X186857400Y-120350701D01*
X186884376Y-120402122D01*
X186894262Y-120461555D01*
X186895226Y-120475500D01*
X186909105Y-120523641D01*
X186936090Y-120568727D01*
X186971869Y-120602905D01*
X186986135Y-120610684D01*
X187022122Y-120623516D01*
X187061929Y-120631658D01*
X187083791Y-120634817D01*
X187139471Y-120649536D01*
X187181908Y-120673604D01*
X187215422Y-120709205D01*
X187230298Y-120733061D01*
X187249341Y-120788588D01*
X187249840Y-120845428D01*
X187232079Y-120900006D01*
X187196344Y-120948745D01*
X187184052Y-120959816D01*
X187151030Y-120982567D01*
X187119624Y-120996665D01*
X187100974Y-120999811D01*
X187063013Y-121003021D01*
X187011173Y-121005486D01*
X186948811Y-121007053D01*
X186879282Y-121007569D01*
X186840697Y-121007486D01*
X186779250Y-121006948D01*
X186733099Y-121005707D01*
X186699105Y-121003521D01*
X186674135Y-121000144D01*
X186655049Y-120995332D01*
X186638713Y-120988842D01*
X186604061Y-120969158D01*
X186560232Y-120928146D01*
X186532879Y-120877693D01*
X186523441Y-120819908D01*
X186515322Y-120768866D01*
X186490573Y-120720442D01*
X186452436Y-120681813D01*
X186404200Y-120656242D01*
X186349154Y-120646993D01*
X186348418Y-120646995D01*
X186293261Y-120656247D01*
X186244443Y-120681502D01*
X186206118Y-120719746D01*
X186182438Y-120767966D01*
X186182129Y-120769143D01*
X186179131Y-120791392D01*
X186176551Y-120829602D01*
X186174539Y-120880049D01*
X186173249Y-120939012D01*
X186172832Y-121002767D01*
X186172926Y-121034127D01*
X186173948Y-121106436D01*
X186176553Y-121162704D01*
X186181331Y-121205843D01*
X186188871Y-121238766D01*
X186199759Y-121264389D01*
X186214586Y-121285623D01*
X186233938Y-121305382D01*
X186239276Y-121310134D01*
X186256591Y-121323023D01*
X186276491Y-121332709D01*
X186301883Y-121339638D01*
X186335679Y-121344257D01*
X186380786Y-121347010D01*
X186440116Y-121348345D01*
X186516576Y-121348706D01*
X186523904Y-121348715D01*
X186587856Y-121349350D01*
X186646825Y-121350871D01*
X186697047Y-121353114D01*
X186734753Y-121355917D01*
X186756180Y-121359115D01*
X186772621Y-121364702D01*
X186820206Y-121393358D01*
X186858705Y-121435151D01*
X186884477Y-121485319D01*
X186893877Y-121539100D01*
X186893560Y-121548078D01*
X186881661Y-121598719D01*
X186855371Y-121647057D01*
X186818538Y-121685607D01*
X186780671Y-121714515D01*
X186544301Y-121719725D01*
X186494605Y-121720905D01*
X186420127Y-121723356D01*
X186361691Y-121726782D01*
X186316734Y-121731813D01*
X186282688Y-121739078D01*
X186256987Y-121749206D01*
X186237065Y-121762826D01*
X186220356Y-121780566D01*
X186204295Y-121803056D01*
X186177624Y-121843358D01*
X186177624Y-122081737D01*
X186177709Y-122154203D01*
X186178118Y-122209685D01*
X186179097Y-122251001D01*
X186180893Y-122280972D01*
X186183753Y-122302419D01*
X186187925Y-122318161D01*
X186193654Y-122331019D01*
X186201187Y-122343812D01*
X186203063Y-122346757D01*
X186239114Y-122385735D01*
X186284274Y-122410399D01*
X186334477Y-122420978D01*
X186385653Y-122417696D01*
X186433735Y-122400780D01*
X186474653Y-122370456D01*
X186504341Y-122326951D01*
X186508019Y-122318219D01*
X186518782Y-122283376D01*
X186523221Y-122252965D01*
X186523369Y-122248119D01*
X186531435Y-122205725D01*
X186548831Y-122161869D01*
X186571436Y-122127292D01*
X186574622Y-122124048D01*
X186597409Y-122106296D01*
X186625784Y-122089336D01*
X186629470Y-122087509D01*
X186643695Y-122081740D01*
X186660916Y-122077418D01*
X186683973Y-122074339D01*
X186715710Y-122072300D01*
X186758967Y-122071101D01*
X186816587Y-122070537D01*
X186891412Y-122070407D01*
X186958173Y-122070486D01*
X187016359Y-122070866D01*
X187059873Y-122071788D01*
X187091552Y-122073493D01*
X187114234Y-122076221D01*
X187130758Y-122080214D01*
X187143959Y-122085713D01*
X187156678Y-122092960D01*
X187168823Y-122100933D01*
X187212718Y-122142272D01*
X187241200Y-122191963D01*
X187252767Y-122246478D01*
X187245914Y-122302290D01*
X187239451Y-122320127D01*
X187208734Y-122368768D01*
X187164370Y-122407036D01*
X187110325Y-122432112D01*
X187050565Y-122441175D01*
X187040683Y-122442192D01*
X187010506Y-122451086D01*
X186978856Y-122466149D01*
X186963284Y-122476786D01*
X186927683Y-122514738D01*
X186903337Y-122561490D01*
X186894317Y-122610109D01*
X186887485Y-122656023D01*
X186865261Y-122706391D01*
X186831218Y-122749051D01*
X186789068Y-122778076D01*
X186783425Y-122780092D01*
X186768128Y-122783159D01*
X186744656Y-122785595D01*
X186711316Y-122787442D01*
X186666409Y-122788743D01*
X186608241Y-122789540D01*
X186535116Y-122789875D01*
X186445338Y-122789790D01*
X186337211Y-122789328D01*
X185915425Y-122787048D01*
X185878617Y-122758965D01*
X185876679Y-122757472D01*
X185839475Y-122720082D01*
X185816312Y-122674713D01*
X185804592Y-122616359D01*
X185802049Y-122599150D01*
X185791610Y-122558541D01*
X185777663Y-122524972D01*
X185762473Y-122503603D01*
X185727428Y-122472247D01*
X185686330Y-122449966D01*
X185646369Y-122441340D01*
X185611760Y-122438195D01*
X185556642Y-122421933D01*
X185511001Y-122394546D01*
X185501825Y-122386687D01*
X185485620Y-122371038D01*
X185473273Y-122354409D01*
X185464260Y-122334076D01*
X185458059Y-122307316D01*
X185454146Y-122271406D01*
X185451998Y-122223620D01*
X185451093Y-122161236D01*
X185450907Y-122081529D01*
X185450910Y-122076113D01*
X185451453Y-121999124D01*
X185452888Y-121933022D01*
X185455120Y-121880095D01*
X185458055Y-121842632D01*
X185461599Y-121822922D01*
X185475594Y-121794489D01*
X185512189Y-121754199D01*
X185564461Y-121725886D01*
X185632793Y-121709297D01*
X185669073Y-121701833D01*
X185725172Y-121677981D01*
X185766845Y-121642052D01*
X185792798Y-121595350D01*
X185801736Y-121539178D01*
X185799247Y-121505575D01*
X185782037Y-121453308D01*
X185748678Y-121412766D01*
X185699426Y-121384213D01*
X185634538Y-121367910D01*
X185619379Y-121365474D01*
X185554687Y-121345773D01*
X185504400Y-121313294D01*
X185469486Y-121268617D01*
X185467134Y-121263990D01*
X185461696Y-121250340D01*
X185457613Y-121233150D01*
X185454696Y-121209670D01*
X185452755Y-121177148D01*
X185451603Y-121132834D01*
X185451050Y-121073975D01*
X185450907Y-120997822D01*
X185450924Y-120967929D01*
X185451194Y-120898389D01*
X185451943Y-120845142D01*
X185453360Y-120805438D01*
X185455635Y-120776526D01*
X185458955Y-120755654D01*
X185463509Y-120740071D01*
X185469486Y-120727026D01*
X185475427Y-120716769D01*
X185513615Y-120674578D01*
X185566974Y-120644706D01*
X185634538Y-120627733D01*
X185683766Y-120617378D01*
X185733457Y-120594652D01*
X185769222Y-120559580D01*
X185792884Y-120510220D01*
X185806264Y-120444628D01*
X185808344Y-120430722D01*
X185827737Y-120372098D01*
X185861764Y-120324247D01*
X185908326Y-120290341D01*
X185915171Y-120287150D01*
X185927442Y-120282693D01*
X185942872Y-120279089D01*
X185963572Y-120276221D01*
X185991653Y-120273974D01*
X186029226Y-120272234D01*
X186078402Y-120270885D01*
X186141292Y-120269811D01*
X186220007Y-120268897D01*
X186316659Y-120268028D01*
X186414766Y-120267457D01*
X186515560Y-120267538D01*
G37*
G36*
X90463481Y-120058014D02*
G01*
X90518440Y-120058419D01*
X90559350Y-120059425D01*
X90589146Y-120061304D01*
X90610767Y-120064329D01*
X90627148Y-120068771D01*
X90641227Y-120074903D01*
X90655942Y-120082998D01*
X90699404Y-120117300D01*
X90729956Y-120162124D01*
X90745935Y-120212706D01*
X90747717Y-120265431D01*
X90735676Y-120316687D01*
X90710189Y-120362860D01*
X90671629Y-120400335D01*
X90620374Y-120425499D01*
X90616708Y-120426324D01*
X90592882Y-120428716D01*
X90553421Y-120430612D01*
X90501761Y-120431914D01*
X90441337Y-120432527D01*
X90375585Y-120432354D01*
X90309430Y-120431625D01*
X90251612Y-120430489D01*
X90208295Y-120428776D01*
X90176503Y-120426241D01*
X90153256Y-120422638D01*
X90135576Y-120417719D01*
X90120485Y-120411239D01*
X90118396Y-120410182D01*
X90075197Y-120377460D01*
X90044590Y-120333015D01*
X90027447Y-120281330D01*
X90024635Y-120226890D01*
X90037025Y-120174179D01*
X90065487Y-120127679D01*
X90075841Y-120116035D01*
X90094139Y-120097331D01*
X90112554Y-120083143D01*
X90133947Y-120072846D01*
X90161177Y-120065818D01*
X90197102Y-120061436D01*
X90244584Y-120059077D01*
X90306481Y-120058118D01*
X90385652Y-120057937D01*
X90391533Y-120057937D01*
X90463481Y-120058014D01*
G37*
G36*
X103340006Y-122227487D02*
G01*
X103409826Y-122227945D01*
X103463764Y-122229421D01*
X103504653Y-122232505D01*
X103535328Y-122237782D01*
X103558621Y-122245840D01*
X103577366Y-122257265D01*
X103594398Y-122272645D01*
X103612550Y-122292566D01*
X103631209Y-122316092D01*
X103647490Y-122347936D01*
X103653873Y-122384708D01*
X103652383Y-122433578D01*
X103651996Y-122437734D01*
X103637243Y-122494320D01*
X103606698Y-122540260D01*
X103562045Y-122572953D01*
X103551727Y-122577229D01*
X103534480Y-122581648D01*
X103510477Y-122584905D01*
X103477043Y-122587169D01*
X103431503Y-122588604D01*
X103371182Y-122589377D01*
X103293404Y-122589654D01*
X103219994Y-122589647D01*
X103161767Y-122589306D01*
X103118067Y-122588401D01*
X103086055Y-122586700D01*
X103062890Y-122583974D01*
X103045733Y-122579992D01*
X103031743Y-122574524D01*
X103018081Y-122567340D01*
X103010160Y-122562598D01*
X102969142Y-122525708D01*
X102942329Y-122478892D01*
X102930178Y-122426327D01*
X102933144Y-122372191D01*
X102951685Y-122320663D01*
X102986256Y-122275918D01*
X102986742Y-122275464D01*
X103003955Y-122260679D01*
X103021804Y-122249270D01*
X103043075Y-122240802D01*
X103070551Y-122234845D01*
X103107019Y-122230964D01*
X103155264Y-122228728D01*
X103218070Y-122227703D01*
X103298223Y-122227458D01*
X103340006Y-122227487D01*
G37*
G36*
X90456050Y-120787894D02*
G01*
X90514757Y-120788279D01*
X90558827Y-120789213D01*
X90591116Y-120790932D01*
X90614482Y-120793671D01*
X90631780Y-120797666D01*
X90645869Y-120803152D01*
X90659605Y-120810366D01*
X90666345Y-120814495D01*
X90698518Y-120841827D01*
X90724078Y-120874481D01*
X90748441Y-120916054D01*
X90745743Y-121700115D01*
X90743044Y-122484176D01*
X90719583Y-122517070D01*
X90716967Y-122520566D01*
X90690072Y-122547826D01*
X90659178Y-122569479D01*
X90653011Y-122572580D01*
X90638935Y-122578149D01*
X90621561Y-122582321D01*
X90598084Y-122585303D01*
X90565699Y-122587299D01*
X90521597Y-122588517D01*
X90462974Y-122589162D01*
X90387023Y-122589438D01*
X90313064Y-122589498D01*
X90254983Y-122589210D01*
X90211406Y-122588342D01*
X90179494Y-122586668D01*
X90156407Y-122583958D01*
X90139305Y-122579985D01*
X90125349Y-122574522D01*
X90111700Y-122567340D01*
X90104650Y-122563003D01*
X90072696Y-122535790D01*
X90047408Y-122503534D01*
X90023227Y-122462272D01*
X90023227Y-121696174D01*
X90023308Y-121565485D01*
X90023656Y-121414268D01*
X90024279Y-121282886D01*
X90025181Y-121171172D01*
X90026362Y-121078957D01*
X90027826Y-121006074D01*
X90029575Y-120952355D01*
X90031610Y-120917631D01*
X90033935Y-120901736D01*
X90034957Y-120899190D01*
X90050533Y-120871692D01*
X90071687Y-120844811D01*
X90080493Y-120835645D01*
X90096925Y-120820322D01*
X90114020Y-120808677D01*
X90134561Y-120800205D01*
X90161329Y-120794404D01*
X90197105Y-120790769D01*
X90244671Y-120788796D01*
X90306809Y-120787982D01*
X90386299Y-120787822D01*
X90456050Y-120787894D01*
G37*
G36*
X91473695Y-120782823D02*
G01*
X91538005Y-120783371D01*
X91595814Y-120784502D01*
X91643714Y-120786110D01*
X91678296Y-120788090D01*
X91696153Y-120790336D01*
X91705210Y-120793443D01*
X91741724Y-120814734D01*
X91776418Y-120846261D01*
X91801683Y-120881453D01*
X91809283Y-120900867D01*
X91818734Y-120936796D01*
X91825557Y-120976237D01*
X91831833Y-121009791D01*
X91854610Y-121065122D01*
X91890314Y-121106060D01*
X91937760Y-121131460D01*
X91995761Y-121140181D01*
X92001695Y-121140092D01*
X92059043Y-121129234D01*
X92107509Y-121101905D01*
X92144890Y-121060470D01*
X92168984Y-121007296D01*
X92177590Y-120944751D01*
X92182584Y-120915925D01*
X92201812Y-120875362D01*
X92231347Y-120837824D01*
X92266755Y-120810009D01*
X92277691Y-120804301D01*
X92333379Y-120787102D01*
X92389467Y-120787081D01*
X92441977Y-120803153D01*
X92486929Y-120834231D01*
X92520346Y-120879230D01*
X92523771Y-120886322D01*
X92527011Y-120894756D01*
X92529790Y-120905317D01*
X92532135Y-120919391D01*
X92534077Y-120938362D01*
X92535644Y-120963615D01*
X92536866Y-120996537D01*
X92537773Y-121038512D01*
X92538393Y-121090925D01*
X92538756Y-121155161D01*
X92538891Y-121232607D01*
X92538827Y-121324646D01*
X92538594Y-121432664D01*
X92538220Y-121558046D01*
X92537736Y-121702178D01*
X92535038Y-122485751D01*
X92508061Y-122521116D01*
X92502999Y-122527355D01*
X92475726Y-122553847D01*
X92447657Y-122572953D01*
X92437340Y-122577229D01*
X92420092Y-122581648D01*
X92396089Y-122584905D01*
X92362655Y-122587169D01*
X92317116Y-122588604D01*
X92256795Y-122589377D01*
X92179017Y-122589654D01*
X92107879Y-122589648D01*
X92049058Y-122589316D01*
X92004871Y-122588424D01*
X91972482Y-122586745D01*
X91949054Y-122584052D01*
X91931752Y-122580118D01*
X91917741Y-122574715D01*
X91904183Y-122567615D01*
X91896892Y-122563158D01*
X91866088Y-122537974D01*
X91842408Y-122509728D01*
X91841010Y-122507469D01*
X91836599Y-122499760D01*
X91832842Y-122491072D01*
X91829673Y-122479809D01*
X91827021Y-122464373D01*
X91824820Y-122443170D01*
X91823001Y-122414603D01*
X91821495Y-122377075D01*
X91820235Y-122328990D01*
X91819151Y-122268753D01*
X91818176Y-122194766D01*
X91817242Y-122105434D01*
X91816279Y-121999161D01*
X91815220Y-121874349D01*
X91810187Y-121274590D01*
X91785191Y-121238124D01*
X91776171Y-121226059D01*
X91734575Y-121188834D01*
X91685555Y-121166956D01*
X91633133Y-121160482D01*
X91581333Y-121169467D01*
X91534179Y-121193969D01*
X91495695Y-121234045D01*
X91487209Y-121249450D01*
X91473541Y-121287897D01*
X91464054Y-121333153D01*
X91461572Y-121349916D01*
X91453389Y-121391046D01*
X91442082Y-121420607D01*
X91424532Y-121445064D01*
X91397624Y-121470878D01*
X91375312Y-121488675D01*
X91343241Y-121505428D01*
X91306419Y-121512074D01*
X91257610Y-121510669D01*
X91254516Y-121510393D01*
X91197727Y-121496571D01*
X91153105Y-121466830D01*
X91119847Y-121420647D01*
X91113850Y-121407915D01*
X91108894Y-121393449D01*
X91105330Y-121375493D01*
X91102989Y-121351272D01*
X91101701Y-121318015D01*
X91101296Y-121272946D01*
X91101604Y-121213293D01*
X91102457Y-121136283D01*
X91105470Y-120891912D01*
X91132587Y-120856385D01*
X91134027Y-120854506D01*
X91152429Y-120832441D01*
X91171358Y-120815407D01*
X91193614Y-120802758D01*
X91221996Y-120793853D01*
X91259304Y-120788047D01*
X91308340Y-120784697D01*
X91371904Y-120783158D01*
X91452795Y-120782789D01*
X91473695Y-120782823D01*
G37*
G36*
X99539622Y-120057938D02*
G01*
X99637926Y-120058004D01*
X99718372Y-120058245D01*
X99782995Y-120058750D01*
X99833832Y-120059609D01*
X99872921Y-120060913D01*
X99902297Y-120062752D01*
X99923999Y-120065216D01*
X99940061Y-120068394D01*
X99952522Y-120072378D01*
X99963418Y-120077258D01*
X99982066Y-120087877D01*
X100023149Y-120125661D01*
X100051770Y-120177927D01*
X100068684Y-120245880D01*
X100078494Y-120293730D01*
X100099268Y-120343709D01*
X100130959Y-120379051D01*
X100176070Y-120402284D01*
X100237107Y-120415938D01*
X100252562Y-120418412D01*
X100318277Y-120438226D01*
X100369032Y-120470863D01*
X100404290Y-120516003D01*
X100405112Y-120517576D01*
X100408147Y-120524338D01*
X100410812Y-120532806D01*
X100413128Y-120544209D01*
X100415114Y-120559774D01*
X100416790Y-120580732D01*
X100418176Y-120608310D01*
X100419292Y-120643737D01*
X100420158Y-120688241D01*
X100420792Y-120743051D01*
X100421215Y-120809396D01*
X100421448Y-120888505D01*
X100421508Y-120981605D01*
X100421418Y-121089925D01*
X100421195Y-121214694D01*
X100420860Y-121357141D01*
X100420433Y-121518494D01*
X100417797Y-122485749D01*
X100390820Y-122521114D01*
X100385757Y-122527355D01*
X100358485Y-122553847D01*
X100330416Y-122572953D01*
X100320098Y-122577229D01*
X100302851Y-122581648D01*
X100278848Y-122584905D01*
X100245414Y-122587169D01*
X100199874Y-122588604D01*
X100139553Y-122589377D01*
X100061775Y-122589654D01*
X99988365Y-122589647D01*
X99930138Y-122589306D01*
X99886438Y-122588401D01*
X99854426Y-122586700D01*
X99831261Y-122583974D01*
X99814104Y-122579992D01*
X99800114Y-122574524D01*
X99786452Y-122567340D01*
X99779402Y-122563003D01*
X99747448Y-122535790D01*
X99722160Y-122503534D01*
X99697979Y-122462272D01*
X99697979Y-121889250D01*
X99697976Y-121872666D01*
X99697755Y-121751812D01*
X99697202Y-121641704D01*
X99696337Y-121543682D01*
X99695184Y-121459088D01*
X99693762Y-121389263D01*
X99692095Y-121335549D01*
X99690203Y-121299286D01*
X99688110Y-121281815D01*
X99683898Y-121269624D01*
X99659249Y-121228451D01*
X99623452Y-121193560D01*
X99581883Y-121169360D01*
X99539918Y-121160259D01*
X99511586Y-121157965D01*
X99457385Y-121142029D01*
X99408246Y-121113661D01*
X99369135Y-121076113D01*
X99345014Y-121032635D01*
X99340679Y-121016744D01*
X99336755Y-120962301D01*
X99347067Y-120908399D01*
X99370437Y-120862895D01*
X99371767Y-120861162D01*
X99410931Y-120821042D01*
X99456851Y-120796002D01*
X99515201Y-120782908D01*
X99536734Y-120779275D01*
X99577589Y-120768247D01*
X99610387Y-120754565D01*
X99640042Y-120733392D01*
X99673166Y-120691872D01*
X99691233Y-120642840D01*
X99693628Y-120590474D01*
X99679737Y-120538953D01*
X99648945Y-120492453D01*
X99631677Y-120474736D01*
X99614552Y-120460826D01*
X99595076Y-120450652D01*
X99570286Y-120443629D01*
X99537217Y-120439176D01*
X99492907Y-120436709D01*
X99434391Y-120435648D01*
X99358705Y-120435408D01*
X99345896Y-120435385D01*
X99281034Y-120434691D01*
X99221498Y-120433144D01*
X99170991Y-120430901D01*
X99133213Y-120428119D01*
X99111867Y-120424954D01*
X99095354Y-120419342D01*
X99047562Y-120390562D01*
X99008895Y-120348586D01*
X98983011Y-120298200D01*
X98973570Y-120244184D01*
X98976006Y-120218335D01*
X98992660Y-120168694D01*
X99021825Y-120123103D01*
X99059645Y-120086915D01*
X99102263Y-120065485D01*
X99104388Y-120065063D01*
X99124809Y-120063422D01*
X99162444Y-120061920D01*
X99214950Y-120060597D01*
X99279984Y-120059496D01*
X99355204Y-120058658D01*
X99438268Y-120058124D01*
X99526834Y-120057937D01*
X99539622Y-120057938D01*
G37*
G36*
X97264354Y-120066093D02*
G01*
X97299853Y-120076991D01*
X97333293Y-120100226D01*
X97369835Y-120144305D01*
X97393855Y-120198455D01*
X97402560Y-120257763D01*
X97405039Y-120284674D01*
X97423460Y-120332361D01*
X97458282Y-120371353D01*
X97507638Y-120399882D01*
X97569664Y-120416180D01*
X97576356Y-120417176D01*
X97640386Y-120433294D01*
X97689641Y-120460076D01*
X97727109Y-120499095D01*
X97734154Y-120509795D01*
X97739839Y-120521862D01*
X97744152Y-120537621D01*
X97747380Y-120559811D01*
X97749811Y-120591172D01*
X97751729Y-120634446D01*
X97753421Y-120692371D01*
X97755174Y-120767688D01*
X97755234Y-120770409D01*
X97757126Y-120847211D01*
X97759126Y-120906743D01*
X97761475Y-120951784D01*
X97764419Y-120985111D01*
X97768199Y-121009503D01*
X97773059Y-121027737D01*
X97779242Y-121042592D01*
X97788262Y-121059041D01*
X97822487Y-121098959D01*
X97869250Y-121125704D01*
X97931032Y-121140882D01*
X97964757Y-121146814D01*
X98000611Y-121155609D01*
X98024857Y-121164434D01*
X98055704Y-121185452D01*
X98093262Y-121228526D01*
X98118339Y-121280837D01*
X98127468Y-121336572D01*
X98127919Y-121346902D01*
X98140366Y-121395144D01*
X98166673Y-121439477D01*
X98202542Y-121472138D01*
X98219963Y-121480875D01*
X98257431Y-121493805D01*
X98297148Y-121502399D01*
X98351070Y-121513594D01*
X98398955Y-121534088D01*
X98435782Y-121564571D01*
X98440986Y-121570377D01*
X98454619Y-121587076D01*
X98465122Y-121604278D01*
X98472981Y-121624788D01*
X98478681Y-121651410D01*
X98482710Y-121686947D01*
X98485553Y-121734205D01*
X98487697Y-121795988D01*
X98489629Y-121875099D01*
X98491208Y-121942428D01*
X98492939Y-122002522D01*
X98494878Y-122047734D01*
X98497311Y-122080858D01*
X98500526Y-122104689D01*
X98504811Y-122122021D01*
X98510452Y-122135648D01*
X98517737Y-122148364D01*
X98523970Y-122157578D01*
X98558137Y-122190261D01*
X98606345Y-122213143D01*
X98670941Y-122227434D01*
X98709319Y-122233951D01*
X98741833Y-122243957D01*
X98767583Y-122259682D01*
X98793791Y-122284479D01*
X98823187Y-122326374D01*
X98840222Y-122378781D01*
X98841504Y-122433371D01*
X98827597Y-122485862D01*
X98799065Y-122531974D01*
X98756474Y-122567424D01*
X98748527Y-122571674D01*
X98699067Y-122586866D01*
X98644078Y-122589128D01*
X98590847Y-122578843D01*
X98546659Y-122556394D01*
X98545157Y-122555240D01*
X98507758Y-122517753D01*
X98484435Y-122472128D01*
X98472627Y-122413416D01*
X98470062Y-122396047D01*
X98459653Y-122355513D01*
X98445786Y-122322181D01*
X98430054Y-122300514D01*
X98391478Y-122268278D01*
X98344574Y-122245903D01*
X98296629Y-122237525D01*
X98291494Y-122237423D01*
X98240097Y-122226407D01*
X98191014Y-122199600D01*
X98150703Y-122160414D01*
X98122434Y-122123386D01*
X98117400Y-121880184D01*
X98116568Y-121840240D01*
X98115038Y-121773062D01*
X98113457Y-121721892D01*
X98111516Y-121683971D01*
X98108906Y-121656540D01*
X98105317Y-121636840D01*
X98100439Y-121622112D01*
X98093963Y-121609597D01*
X98085580Y-121596536D01*
X98076770Y-121584256D01*
X98042126Y-121551386D01*
X97996555Y-121529676D01*
X97936066Y-121517003D01*
X97914867Y-121513669D01*
X97880115Y-121505766D01*
X97855648Y-121497160D01*
X97822556Y-121473899D01*
X97787539Y-121431744D01*
X97763748Y-121381293D01*
X97754975Y-121328884D01*
X97754938Y-121325841D01*
X97745161Y-121277772D01*
X97720776Y-121232989D01*
X97685678Y-121195700D01*
X97643764Y-121170110D01*
X97598930Y-121160425D01*
X97551759Y-121155709D01*
X97493421Y-121135608D01*
X97446041Y-121101313D01*
X97412655Y-121054549D01*
X97412043Y-121053277D01*
X97405424Y-121037629D01*
X97400485Y-121020210D01*
X97396985Y-120997958D01*
X97394683Y-120967813D01*
X97393336Y-120926716D01*
X97392706Y-120871605D01*
X97392549Y-120799422D01*
X97392280Y-120726586D01*
X97391310Y-120667072D01*
X97389466Y-120622280D01*
X97386575Y-120589439D01*
X97382467Y-120565781D01*
X97376967Y-120548536D01*
X97360866Y-120516930D01*
X97323814Y-120472842D01*
X97277607Y-120445074D01*
X97224420Y-120435243D01*
X97217721Y-120434963D01*
X97181313Y-120428549D01*
X97145898Y-120416378D01*
X97113979Y-120398321D01*
X97070957Y-120358816D01*
X97043045Y-120311524D01*
X97030360Y-120259824D01*
X97033017Y-120207091D01*
X97051133Y-120156701D01*
X97084823Y-120112030D01*
X97134205Y-120076454D01*
X97137415Y-120074886D01*
X97174027Y-120065011D01*
X97219376Y-120062090D01*
X97264354Y-120066093D01*
G37*
G36*
X112011610Y-120063069D02*
G01*
X112085423Y-120063958D01*
X112143191Y-120066309D01*
X112187487Y-120070766D01*
X112220887Y-120077971D01*
X112245964Y-120088565D01*
X112265292Y-120103192D01*
X112281445Y-120122493D01*
X112296998Y-120147111D01*
X112322727Y-120191015D01*
X112320084Y-121338381D01*
X112317440Y-122485747D01*
X112290463Y-122521114D01*
X112285400Y-122527355D01*
X112258128Y-122553847D01*
X112230059Y-122572953D01*
X112219742Y-122577229D01*
X112202494Y-122581648D01*
X112178491Y-122584905D01*
X112145057Y-122587169D01*
X112099517Y-122588604D01*
X112039196Y-122589377D01*
X111961419Y-122589654D01*
X111890281Y-122589648D01*
X111831460Y-122589316D01*
X111787273Y-122588424D01*
X111754884Y-122586745D01*
X111731456Y-122584052D01*
X111714154Y-122580118D01*
X111700143Y-122574715D01*
X111686585Y-122567615D01*
X111679294Y-122563158D01*
X111648490Y-122537974D01*
X111624810Y-122509728D01*
X111623412Y-122507469D01*
X111619001Y-122499760D01*
X111615244Y-122491072D01*
X111612075Y-122479809D01*
X111609423Y-122464373D01*
X111607222Y-122443170D01*
X111605403Y-122414603D01*
X111603897Y-122377075D01*
X111602637Y-122328990D01*
X111601553Y-122268753D01*
X111600578Y-122194766D01*
X111599644Y-122105434D01*
X111598681Y-121999161D01*
X111597622Y-121874349D01*
X111592589Y-121274590D01*
X111567593Y-121238124D01*
X111559337Y-121226973D01*
X111517369Y-121188701D01*
X111468050Y-121166481D01*
X111415283Y-121160313D01*
X111362967Y-121170198D01*
X111315003Y-121196135D01*
X111275293Y-121238124D01*
X111250298Y-121274590D01*
X111245264Y-121874349D01*
X111244946Y-121912193D01*
X111243922Y-122031516D01*
X111242974Y-122132759D01*
X111242035Y-122217520D01*
X111241036Y-122287394D01*
X111239908Y-122343977D01*
X111238585Y-122388865D01*
X111236996Y-122423656D01*
X111235074Y-122449945D01*
X111232750Y-122469328D01*
X111229957Y-122483401D01*
X111226626Y-122493762D01*
X111222688Y-122502005D01*
X111218076Y-122509728D01*
X111213010Y-122517067D01*
X111186371Y-122545357D01*
X111155408Y-122568117D01*
X111151187Y-122570469D01*
X111138165Y-122577034D01*
X111124331Y-122581964D01*
X111106924Y-122585448D01*
X111083184Y-122587678D01*
X111050351Y-122588844D01*
X111005666Y-122589137D01*
X110946369Y-122588749D01*
X110869698Y-122587868D01*
X110624502Y-122584850D01*
X110588975Y-122557733D01*
X110584925Y-122554661D01*
X110571633Y-122544533D01*
X110560302Y-122534711D01*
X110550777Y-122523623D01*
X110542901Y-122509696D01*
X110536517Y-122491359D01*
X110531469Y-122467038D01*
X110527600Y-122435161D01*
X110524755Y-122394156D01*
X110522777Y-122342451D01*
X110521509Y-122278474D01*
X110520794Y-122200651D01*
X110520478Y-122107410D01*
X110520403Y-121997180D01*
X110520413Y-121868387D01*
X110520418Y-121809220D01*
X110520482Y-121693354D01*
X110520659Y-121595287D01*
X110520995Y-121513416D01*
X110521538Y-121446136D01*
X110522337Y-121391843D01*
X110523438Y-121348934D01*
X110524889Y-121315803D01*
X110526739Y-121290848D01*
X110529034Y-121272464D01*
X110531823Y-121259047D01*
X110535153Y-121248993D01*
X110539072Y-121240697D01*
X110545039Y-121230395D01*
X110583394Y-121188021D01*
X110636985Y-121158019D01*
X110704844Y-121140972D01*
X110760042Y-121129082D01*
X110807738Y-121106341D01*
X110841768Y-121071587D01*
X110864233Y-121022577D01*
X110877236Y-120957068D01*
X110879463Y-120942459D01*
X110899100Y-120883793D01*
X110933268Y-120836000D01*
X110979825Y-120802308D01*
X110981123Y-120801678D01*
X110996206Y-120795548D01*
X111014663Y-120790744D01*
X111039288Y-120787018D01*
X111072874Y-120784122D01*
X111118214Y-120781811D01*
X111178102Y-120779838D01*
X111255331Y-120777954D01*
X111318724Y-120776475D01*
X111385743Y-120774346D01*
X111437295Y-120771379D01*
X111476022Y-120766909D01*
X111504567Y-120760269D01*
X111525570Y-120750793D01*
X111541676Y-120737816D01*
X111555525Y-120720670D01*
X111569760Y-120698691D01*
X111576949Y-120686184D01*
X111582554Y-120672778D01*
X111586816Y-120655776D01*
X111590010Y-120632422D01*
X111592412Y-120599959D01*
X111594297Y-120555633D01*
X111595942Y-120496686D01*
X111597622Y-120420363D01*
X111598694Y-120370459D01*
X111600508Y-120301959D01*
X111602796Y-120249237D01*
X111606062Y-120209576D01*
X111610807Y-120180257D01*
X111617535Y-120158561D01*
X111626749Y-120141768D01*
X111638951Y-120127161D01*
X111654643Y-120112021D01*
X111661488Y-120105743D01*
X111677893Y-120091999D01*
X111694597Y-120081564D01*
X111714434Y-120073985D01*
X111740237Y-120068806D01*
X111774841Y-120065570D01*
X111821078Y-120063822D01*
X111881782Y-120063108D01*
X111959787Y-120062971D01*
X112011610Y-120063069D01*
G37*
G36*
X95912996Y-120782856D02*
G01*
X95993441Y-120783096D01*
X96058064Y-120783601D01*
X96108902Y-120784460D01*
X96147990Y-120785764D01*
X96177367Y-120787603D01*
X96199068Y-120790067D01*
X96215131Y-120793246D01*
X96227591Y-120797230D01*
X96238487Y-120802109D01*
X96257136Y-120812729D01*
X96298218Y-120850512D01*
X96326840Y-120902778D01*
X96343753Y-120970732D01*
X96353564Y-121018581D01*
X96374338Y-121068561D01*
X96406028Y-121103903D01*
X96451139Y-121127136D01*
X96512176Y-121140789D01*
X96532261Y-121144123D01*
X96596841Y-121164609D01*
X96646334Y-121198116D01*
X96681173Y-121244914D01*
X96687651Y-121259066D01*
X96693038Y-121276316D01*
X96697104Y-121298666D01*
X96700145Y-121329124D01*
X96702453Y-121370696D01*
X96704325Y-121426388D01*
X96706053Y-121499208D01*
X96707073Y-121551261D01*
X96707838Y-121613068D01*
X96707592Y-121659906D01*
X96706188Y-121694845D01*
X96703477Y-121720952D01*
X96699312Y-121741297D01*
X96693545Y-121758949D01*
X96676797Y-121791063D01*
X96648341Y-121826767D01*
X96615708Y-121854857D01*
X96584457Y-121869689D01*
X96580303Y-121870287D01*
X96556970Y-121871895D01*
X96518049Y-121873515D01*
X96466815Y-121875043D01*
X96406543Y-121876375D01*
X96340508Y-121877408D01*
X96270098Y-121878446D01*
X96212116Y-121879816D01*
X96168584Y-121881701D01*
X96136573Y-121884350D01*
X96113153Y-121888010D01*
X96095396Y-121892927D01*
X96080374Y-121899348D01*
X96077029Y-121901076D01*
X96038006Y-121931695D01*
X96006709Y-121974634D01*
X95988455Y-122022751D01*
X95986313Y-122061517D01*
X95998713Y-122111684D01*
X96025396Y-122157449D01*
X96063316Y-122193944D01*
X96109430Y-122216297D01*
X96132378Y-122219871D01*
X96172356Y-122222959D01*
X96225920Y-122225369D01*
X96289779Y-122226955D01*
X96360643Y-122227567D01*
X96396464Y-122227624D01*
X96458924Y-122227953D01*
X96505743Y-122228796D01*
X96539973Y-122230430D01*
X96564664Y-122233133D01*
X96582870Y-122237182D01*
X96597641Y-122242854D01*
X96612029Y-122250428D01*
X96649488Y-122277815D01*
X96683919Y-122321748D01*
X96702542Y-122372077D01*
X96705293Y-122425299D01*
X96692111Y-122477912D01*
X96662932Y-122526413D01*
X96617695Y-122567299D01*
X96583272Y-122590496D01*
X95724808Y-122584850D01*
X95687839Y-122556644D01*
X95662688Y-122534636D01*
X95638522Y-122501995D01*
X95622362Y-122460404D01*
X95611441Y-122404346D01*
X95606972Y-122379497D01*
X95594988Y-122337762D01*
X95580350Y-122307898D01*
X95567210Y-122292601D01*
X95531726Y-122265074D01*
X95490702Y-122245169D01*
X95452463Y-122237469D01*
X95417398Y-122234133D01*
X95363522Y-122217709D01*
X95318620Y-122190636D01*
X95307176Y-122180779D01*
X95291573Y-122165301D01*
X95279695Y-122148533D01*
X95271035Y-122127781D01*
X95265086Y-122100355D01*
X95261341Y-122063562D01*
X95259294Y-122014711D01*
X95258437Y-121951109D01*
X95258264Y-121870066D01*
X95258290Y-121832530D01*
X95258695Y-121760034D01*
X95259945Y-121703783D01*
X95262489Y-121661072D01*
X95266775Y-121629196D01*
X95273251Y-121605449D01*
X95282365Y-121587128D01*
X95294565Y-121571527D01*
X95310299Y-121555941D01*
X95321575Y-121545907D01*
X95341573Y-121531413D01*
X95364257Y-121520523D01*
X95392536Y-121512737D01*
X95429313Y-121507554D01*
X95477498Y-121504471D01*
X95539995Y-121502989D01*
X95619711Y-121502606D01*
X95687192Y-121502151D01*
X95750630Y-121500732D01*
X95802289Y-121498471D01*
X95839385Y-121495493D01*
X95859135Y-121491922D01*
X95865640Y-121489312D01*
X95911262Y-121460242D01*
X95944406Y-121419640D01*
X95963975Y-121371631D01*
X95968872Y-121320342D01*
X95958000Y-121269898D01*
X95930262Y-121224425D01*
X95928166Y-121222043D01*
X95909827Y-121202330D01*
X95892158Y-121187329D01*
X95872186Y-121176397D01*
X95846940Y-121168891D01*
X95813448Y-121164167D01*
X95768737Y-121161583D01*
X95709837Y-121160494D01*
X95633774Y-121160259D01*
X95620965Y-121160237D01*
X95556103Y-121159543D01*
X95496568Y-121157996D01*
X95446060Y-121155752D01*
X95408282Y-121152970D01*
X95386936Y-121149805D01*
X95370424Y-121144194D01*
X95322631Y-121115413D01*
X95283964Y-121073438D01*
X95258080Y-121023051D01*
X95248639Y-120969035D01*
X95251075Y-120943186D01*
X95267729Y-120893546D01*
X95296894Y-120847954D01*
X95334714Y-120811766D01*
X95377332Y-120790336D01*
X95379457Y-120789914D01*
X95399879Y-120788273D01*
X95437514Y-120786771D01*
X95490019Y-120785448D01*
X95555053Y-120784347D01*
X95630273Y-120783509D01*
X95713337Y-120782976D01*
X95801903Y-120782789D01*
X95814691Y-120782789D01*
X95912996Y-120782856D01*
G37*
G36*
X110259807Y-122102392D02*
G01*
X110249947Y-122127887D01*
X110219131Y-122170601D01*
X110175881Y-122205446D01*
X110125075Y-122228922D01*
X110071591Y-122237525D01*
X110036784Y-122241537D01*
X109989083Y-122262359D01*
X109950136Y-122299063D01*
X109921958Y-122349524D01*
X109906561Y-122411619D01*
X109901770Y-122443126D01*
X109894870Y-122475411D01*
X109888198Y-122495248D01*
X109881013Y-122506100D01*
X109857478Y-122532485D01*
X109828157Y-122558886D01*
X109800595Y-122578162D01*
X109799063Y-122578867D01*
X109778393Y-122582921D01*
X109741718Y-122586073D01*
X109692596Y-122588339D01*
X109634589Y-122589730D01*
X109571257Y-122590261D01*
X109506161Y-122589945D01*
X109442859Y-122588797D01*
X109384914Y-122586830D01*
X109335884Y-122584057D01*
X109299331Y-122580493D01*
X109278815Y-122576151D01*
X109236160Y-122548094D01*
X109202169Y-122505282D01*
X109179659Y-122452278D01*
X109171274Y-122393570D01*
X109168042Y-122370207D01*
X109150472Y-122328251D01*
X109121516Y-122289199D01*
X109085606Y-122259966D01*
X109050219Y-122245172D01*
X108996271Y-122238486D01*
X108942481Y-122247305D01*
X108895650Y-122271225D01*
X108880799Y-122283148D01*
X108859055Y-122305503D01*
X108843904Y-122331722D01*
X108832645Y-122367209D01*
X108822573Y-122417369D01*
X108809769Y-122469582D01*
X108783933Y-122523413D01*
X108747128Y-122560874D01*
X108698495Y-122582764D01*
X108637176Y-122589883D01*
X108620612Y-122589209D01*
X108563310Y-122575492D01*
X108514996Y-122545578D01*
X108479143Y-122501410D01*
X108456600Y-122461300D01*
X108456600Y-122066008D01*
X109187372Y-122066008D01*
X109198637Y-122115776D01*
X109224629Y-122160560D01*
X109265479Y-122196301D01*
X109313568Y-122217054D01*
X109366640Y-122222589D01*
X109417718Y-122212481D01*
X109463387Y-122188560D01*
X109500235Y-122152661D01*
X109524847Y-122106616D01*
X109533809Y-122052257D01*
X109530301Y-122016601D01*
X109511348Y-121966273D01*
X109478738Y-121926143D01*
X109435634Y-121898021D01*
X109385194Y-121883720D01*
X109330578Y-121885051D01*
X109274948Y-121903827D01*
X109240623Y-121927398D01*
X109208496Y-121967759D01*
X109190702Y-122015316D01*
X109187372Y-122066008D01*
X108456600Y-122066008D01*
X108456600Y-121274999D01*
X108485444Y-121229516D01*
X108504615Y-121203781D01*
X108540649Y-121173518D01*
X108588005Y-121152917D01*
X108650742Y-121139776D01*
X108694476Y-121130630D01*
X108740632Y-121109735D01*
X108774456Y-121076750D01*
X108798212Y-121029253D01*
X108814160Y-120964821D01*
X108824597Y-120918189D01*
X108845402Y-120867030D01*
X108875357Y-120829383D01*
X108916614Y-120801823D01*
X108917187Y-120801540D01*
X108928050Y-120796779D01*
X108940754Y-120792896D01*
X108957333Y-120789803D01*
X108979819Y-120787409D01*
X109010244Y-120785628D01*
X109050640Y-120784369D01*
X109103041Y-120783545D01*
X109169479Y-120783065D01*
X109251987Y-120782843D01*
X109352597Y-120782789D01*
X109374885Y-120782800D01*
X109462308Y-120783077D01*
X109543650Y-120783690D01*
X109616569Y-120784597D01*
X109678723Y-120785757D01*
X109727768Y-120787128D01*
X109761364Y-120788668D01*
X109777167Y-120790336D01*
X109811714Y-120805396D01*
X109851832Y-120839268D01*
X109882058Y-120884432D01*
X109900325Y-120936370D01*
X109904562Y-120990566D01*
X109892701Y-121042504D01*
X109881801Y-121062557D01*
X109850204Y-121099382D01*
X109809920Y-121130475D01*
X109768151Y-121149643D01*
X109766487Y-121150061D01*
X109742582Y-121153276D01*
X109702791Y-121156069D01*
X109650899Y-121158274D01*
X109590686Y-121159726D01*
X109525935Y-121160259D01*
X109467414Y-121160447D01*
X109402191Y-121161549D01*
X109352142Y-121164151D01*
X109314397Y-121168828D01*
X109286087Y-121176157D01*
X109264342Y-121186713D01*
X109246291Y-121201072D01*
X109229066Y-121219809D01*
X109219648Y-121231943D01*
X109194064Y-121283479D01*
X109186935Y-121338116D01*
X109198277Y-121392174D01*
X109228105Y-121441971D01*
X109238180Y-121453684D01*
X109252207Y-121467773D01*
X109267642Y-121478542D01*
X109287160Y-121486513D01*
X109313435Y-121492205D01*
X109349143Y-121496140D01*
X109396958Y-121498838D01*
X109459556Y-121500820D01*
X109539610Y-121502606D01*
X109579786Y-121503446D01*
X109646739Y-121504975D01*
X109697707Y-121506555D01*
X109735457Y-121508500D01*
X109762757Y-121511124D01*
X109782374Y-121514738D01*
X109797074Y-121519657D01*
X109809625Y-121526194D01*
X109822794Y-121534661D01*
X109837164Y-121545505D01*
X109872940Y-121586445D01*
X109897303Y-121636152D01*
X109906302Y-121687399D01*
X109906595Y-121695044D01*
X109916395Y-121738963D01*
X109936837Y-121782904D01*
X109963487Y-121816828D01*
X109965618Y-121818699D01*
X110002766Y-121841818D01*
X110048614Y-121858573D01*
X110092627Y-121865032D01*
X110098422Y-121865142D01*
X110150345Y-121876311D01*
X110195476Y-121903398D01*
X110231402Y-121942976D01*
X110255708Y-121991620D01*
X110265981Y-122045900D01*
X110265286Y-122052257D01*
X110259807Y-122102392D01*
G37*
G36*
X102679070Y-122102392D02*
G01*
X102669210Y-122127887D01*
X102638394Y-122170601D01*
X102595144Y-122205446D01*
X102544338Y-122228922D01*
X102490854Y-122237525D01*
X102456047Y-122241537D01*
X102408346Y-122262359D01*
X102369399Y-122299063D01*
X102341220Y-122349524D01*
X102325824Y-122411619D01*
X102321033Y-122443126D01*
X102314133Y-122475411D01*
X102307460Y-122495248D01*
X102300276Y-122506100D01*
X102276741Y-122532485D01*
X102247420Y-122558886D01*
X102219858Y-122578162D01*
X102218326Y-122578867D01*
X102197656Y-122582921D01*
X102160980Y-122586073D01*
X102111859Y-122588339D01*
X102053852Y-122589730D01*
X101990520Y-122590261D01*
X101925424Y-122589945D01*
X101862122Y-122588797D01*
X101804177Y-122586830D01*
X101755147Y-122584057D01*
X101718594Y-122580493D01*
X101698077Y-122576151D01*
X101655423Y-122548094D01*
X101621432Y-122505282D01*
X101598922Y-122452278D01*
X101590537Y-122393570D01*
X101587305Y-122370207D01*
X101569735Y-122328251D01*
X101540778Y-122289199D01*
X101504869Y-122259966D01*
X101469482Y-122245172D01*
X101415534Y-122238486D01*
X101361743Y-122247305D01*
X101314913Y-122271225D01*
X101300062Y-122283148D01*
X101278318Y-122305503D01*
X101263167Y-122331722D01*
X101251907Y-122367209D01*
X101241835Y-122417369D01*
X101229032Y-122469582D01*
X101203196Y-122523413D01*
X101166391Y-122560874D01*
X101117758Y-122582764D01*
X101056438Y-122589883D01*
X101039875Y-122589209D01*
X100982573Y-122575492D01*
X100934259Y-122545578D01*
X100898406Y-122501410D01*
X100875862Y-122461300D01*
X100875862Y-122066008D01*
X101606635Y-122066008D01*
X101617900Y-122115776D01*
X101643892Y-122160560D01*
X101684742Y-122196301D01*
X101732831Y-122217054D01*
X101785903Y-122222589D01*
X101836980Y-122212481D01*
X101882650Y-122188560D01*
X101919498Y-122152661D01*
X101944110Y-122106616D01*
X101953072Y-122052257D01*
X101949564Y-122016601D01*
X101930610Y-121966273D01*
X101898001Y-121926143D01*
X101854896Y-121898021D01*
X101804457Y-121883720D01*
X101749841Y-121885051D01*
X101694211Y-121903827D01*
X101659886Y-121927398D01*
X101627759Y-121967759D01*
X101609965Y-122015316D01*
X101606635Y-122066008D01*
X100875862Y-122066008D01*
X100875862Y-121274999D01*
X100904707Y-121229516D01*
X100923878Y-121203781D01*
X100959912Y-121173518D01*
X101007268Y-121152917D01*
X101070004Y-121139776D01*
X101113739Y-121130630D01*
X101159894Y-121109735D01*
X101193719Y-121076750D01*
X101217474Y-121029253D01*
X101233423Y-120964821D01*
X101243860Y-120918189D01*
X101264665Y-120867030D01*
X101294619Y-120829383D01*
X101335877Y-120801823D01*
X101336450Y-120801540D01*
X101347313Y-120796779D01*
X101360017Y-120792896D01*
X101376596Y-120789803D01*
X101399082Y-120787409D01*
X101429506Y-120785628D01*
X101469903Y-120784369D01*
X101522304Y-120783545D01*
X101588742Y-120783065D01*
X101671250Y-120782843D01*
X101771859Y-120782789D01*
X101794148Y-120782800D01*
X101881571Y-120783077D01*
X101962913Y-120783690D01*
X102035832Y-120784597D01*
X102097985Y-120785757D01*
X102147031Y-120787128D01*
X102180627Y-120788668D01*
X102196430Y-120790336D01*
X102230977Y-120805396D01*
X102271094Y-120839268D01*
X102301321Y-120884432D01*
X102319588Y-120936370D01*
X102323825Y-120990566D01*
X102311964Y-121042504D01*
X102301064Y-121062557D01*
X102269467Y-121099382D01*
X102229183Y-121130475D01*
X102187414Y-121149643D01*
X102185750Y-121150061D01*
X102161844Y-121153276D01*
X102122054Y-121156069D01*
X102070161Y-121158274D01*
X102009949Y-121159726D01*
X101945198Y-121160259D01*
X101886676Y-121160447D01*
X101821453Y-121161549D01*
X101771405Y-121164151D01*
X101733660Y-121168828D01*
X101705350Y-121176157D01*
X101683605Y-121186713D01*
X101665554Y-121201072D01*
X101648329Y-121219809D01*
X101638911Y-121231943D01*
X101613327Y-121283479D01*
X101606198Y-121338116D01*
X101617540Y-121392174D01*
X101647368Y-121441971D01*
X101657442Y-121453684D01*
X101671470Y-121467773D01*
X101686905Y-121478542D01*
X101706423Y-121486513D01*
X101732698Y-121492205D01*
X101768406Y-121496140D01*
X101816221Y-121498838D01*
X101878818Y-121500820D01*
X101958873Y-121502606D01*
X101999048Y-121503446D01*
X102066001Y-121504975D01*
X102116970Y-121506555D01*
X102154720Y-121508500D01*
X102182020Y-121511124D01*
X102201636Y-121514738D01*
X102216337Y-121519657D01*
X102228888Y-121526194D01*
X102242057Y-121534661D01*
X102256427Y-121545505D01*
X102292203Y-121586445D01*
X102316566Y-121636152D01*
X102325565Y-121687399D01*
X102325858Y-121695044D01*
X102335658Y-121738963D01*
X102356100Y-121782904D01*
X102382750Y-121816828D01*
X102384880Y-121818699D01*
X102422029Y-121841818D01*
X102467877Y-121858573D01*
X102511889Y-121865032D01*
X102517685Y-121865142D01*
X102569608Y-121876311D01*
X102614739Y-121903398D01*
X102650664Y-121942976D01*
X102674970Y-121991620D01*
X102685244Y-122045900D01*
X102684549Y-122052257D01*
X102679070Y-122102392D01*
G37*
G36*
X94792768Y-122243345D02*
G01*
X94790131Y-123210600D01*
X94763154Y-123245966D01*
X94758092Y-123252206D01*
X94730819Y-123278698D01*
X94702750Y-123297804D01*
X94692433Y-123302081D01*
X94675185Y-123306499D01*
X94651182Y-123309757D01*
X94617748Y-123312020D01*
X94572209Y-123313455D01*
X94511888Y-123314228D01*
X94434110Y-123314506D01*
X94362972Y-123314500D01*
X94304151Y-123314167D01*
X94259964Y-123313275D01*
X94227575Y-123311596D01*
X94204147Y-123308904D01*
X94186846Y-123304969D01*
X94172834Y-123299566D01*
X94159276Y-123292467D01*
X94151985Y-123288009D01*
X94121181Y-123262826D01*
X94097501Y-123234579D01*
X94090992Y-123223233D01*
X94085433Y-123209918D01*
X94081188Y-123192910D01*
X94077990Y-123169468D01*
X94075572Y-123136854D01*
X94073665Y-123092328D01*
X94072002Y-123033148D01*
X94070314Y-122956576D01*
X94069507Y-122917998D01*
X94067972Y-122850662D01*
X94066390Y-122799372D01*
X94064450Y-122761363D01*
X94061841Y-122733869D01*
X94058252Y-122714126D01*
X94053372Y-122699368D01*
X94046889Y-122686830D01*
X94038493Y-122673746D01*
X94032958Y-122665556D01*
X94016439Y-122644171D01*
X93998336Y-122627573D01*
X93975998Y-122615101D01*
X93946774Y-122606097D01*
X93908016Y-122599903D01*
X93857074Y-122595858D01*
X93791297Y-122593306D01*
X93708036Y-122591586D01*
X93704299Y-122591525D01*
X93630069Y-122590119D01*
X93572970Y-122588506D01*
X93530125Y-122586434D01*
X93498660Y-122583652D01*
X93475698Y-122579911D01*
X93458363Y-122574959D01*
X93443778Y-122568546D01*
X93431188Y-122561364D01*
X93391691Y-122524894D01*
X93363626Y-122472640D01*
X93346612Y-122403956D01*
X93337738Y-122360412D01*
X93317161Y-122309951D01*
X93285496Y-122274219D01*
X93240224Y-122250710D01*
X93178828Y-122236917D01*
X93163166Y-122234404D01*
X93097566Y-122214585D01*
X93046898Y-122182000D01*
X93011763Y-122137008D01*
X93010698Y-122134963D01*
X93006248Y-122124818D01*
X93002614Y-122112267D01*
X93001043Y-122103091D01*
X93722989Y-122103091D01*
X93747984Y-122139569D01*
X93752040Y-122145132D01*
X93779495Y-122174184D01*
X93809759Y-122196719D01*
X93843864Y-122211096D01*
X93898270Y-122217816D01*
X93952098Y-122207378D01*
X94000942Y-122180874D01*
X94040400Y-122139400D01*
X94065280Y-122103091D01*
X94065280Y-121689591D01*
X94065259Y-121591111D01*
X94065132Y-121506525D01*
X94064801Y-121438206D01*
X94064168Y-121384179D01*
X94063137Y-121342472D01*
X94061609Y-121311112D01*
X94059488Y-121288126D01*
X94056677Y-121271542D01*
X94053078Y-121259387D01*
X94048593Y-121249687D01*
X94043126Y-121240471D01*
X94022984Y-121214399D01*
X93980557Y-121182279D01*
X93930967Y-121164745D01*
X93878421Y-121161797D01*
X93827130Y-121173436D01*
X93781301Y-121199660D01*
X93745143Y-121240471D01*
X93739869Y-121249334D01*
X93735348Y-121258978D01*
X93731716Y-121271002D01*
X93728876Y-121287378D01*
X93726730Y-121310079D01*
X93725181Y-121341078D01*
X93724133Y-121382348D01*
X93723486Y-121435861D01*
X93723145Y-121503591D01*
X93723012Y-121587510D01*
X93722989Y-121689591D01*
X93722989Y-122103091D01*
X93001043Y-122103091D01*
X92999716Y-122095340D01*
X92997469Y-122072067D01*
X92995794Y-122040478D01*
X92994607Y-121998603D01*
X92993826Y-121944473D01*
X92993370Y-121876118D01*
X92993157Y-121791568D01*
X92993104Y-121688853D01*
X92993106Y-121665266D01*
X92993186Y-121566600D01*
X92993445Y-121485678D01*
X92993963Y-121420530D01*
X92994824Y-121369186D01*
X92996108Y-121329676D01*
X92997899Y-121300031D01*
X93000278Y-121278280D01*
X93003327Y-121262454D01*
X93007128Y-121250583D01*
X93011763Y-121240697D01*
X93017842Y-121230209D01*
X93056297Y-121187800D01*
X93110159Y-121157874D01*
X93178828Y-121140789D01*
X93225591Y-121131515D01*
X93274612Y-121111023D01*
X93309559Y-121079081D01*
X93332937Y-121033160D01*
X93347251Y-120970732D01*
X93352232Y-120943499D01*
X93373421Y-120881532D01*
X93406598Y-120834803D01*
X93452517Y-120802109D01*
X93454541Y-120801118D01*
X93465509Y-120796442D01*
X93478418Y-120792633D01*
X93495288Y-120789603D01*
X93518143Y-120787265D01*
X93549002Y-120785529D01*
X93589889Y-120784306D01*
X93642824Y-120783510D01*
X93709828Y-120783050D01*
X93792925Y-120782839D01*
X93894134Y-120782789D01*
X93914786Y-120782790D01*
X94012410Y-120782864D01*
X94092304Y-120783115D01*
X94156489Y-120783632D01*
X94206987Y-120784502D01*
X94245819Y-120785815D01*
X94275007Y-120787659D01*
X94296573Y-120790121D01*
X94312539Y-120793292D01*
X94324924Y-120797258D01*
X94335752Y-120802109D01*
X94354401Y-120812729D01*
X94395483Y-120850512D01*
X94424105Y-120902778D01*
X94441018Y-120970732D01*
X94450829Y-121018581D01*
X94471603Y-121068561D01*
X94503293Y-121103903D01*
X94548404Y-121127136D01*
X94609441Y-121140789D01*
X94624896Y-121143264D01*
X94690612Y-121163078D01*
X94741366Y-121195715D01*
X94776625Y-121240854D01*
X94777446Y-121242428D01*
X94780481Y-121249190D01*
X94783146Y-121257658D01*
X94785462Y-121269060D01*
X94787449Y-121284626D01*
X94789125Y-121305583D01*
X94790511Y-121333161D01*
X94791627Y-121368588D01*
X94792492Y-121413092D01*
X94793126Y-121467903D01*
X94793550Y-121534248D01*
X94793782Y-121613356D01*
X94793843Y-121706456D01*
X94793752Y-121814776D01*
X94793529Y-121939546D01*
X94793195Y-122081992D01*
X94793139Y-122103091D01*
X94792768Y-122243345D01*
G37*
G36*
X105671381Y-120780053D02*
G01*
X105733463Y-120784746D01*
X105782167Y-120793352D01*
X105819825Y-120806486D01*
X105848767Y-120824765D01*
X105871324Y-120848808D01*
X105889826Y-120879230D01*
X105893252Y-120886322D01*
X105896492Y-120894756D01*
X105899270Y-120905317D01*
X105901616Y-120919391D01*
X105903557Y-120938362D01*
X105905125Y-120963615D01*
X105906347Y-120996537D01*
X105907254Y-121038512D01*
X105907874Y-121090925D01*
X105908237Y-121155161D01*
X105908371Y-121232607D01*
X105908308Y-121324646D01*
X105908074Y-121432664D01*
X105907701Y-121558046D01*
X105907216Y-121702178D01*
X105904519Y-122485751D01*
X105877542Y-122521116D01*
X105872480Y-122527355D01*
X105845207Y-122553847D01*
X105817138Y-122572953D01*
X105806821Y-122577229D01*
X105789573Y-122581648D01*
X105765570Y-122584905D01*
X105732136Y-122587169D01*
X105686596Y-122588604D01*
X105626275Y-122589377D01*
X105548498Y-122589654D01*
X105477360Y-122589648D01*
X105418539Y-122589316D01*
X105374352Y-122588424D01*
X105341962Y-122586745D01*
X105318535Y-122584052D01*
X105301233Y-122580118D01*
X105287222Y-122574715D01*
X105273664Y-122567615D01*
X105266372Y-122563158D01*
X105235569Y-122537974D01*
X105211889Y-122509728D01*
X105205980Y-122499539D01*
X105200226Y-122486290D01*
X105195837Y-122469572D01*
X105192538Y-122446610D01*
X105190052Y-122414624D01*
X105188101Y-122370839D01*
X105186410Y-122312475D01*
X105184701Y-122236756D01*
X105184060Y-122206662D01*
X105182492Y-122138333D01*
X105180901Y-122086289D01*
X105178966Y-122047724D01*
X105176365Y-122019836D01*
X105172777Y-121999820D01*
X105167881Y-121984871D01*
X105161356Y-121972186D01*
X105152881Y-121958960D01*
X105142121Y-121944461D01*
X105101106Y-121908916D01*
X105052385Y-121888555D01*
X105000145Y-121883379D01*
X104948571Y-121893388D01*
X104901849Y-121918582D01*
X104864163Y-121958960D01*
X104860767Y-121964114D01*
X104853053Y-121976811D01*
X104847171Y-121990010D01*
X104842799Y-122006514D01*
X104839615Y-122029127D01*
X104837299Y-122060653D01*
X104835529Y-122103898D01*
X104833984Y-122161664D01*
X104832343Y-122236756D01*
X104830937Y-122300012D01*
X104829263Y-122361340D01*
X104827381Y-122407584D01*
X104825013Y-122441519D01*
X104821883Y-122465923D01*
X104817714Y-122483575D01*
X104812231Y-122497250D01*
X104805155Y-122509728D01*
X104800656Y-122516320D01*
X104774179Y-122544811D01*
X104743380Y-122567615D01*
X104730656Y-122574321D01*
X104716746Y-122579826D01*
X104699719Y-122583848D01*
X104676737Y-122586617D01*
X104644965Y-122588361D01*
X104601566Y-122589306D01*
X104543706Y-122589683D01*
X104468546Y-122589718D01*
X104394696Y-122589586D01*
X104336587Y-122589146D01*
X104292987Y-122588163D01*
X104261059Y-122586403D01*
X104237962Y-122583628D01*
X104220858Y-122579603D01*
X104206907Y-122574093D01*
X104193269Y-122566861D01*
X104161334Y-122542644D01*
X104129233Y-122498902D01*
X104110849Y-122446611D01*
X104107647Y-122390475D01*
X104121093Y-122335201D01*
X104135267Y-122310030D01*
X104167402Y-122274541D01*
X104206468Y-122246971D01*
X104245703Y-122232873D01*
X104306677Y-122221752D01*
X104359758Y-122207073D01*
X104395491Y-122190589D01*
X104403404Y-122184688D01*
X104431370Y-122150633D01*
X104452884Y-122102590D01*
X104465712Y-122045189D01*
X104475080Y-121997922D01*
X104498117Y-121945437D01*
X104534266Y-121906795D01*
X104585125Y-121880453D01*
X104652291Y-121864868D01*
X104689115Y-121857293D01*
X104745543Y-121833291D01*
X104787359Y-121797136D01*
X104813343Y-121750059D01*
X104822275Y-121693292D01*
X104819932Y-121661731D01*
X104802567Y-121609218D01*
X104768864Y-121567932D01*
X104719519Y-121538585D01*
X104655228Y-121521890D01*
X104602231Y-121510988D01*
X104548470Y-121488050D01*
X104509480Y-121453345D01*
X104483253Y-121404934D01*
X104467780Y-121340877D01*
X104457279Y-121290367D01*
X104435080Y-121237388D01*
X104401706Y-121199340D01*
X104355108Y-121174095D01*
X104293239Y-121159526D01*
X104237997Y-121147186D01*
X104181316Y-121120371D01*
X104140487Y-121081427D01*
X104115787Y-121030638D01*
X104107491Y-120968290D01*
X104107862Y-120955442D01*
X104120542Y-120896837D01*
X104150798Y-120847811D01*
X104197990Y-120809487D01*
X104243401Y-120782789D01*
X104469917Y-120782789D01*
X104504423Y-120782809D01*
X104575600Y-120783218D01*
X104630687Y-120784592D01*
X104672550Y-120787496D01*
X104704058Y-120792499D01*
X104728077Y-120800165D01*
X104747476Y-120811061D01*
X104765122Y-120825754D01*
X104783882Y-120844811D01*
X104794997Y-120857213D01*
X104807748Y-120875056D01*
X104817237Y-120895642D01*
X104823939Y-120921871D01*
X104828326Y-120956639D01*
X104830874Y-121002845D01*
X104832055Y-121063386D01*
X104832343Y-121141159D01*
X104832587Y-121210091D01*
X104833538Y-121270068D01*
X104835372Y-121315214D01*
X104838264Y-121348315D01*
X104842390Y-121372159D01*
X104847924Y-121389534D01*
X104865269Y-121423443D01*
X104903020Y-121467131D01*
X104950978Y-121493665D01*
X105008522Y-121502606D01*
X105043839Y-121499438D01*
X105095762Y-121479989D01*
X105137729Y-121443208D01*
X105169120Y-121389534D01*
X105174165Y-121374149D01*
X105178424Y-121351080D01*
X105181433Y-121319034D01*
X105183365Y-121275224D01*
X105184396Y-121216861D01*
X105184701Y-121141159D01*
X105184831Y-121084802D01*
X105185694Y-121019390D01*
X105187781Y-120969183D01*
X105191566Y-120931284D01*
X105197522Y-120902795D01*
X105206125Y-120880818D01*
X105217847Y-120862456D01*
X105233162Y-120844811D01*
X105244399Y-120833236D01*
X105263658Y-120816031D01*
X105284020Y-120803236D01*
X105308658Y-120794115D01*
X105340744Y-120787928D01*
X105383449Y-120783938D01*
X105439945Y-120781407D01*
X105513404Y-120779596D01*
X105593591Y-120778655D01*
X105671381Y-120780053D01*
G37*
G36*
X107649680Y-120807849D02*
G01*
X107677487Y-120827979D01*
X107710402Y-120864486D01*
X107733268Y-120905495D01*
X107741872Y-120944751D01*
X107746964Y-120989676D01*
X107765823Y-121041878D01*
X107795893Y-121086057D01*
X107834313Y-121118233D01*
X107878223Y-121134427D01*
X107884383Y-121135366D01*
X107949893Y-121147736D01*
X107999051Y-121162931D01*
X108035340Y-121182815D01*
X108062243Y-121209251D01*
X108083243Y-121244103D01*
X108086235Y-121250455D01*
X108090944Y-121262118D01*
X108094753Y-121275577D01*
X108097756Y-121292871D01*
X108100049Y-121316035D01*
X108101728Y-121347109D01*
X108102887Y-121388130D01*
X108103623Y-121441135D01*
X108104030Y-121508162D01*
X108104204Y-121591249D01*
X108104241Y-121692432D01*
X108104235Y-121739748D01*
X108104142Y-121832722D01*
X108103864Y-121908479D01*
X108103309Y-121969040D01*
X108102384Y-122016426D01*
X108100998Y-122052659D01*
X108099058Y-122079758D01*
X108096471Y-122099745D01*
X108093145Y-122114640D01*
X108088988Y-122126465D01*
X108083908Y-122137241D01*
X108080650Y-122143239D01*
X108047009Y-122184075D01*
X108001423Y-122215215D01*
X107950714Y-122231814D01*
X107950201Y-122231892D01*
X107913463Y-122237494D01*
X107878022Y-122242959D01*
X107871853Y-122244150D01*
X107831714Y-122261380D01*
X107794237Y-122291441D01*
X107766664Y-122328751D01*
X107759034Y-122348669D01*
X107749821Y-122383831D01*
X107742634Y-122423063D01*
X107738868Y-122445268D01*
X107721621Y-122499641D01*
X107693641Y-122539950D01*
X107652916Y-122569479D01*
X107648637Y-122571662D01*
X107638123Y-122576106D01*
X107625246Y-122579726D01*
X107608030Y-122582608D01*
X107584503Y-122584839D01*
X107552688Y-122586507D01*
X107510611Y-122587698D01*
X107456298Y-122588500D01*
X107387773Y-122588999D01*
X107303064Y-122589283D01*
X107200194Y-122589438D01*
X107101475Y-122589455D01*
X107012668Y-122589216D01*
X106940515Y-122588655D01*
X106883210Y-122587713D01*
X106838948Y-122586335D01*
X106805923Y-122584461D01*
X106782328Y-122582036D01*
X106766358Y-122579000D01*
X106756207Y-122575297D01*
X106732386Y-122559636D01*
X106699200Y-122527186D01*
X106673281Y-122489753D01*
X106660069Y-122454189D01*
X106660007Y-122453794D01*
X106654395Y-122417794D01*
X106648660Y-122380985D01*
X106647000Y-122371760D01*
X106626682Y-122318572D01*
X106590360Y-122277029D01*
X106538887Y-122247855D01*
X106473117Y-122231775D01*
X106459729Y-122229902D01*
X106411443Y-122218676D01*
X106374131Y-122199978D01*
X106340574Y-122170469D01*
X106320870Y-122145874D01*
X106297396Y-122093772D01*
X106292824Y-122037060D01*
X106307598Y-121978335D01*
X106325427Y-121943080D01*
X106354081Y-121910162D01*
X106395908Y-121883583D01*
X106404167Y-121879598D01*
X106418378Y-121874290D01*
X106435715Y-121870440D01*
X106459014Y-121867875D01*
X106491108Y-121866425D01*
X106534830Y-121865916D01*
X106593015Y-121866177D01*
X106668496Y-121867036D01*
X106686872Y-121867275D01*
X106757357Y-121868287D01*
X106811138Y-121869426D01*
X106851015Y-121870984D01*
X106879789Y-121873251D01*
X106900262Y-121876518D01*
X106915235Y-121881078D01*
X106927508Y-121887219D01*
X106939882Y-121895234D01*
X106971572Y-121925204D01*
X106999579Y-121966756D01*
X107019468Y-122012095D01*
X107027032Y-122053579D01*
X107034624Y-122101827D01*
X107058123Y-122148567D01*
X107094018Y-122186323D01*
X107138724Y-122212331D01*
X107188657Y-122223826D01*
X107240236Y-122218044D01*
X107249559Y-122215144D01*
X107294818Y-122195932D01*
X107327045Y-122170016D01*
X107352285Y-122132797D01*
X107357837Y-122121826D01*
X107362625Y-122109748D01*
X107366441Y-122095020D01*
X107369424Y-122075457D01*
X107371712Y-122048874D01*
X107373445Y-122013085D01*
X107374761Y-121965905D01*
X107375799Y-121905147D01*
X107376697Y-121828626D01*
X107377595Y-121734156D01*
X107377744Y-121717458D01*
X107378518Y-121612713D01*
X107378748Y-121525857D01*
X107378310Y-121454928D01*
X107377079Y-121397967D01*
X107374928Y-121353015D01*
X107371734Y-121318110D01*
X107367370Y-121291293D01*
X107361711Y-121270605D01*
X107354633Y-121254084D01*
X107346010Y-121239771D01*
X107322927Y-121209815D01*
X107290572Y-121183075D01*
X107251329Y-121169271D01*
X107199172Y-121165349D01*
X107171188Y-121165820D01*
X107140805Y-121169250D01*
X107117742Y-121177773D01*
X107094338Y-121193444D01*
X107084807Y-121200908D01*
X107060491Y-121223873D01*
X107044575Y-121249060D01*
X107034073Y-121282437D01*
X107025995Y-121329973D01*
X107023621Y-121344703D01*
X107003871Y-121408798D01*
X106971205Y-121459059D01*
X106926515Y-121494014D01*
X106922390Y-121496123D01*
X106908704Y-121501667D01*
X106891560Y-121505831D01*
X106868181Y-121508807D01*
X106835786Y-121510787D01*
X106791596Y-121511963D01*
X106732831Y-121512528D01*
X106656713Y-121512674D01*
X106651503Y-121512673D01*
X106572169Y-121512358D01*
X106510526Y-121511392D01*
X106464271Y-121509651D01*
X106431101Y-121507010D01*
X106408713Y-121503344D01*
X106394804Y-121498529D01*
X106352440Y-121467418D01*
X106318343Y-121421924D01*
X106298016Y-121368686D01*
X106293220Y-121312457D01*
X106305714Y-121257992D01*
X106309961Y-121248825D01*
X106341742Y-121206103D01*
X106387017Y-121171674D01*
X106440677Y-121148673D01*
X106497610Y-121140237D01*
X106504337Y-121140000D01*
X106548667Y-121127862D01*
X106589506Y-121100280D01*
X106623200Y-121061320D01*
X106646095Y-121015048D01*
X106654539Y-120965533D01*
X106654540Y-120965018D01*
X106658596Y-120929231D01*
X106668140Y-120895566D01*
X106684901Y-120867694D01*
X106715080Y-120834559D01*
X106750124Y-120806704D01*
X106783082Y-120790485D01*
X106785227Y-120790056D01*
X106805761Y-120788383D01*
X106843505Y-120786851D01*
X106896113Y-120785502D01*
X106961237Y-120784378D01*
X107036532Y-120783524D01*
X107119650Y-120782979D01*
X107208245Y-120782789D01*
X107605906Y-120782789D01*
X107649680Y-120807849D01*
G37*
G36*
X89580140Y-121861435D02*
G01*
X89579681Y-121937459D01*
X89578658Y-121998650D01*
X89576848Y-122046963D01*
X89574025Y-122084358D01*
X89569966Y-122112793D01*
X89564446Y-122134223D01*
X89557241Y-122150608D01*
X89548127Y-122163905D01*
X89536879Y-122176071D01*
X89523273Y-122189065D01*
X89508568Y-122201759D01*
X89458955Y-122228768D01*
X89401572Y-122237525D01*
X89375568Y-122240357D01*
X89329994Y-122255355D01*
X89287819Y-122279614D01*
X89257399Y-122308990D01*
X89248273Y-122325877D01*
X89235825Y-122362179D01*
X89227085Y-122404346D01*
X89219254Y-122448063D01*
X89204649Y-122492734D01*
X89182724Y-122527088D01*
X89150710Y-122556644D01*
X89113765Y-122584850D01*
X88876363Y-122589883D01*
X88805642Y-122591461D01*
X88746163Y-122593123D01*
X88701367Y-122595025D01*
X88668428Y-122597456D01*
X88644519Y-122600705D01*
X88626811Y-122605062D01*
X88612478Y-122610814D01*
X88598692Y-122618250D01*
X88559610Y-122646093D01*
X88530786Y-122682870D01*
X88512078Y-122732458D01*
X88507232Y-122780965D01*
X88518400Y-122833669D01*
X88544482Y-122880996D01*
X88582937Y-122918481D01*
X88631221Y-122941660D01*
X88634120Y-122942343D01*
X88659285Y-122945476D01*
X88700122Y-122948191D01*
X88752935Y-122950331D01*
X88814025Y-122951737D01*
X88879695Y-122952253D01*
X88931318Y-122952300D01*
X88989368Y-122952620D01*
X89032524Y-122953509D01*
X89063861Y-122955271D01*
X89086451Y-122958206D01*
X89103367Y-122962615D01*
X89117682Y-122968801D01*
X89132468Y-122977065D01*
X89138332Y-122980583D01*
X89176030Y-123009899D01*
X89201116Y-123046150D01*
X89218261Y-123095803D01*
X89220889Y-123108085D01*
X89221532Y-123165156D01*
X89204466Y-123218678D01*
X89171636Y-123264428D01*
X89124988Y-123298184D01*
X89117209Y-123301491D01*
X89104683Y-123304944D01*
X89087267Y-123307694D01*
X89063055Y-123309799D01*
X89030141Y-123311318D01*
X88986621Y-123312309D01*
X88930590Y-123312830D01*
X88860141Y-123312940D01*
X88773369Y-123312697D01*
X88668369Y-123312159D01*
X88244744Y-123309701D01*
X88207776Y-123281495D01*
X88182625Y-123259488D01*
X88158459Y-123226847D01*
X88142299Y-123185255D01*
X88131378Y-123129197D01*
X88126908Y-123104349D01*
X88114925Y-123062614D01*
X88100287Y-123032750D01*
X88087147Y-123017452D01*
X88051663Y-122989926D01*
X88010638Y-122970020D01*
X87972399Y-122962320D01*
X87971519Y-122962317D01*
X87914497Y-122953888D01*
X87862340Y-122931269D01*
X87819876Y-122897330D01*
X87791933Y-122854946D01*
X87789368Y-122845779D01*
X87787074Y-122830109D01*
X87785100Y-122806847D01*
X87783424Y-122774740D01*
X87782025Y-122732533D01*
X87780882Y-122678972D01*
X87779974Y-122612803D01*
X87779279Y-122532771D01*
X87778775Y-122437622D01*
X87778442Y-122326101D01*
X87778258Y-122196955D01*
X87778201Y-122048928D01*
X87778203Y-121995141D01*
X87778240Y-121858643D01*
X87778281Y-121813908D01*
X88504471Y-121813908D01*
X88504793Y-121906866D01*
X88505852Y-121981151D01*
X88507661Y-122037395D01*
X88510233Y-122076230D01*
X88513579Y-122098289D01*
X88518034Y-122111921D01*
X88544523Y-122157333D01*
X88583492Y-122194019D01*
X88629367Y-122216297D01*
X88650340Y-122221779D01*
X88679086Y-122226121D01*
X88705370Y-122223099D01*
X88739636Y-122212336D01*
X88783848Y-122188141D01*
X88821904Y-122147628D01*
X88845291Y-122096774D01*
X88848338Y-122075972D01*
X88850936Y-122033881D01*
X88852736Y-121971731D01*
X88853736Y-121889553D01*
X88853936Y-121787381D01*
X88853336Y-121665244D01*
X88850377Y-121274580D01*
X88825381Y-121238119D01*
X88817137Y-121226984D01*
X88775169Y-121188708D01*
X88725849Y-121166484D01*
X88673080Y-121160313D01*
X88620762Y-121170196D01*
X88572795Y-121196131D01*
X88533082Y-121238119D01*
X88508086Y-121274580D01*
X88505127Y-121665244D01*
X88504875Y-121701643D01*
X88504471Y-121813908D01*
X87778281Y-121813908D01*
X87778349Y-121740396D01*
X87778560Y-121639015D01*
X87778908Y-121553114D01*
X87779422Y-121481307D01*
X87780136Y-121422210D01*
X87781081Y-121374436D01*
X87782290Y-121336600D01*
X87783793Y-121307317D01*
X87785624Y-121285201D01*
X87787814Y-121268867D01*
X87790396Y-121256928D01*
X87793401Y-121248000D01*
X87796860Y-121240697D01*
X87802939Y-121230209D01*
X87841394Y-121187800D01*
X87895256Y-121157874D01*
X87963925Y-121140789D01*
X88010688Y-121131515D01*
X88059709Y-121111023D01*
X88094656Y-121079081D01*
X88118034Y-121033160D01*
X88132348Y-120970732D01*
X88137330Y-120943499D01*
X88158518Y-120881532D01*
X88191695Y-120834803D01*
X88237614Y-120802109D01*
X88239638Y-120801118D01*
X88250606Y-120796442D01*
X88263515Y-120792633D01*
X88280385Y-120789603D01*
X88303240Y-120787265D01*
X88334099Y-120785529D01*
X88374986Y-120784306D01*
X88427921Y-120783510D01*
X88494926Y-120783050D01*
X88578022Y-120782839D01*
X88679231Y-120782789D01*
X88699883Y-120782790D01*
X88797507Y-120782864D01*
X88877401Y-120783115D01*
X88941586Y-120783632D01*
X88992084Y-120784502D01*
X89030916Y-120785815D01*
X89060105Y-120787659D01*
X89081671Y-120790121D01*
X89097636Y-120793292D01*
X89110021Y-120797258D01*
X89120849Y-120802109D01*
X89139498Y-120812729D01*
X89180580Y-120850512D01*
X89209202Y-120902778D01*
X89226115Y-120970732D01*
X89235926Y-121018581D01*
X89256700Y-121068561D01*
X89288390Y-121103903D01*
X89333502Y-121127136D01*
X89394538Y-121140789D01*
X89410200Y-121143302D01*
X89475800Y-121163121D01*
X89526468Y-121195706D01*
X89561602Y-121240697D01*
X89562856Y-121243115D01*
X89567259Y-121253283D01*
X89570854Y-121265929D01*
X89573722Y-121283014D01*
X89575944Y-121306501D01*
X89577602Y-121338351D01*
X89578776Y-121380525D01*
X89579548Y-121434987D01*
X89579999Y-121503697D01*
X89580210Y-121588619D01*
X89580262Y-121691713D01*
X89580260Y-121768620D01*
X89580236Y-121787381D01*
X89580140Y-121861435D01*
G37*
G36*
X116657612Y-118346377D02*
G01*
X116750181Y-118346903D01*
X116821181Y-118347976D01*
X116873427Y-118349738D01*
X116909732Y-118352336D01*
X116932910Y-118355912D01*
X116945774Y-118360611D01*
X116951137Y-118366577D01*
X116951314Y-118367078D01*
X116956090Y-118387100D01*
X116964964Y-118429676D01*
X116977224Y-118491187D01*
X116992158Y-118568016D01*
X117009056Y-118656545D01*
X117027204Y-118753157D01*
X117028714Y-118761244D01*
X117047111Y-118857093D01*
X117064725Y-118944320D01*
X117080770Y-119019355D01*
X117094457Y-119078627D01*
X117104998Y-119118565D01*
X117111605Y-119135599D01*
X117119242Y-119141067D01*
X117149991Y-119157149D01*
X117198242Y-119179292D01*
X117259310Y-119205628D01*
X117328511Y-119234295D01*
X117401159Y-119263426D01*
X117472570Y-119291157D01*
X117538059Y-119315622D01*
X117592940Y-119334958D01*
X117632530Y-119347298D01*
X117652144Y-119350778D01*
X117652572Y-119350679D01*
X117671494Y-119341103D01*
X117709135Y-119318255D01*
X117762352Y-119284177D01*
X117828005Y-119240913D01*
X117902953Y-119190502D01*
X117984054Y-119134989D01*
X117990116Y-119130807D01*
X118070263Y-119075975D01*
X118143505Y-119026686D01*
X118206815Y-118984914D01*
X118257166Y-118952634D01*
X118291533Y-118931818D01*
X118306887Y-118924441D01*
X118308336Y-118924880D01*
X118325799Y-118937868D01*
X118359029Y-118967105D01*
X118405476Y-119010192D01*
X118462587Y-119064732D01*
X118527811Y-119128327D01*
X118598595Y-119198577D01*
X118606867Y-119206862D01*
X118692211Y-119293100D01*
X118759006Y-119362254D01*
X118808286Y-119415473D01*
X118841086Y-119453908D01*
X118858440Y-119478712D01*
X118861381Y-119491034D01*
X118851129Y-119506496D01*
X118827691Y-119541045D01*
X118793197Y-119591564D01*
X118749760Y-119654963D01*
X118699494Y-119728153D01*
X118644513Y-119808043D01*
X118590061Y-119887970D01*
X118540981Y-119961713D01*
X118499357Y-120026003D01*
X118467189Y-120077700D01*
X118446474Y-120113663D01*
X118439209Y-120130754D01*
X118443368Y-120149869D01*
X118457126Y-120189931D01*
X118478587Y-120244862D01*
X118505769Y-120310242D01*
X118536689Y-120381652D01*
X118569366Y-120454672D01*
X118601816Y-120524881D01*
X118632057Y-120587862D01*
X118658107Y-120639193D01*
X118677983Y-120674455D01*
X118689704Y-120689229D01*
X118706283Y-120693844D01*
X118746427Y-120702872D01*
X118805802Y-120715273D01*
X118880615Y-120730274D01*
X118967074Y-120747101D01*
X119061386Y-120764981D01*
X119148407Y-120781584D01*
X119233895Y-120798570D01*
X119307354Y-120813875D01*
X119365173Y-120826725D01*
X119403745Y-120836342D01*
X119419461Y-120841952D01*
X119421109Y-120846610D01*
X119424561Y-120874296D01*
X119427847Y-120922637D01*
X119430886Y-120987379D01*
X119433599Y-121064273D01*
X119435904Y-121149065D01*
X119437723Y-121237505D01*
X119438973Y-121325340D01*
X119439576Y-121408319D01*
X119439450Y-121482190D01*
X119438516Y-121542701D01*
X119436693Y-121585601D01*
X119433901Y-121606638D01*
X119429734Y-121613959D01*
X119419483Y-121622371D01*
X119400798Y-121630743D01*
X119370670Y-121639850D01*
X119326089Y-121650471D01*
X119264045Y-121663383D01*
X119181528Y-121679364D01*
X119075529Y-121699189D01*
X118989657Y-121715462D01*
X118902082Y-121732847D01*
X118825770Y-121748824D01*
X118764527Y-121762569D01*
X118722154Y-121773258D01*
X118702455Y-121780066D01*
X118700236Y-121782027D01*
X118685798Y-121804506D01*
X118664602Y-121846581D01*
X118638419Y-121903835D01*
X118609023Y-121971856D01*
X118578187Y-122046226D01*
X118547681Y-122122532D01*
X118519280Y-122196358D01*
X118494756Y-122263290D01*
X118475880Y-122318912D01*
X118464427Y-122358809D01*
X118462168Y-122378566D01*
X118467370Y-122388246D01*
X118486262Y-122418623D01*
X118516676Y-122465501D01*
X118556426Y-122525555D01*
X118603325Y-122595463D01*
X118655187Y-122671901D01*
X118691214Y-122724834D01*
X118740802Y-122798097D01*
X118784385Y-122862962D01*
X118819663Y-122915986D01*
X118844334Y-122953722D01*
X118856097Y-122972725D01*
X118858412Y-122977957D01*
X118859401Y-122988426D01*
X118854623Y-123002058D01*
X118842165Y-123021095D01*
X118820114Y-123047785D01*
X118786558Y-123084371D01*
X118739584Y-123133097D01*
X118677280Y-123196210D01*
X118597733Y-123275952D01*
X118581611Y-123292055D01*
X118512218Y-123360911D01*
X118449326Y-123422601D01*
X118395420Y-123474738D01*
X118352986Y-123514934D01*
X118324510Y-123540803D01*
X118312476Y-123549957D01*
X118299674Y-123543151D01*
X118267575Y-123522965D01*
X118219297Y-123491386D01*
X118157860Y-123450410D01*
X118086285Y-123402037D01*
X118007589Y-123348263D01*
X117931981Y-123296690D01*
X117859507Y-123247991D01*
X117796814Y-123206626D01*
X117746977Y-123174597D01*
X117713070Y-123153910D01*
X117698170Y-123146569D01*
X117684990Y-123150665D01*
X117651874Y-123165157D01*
X117605182Y-123187652D01*
X117550453Y-123215563D01*
X117504557Y-123238555D01*
X117455515Y-123260649D01*
X117418742Y-123274369D01*
X117399874Y-123277400D01*
X117398627Y-123276270D01*
X117387615Y-123256932D01*
X117367749Y-123215668D01*
X117340073Y-123154859D01*
X117305627Y-123076886D01*
X117265457Y-122984128D01*
X117220603Y-122878966D01*
X117172110Y-122763780D01*
X117121020Y-122640950D01*
X116860815Y-122011656D01*
X116900153Y-121981361D01*
X116970401Y-121926931D01*
X117037183Y-121873940D01*
X117088808Y-121830854D01*
X117128826Y-121794412D01*
X117160789Y-121761350D01*
X117188247Y-121728406D01*
X117214752Y-121692317D01*
X117266793Y-121608531D01*
X117314075Y-121498390D01*
X117341040Y-121379676D01*
X117349603Y-121246053D01*
X117349461Y-121228247D01*
X117346094Y-121152656D01*
X117339002Y-121082406D01*
X117329193Y-121028245D01*
X117296896Y-120930017D01*
X117233875Y-120807753D01*
X117151331Y-120699649D01*
X117052149Y-120607513D01*
X116939215Y-120533157D01*
X116815411Y-120478391D01*
X116683624Y-120445027D01*
X116546736Y-120434874D01*
X116407633Y-120449743D01*
X116320590Y-120471059D01*
X116199612Y-120517599D01*
X116091600Y-120583165D01*
X115990309Y-120671067D01*
X115948150Y-120716303D01*
X115863016Y-120832909D01*
X115801859Y-120957285D01*
X115764380Y-121086922D01*
X115750282Y-121219312D01*
X115759267Y-121351948D01*
X115791037Y-121482320D01*
X115845293Y-121607920D01*
X115921739Y-121726241D01*
X116020075Y-121834774D01*
X116140003Y-121931010D01*
X116152463Y-121939708D01*
X116194236Y-121972049D01*
X116222910Y-121999456D01*
X116233563Y-122017382D01*
X116230703Y-122027968D01*
X116218227Y-122062651D01*
X116196436Y-122119365D01*
X116165969Y-122196532D01*
X116127467Y-122292574D01*
X116081569Y-122405913D01*
X116028915Y-122534970D01*
X115970144Y-122678168D01*
X115905897Y-122833928D01*
X115836813Y-123000673D01*
X115763532Y-123176823D01*
X115738715Y-123231116D01*
X115716097Y-123268274D01*
X115699028Y-123281032D01*
X115686668Y-123277826D01*
X115653432Y-123263988D01*
X115606971Y-123241730D01*
X115553247Y-123213800D01*
X115514111Y-123193186D01*
X115465632Y-123169111D01*
X115428985Y-123152660D01*
X115409999Y-123146569D01*
X115405196Y-123148138D01*
X115380212Y-123161765D01*
X115338180Y-123187587D01*
X115282536Y-123223410D01*
X115216716Y-123267042D01*
X115144158Y-123316287D01*
X115116826Y-123335036D01*
X115042617Y-123385867D01*
X114974244Y-123432597D01*
X114915789Y-123472443D01*
X114871333Y-123502620D01*
X114844957Y-123520346D01*
X114793064Y-123554687D01*
X114518289Y-123280158D01*
X114501956Y-123263813D01*
X114432951Y-123194151D01*
X114371130Y-123130783D01*
X114318885Y-123076227D01*
X114278607Y-123033004D01*
X114252687Y-123003632D01*
X114243515Y-122990633D01*
X114250308Y-122976867D01*
X114270487Y-122943807D01*
X114302065Y-122894659D01*
X114343044Y-122832487D01*
X114391425Y-122760356D01*
X114445209Y-122681332D01*
X114496664Y-122605568D01*
X114545397Y-122532406D01*
X114586795Y-122468780D01*
X114618850Y-122417825D01*
X114639555Y-122382673D01*
X114646903Y-122366459D01*
X114645765Y-122360701D01*
X114636584Y-122332127D01*
X114619392Y-122284351D01*
X114595627Y-122221229D01*
X114566729Y-122146618D01*
X114534138Y-122064373D01*
X114498685Y-121977255D01*
X114461454Y-121890061D01*
X114432175Y-121827286D01*
X114410558Y-121788318D01*
X114396314Y-121772541D01*
X114382269Y-121768678D01*
X114344014Y-121760176D01*
X114286298Y-121748287D01*
X114212992Y-121733788D01*
X114127968Y-121717454D01*
X114035098Y-121700064D01*
X113958674Y-121685656D01*
X113872945Y-121668786D01*
X113798671Y-121653393D01*
X113739607Y-121640285D01*
X113699509Y-121630268D01*
X113682133Y-121624152D01*
X113679032Y-121619484D01*
X113674440Y-121600638D01*
X113670901Y-121566308D01*
X113668316Y-121514214D01*
X113666590Y-121442075D01*
X113665626Y-121347611D01*
X113665326Y-121228541D01*
X113665326Y-120846680D01*
X113695580Y-120833973D01*
X113712127Y-120829282D01*
X113752776Y-120820104D01*
X113812664Y-120807693D01*
X113887887Y-120792836D01*
X113974538Y-120776318D01*
X114068714Y-120758924D01*
X114104251Y-120752418D01*
X114218635Y-120730661D01*
X114307683Y-120712224D01*
X114372426Y-120696866D01*
X114413896Y-120684350D01*
X114433124Y-120674435D01*
X114435162Y-120671887D01*
X114449062Y-120647541D01*
X114470872Y-120603454D01*
X114498685Y-120543695D01*
X114530596Y-120472336D01*
X114564699Y-120393445D01*
X114594396Y-120323187D01*
X114623830Y-120251817D01*
X114644308Y-120198957D01*
X114656943Y-120161194D01*
X114662846Y-120135115D01*
X114663131Y-120117305D01*
X114658910Y-120104351D01*
X114649157Y-120088399D01*
X114625717Y-120052462D01*
X114591196Y-120000633D01*
X114547810Y-119936214D01*
X114497772Y-119862509D01*
X114443297Y-119782819D01*
X114393457Y-119709586D01*
X114344850Y-119636950D01*
X114303538Y-119573924D01*
X114271535Y-119523625D01*
X114250856Y-119489170D01*
X114243515Y-119473678D01*
X114248390Y-119464788D01*
X114269851Y-119438620D01*
X114305680Y-119399083D01*
X114352880Y-119349158D01*
X114408457Y-119291828D01*
X114469415Y-119230075D01*
X114532759Y-119166881D01*
X114595494Y-119105227D01*
X114654624Y-119048096D01*
X114707154Y-118998470D01*
X114750089Y-118959331D01*
X114780433Y-118933660D01*
X114795192Y-118924441D01*
X114810653Y-118931396D01*
X114845273Y-118951830D01*
X114895767Y-118983738D01*
X114959018Y-119025108D01*
X115031904Y-119073931D01*
X115111305Y-119128195D01*
X115186648Y-119179845D01*
X115261660Y-119230569D01*
X115327826Y-119274597D01*
X115381844Y-119309753D01*
X115420414Y-119333865D01*
X115440233Y-119344759D01*
X115445785Y-119346438D01*
X115463256Y-119347431D01*
X115488601Y-119343011D01*
X115525171Y-119332098D01*
X115576314Y-119313614D01*
X115645382Y-119286479D01*
X115735726Y-119249616D01*
X115791542Y-119226335D01*
X115882054Y-119186949D01*
X115948547Y-119155455D01*
X115990536Y-119132090D01*
X116007533Y-119117092D01*
X116011617Y-119101613D01*
X116020062Y-119062270D01*
X116031787Y-119003576D01*
X116046047Y-118929357D01*
X116062095Y-118843436D01*
X116079187Y-118749639D01*
X116093922Y-118668858D01*
X116110439Y-118580851D01*
X116125415Y-118503706D01*
X116138073Y-118441328D01*
X116147638Y-118397626D01*
X116153333Y-118376505D01*
X116165755Y-118346251D01*
X116554546Y-118346251D01*
X116657612Y-118346377D01*
G37*
%TD*%
D10*
%TO.C,X1*%
X183515000Y-78105000D03*
D11*
X183515000Y-75565000D03*
D12*
X186055000Y-78105000D03*
X186055000Y-75565000D03*
D11*
X188595000Y-78105000D03*
X188595000Y-75565000D03*
%TD*%
D13*
%TO.C,SW4*%
X114300000Y-104140000D03*
X114300000Y-91640000D03*
X119300000Y-104140000D03*
X119300000Y-91640000D03*
%TD*%
%TO.C,SW8*%
X210820000Y-104140000D03*
X210820000Y-91640000D03*
X215820000Y-104140000D03*
X215820000Y-91640000D03*
%TD*%
%TO.C,SW3*%
X101600000Y-116840000D03*
X101600000Y-104340000D03*
X106600000Y-116840000D03*
X106600000Y-104340000D03*
%TD*%
D14*
%TO.C,*%
X212852000Y-85217000D03*
%TD*%
%TO.C,*%
X91948000Y-110363000D03*
%TD*%
%TO.C,*%
X116332000Y-85979000D03*
%TD*%
%TO.C,*%
X188468000Y-109601000D03*
%TD*%
%TO.C,*%
X91948000Y-85979000D03*
%TD*%
D13*
%TO.C,SW5*%
X198120000Y-91440000D03*
X198120000Y-78940000D03*
X203120000Y-91440000D03*
X203120000Y-78940000D03*
%TD*%
D14*
%TO.C,U1*%
X127000000Y-83185000D03*
X127000000Y-112395000D03*
X177800000Y-83185000D03*
X177800000Y-112395000D03*
D15*
X127000000Y-109220000D03*
X127000000Y-106680000D03*
X127000000Y-104140000D03*
X127000000Y-101600000D03*
X127000000Y-99060000D03*
X127000000Y-96520000D03*
X127000000Y-93980000D03*
X127000000Y-91440000D03*
X127000000Y-88900000D03*
X127000000Y-86360000D03*
%TD*%
D13*
%TO.C,SW7*%
X198120000Y-116790000D03*
X198120000Y-104290000D03*
X203120000Y-116790000D03*
X203120000Y-104290000D03*
%TD*%
%TO.C,SW1*%
X101600000Y-91440000D03*
X101600000Y-78940000D03*
X106600000Y-91440000D03*
X106600000Y-78940000D03*
%TD*%
D14*
%TO.C,*%
X116332000Y-110363000D03*
%TD*%
D13*
%TO.C,SW2*%
X88900000Y-104140000D03*
X88900000Y-91640000D03*
X93900000Y-104140000D03*
X93900000Y-91640000D03*
%TD*%
D14*
%TO.C,*%
X212852000Y-109601000D03*
%TD*%
D13*
%TO.C,SW6*%
X185420000Y-104090000D03*
X185420000Y-91590000D03*
X190420000Y-104090000D03*
X190420000Y-91590000D03*
%TD*%
D14*
%TO.C,*%
X188468000Y-85217000D03*
%TD*%
D16*
%TO.C,LS1*%
X121920000Y-77460000D03*
X121920000Y-69860000D03*
%TD*%
D17*
%TO.C,J1*%
X151714400Y-115798600D03*
D18*
X147244000Y-120269000D03*
X147244000Y-63881000D03*
X136068000Y-63881000D03*
X136068000Y-120269000D03*
%TD*%
D19*
%TO.C,U5*%
X173990000Y-62230000D03*
X173990000Y-64770000D03*
D20*
X173990000Y-67310000D03*
D19*
X173990000Y-69850000D03*
X173990000Y-72390000D03*
X173990000Y-74930000D03*
X173990000Y-77470000D03*
D20*
X173990000Y-80010000D03*
D19*
X173990000Y-82550000D03*
X173990000Y-85090000D03*
X173990000Y-87630000D03*
X173990000Y-90170000D03*
D20*
X173990000Y-92710000D03*
D19*
X173990000Y-95250000D03*
X173990000Y-97790000D03*
X173990000Y-100330000D03*
X173990000Y-102870000D03*
D20*
X173990000Y-105410000D03*
D19*
X173990000Y-107950000D03*
X173990000Y-110490000D03*
X156210000Y-110490000D03*
X156210000Y-107950000D03*
D20*
X156210000Y-105410000D03*
D19*
X156210000Y-102870000D03*
X156210000Y-100330000D03*
X156210000Y-97790000D03*
X156210000Y-95250000D03*
D20*
X156210000Y-92710000D03*
D19*
X156210000Y-90170000D03*
X156210000Y-87630000D03*
X156210000Y-85090000D03*
X156210000Y-82550000D03*
D20*
X156210000Y-80010000D03*
D19*
X156210000Y-77470000D03*
X156210000Y-74930000D03*
X156210000Y-72390000D03*
X156210000Y-69850000D03*
D20*
X156210000Y-67310000D03*
D19*
X156210000Y-64770000D03*
X156210000Y-62230000D03*
%TD*%
D21*
X196850002Y-71120002D02*
X217170000Y-71120000D01*
X118110000Y-59690000D02*
X152400000Y-59690000D01*
X186690000Y-59690000D02*
X152400000Y-59690000D01*
X82550000Y-119380000D02*
G75*
G03*
X87630000Y-124460000I5080000J0D01*
G01*
X87630000Y-71120000D02*
X107950002Y-71120002D01*
X152400000Y-124460000D02*
X217170000Y-124460000D01*
X222250000Y-119380000D02*
X222250000Y-76200000D01*
X191770000Y-64770000D02*
X191770002Y-66040002D01*
X217170000Y-124460000D02*
G75*
G03*
X222250000Y-119380000I0J5080000D01*
G01*
X113030000Y-64770000D02*
X113030002Y-66040002D01*
X107950002Y-71120002D02*
G75*
G03*
X113030002Y-66040002I-2J5080002D01*
G01*
X191770000Y-64770000D02*
G75*
G03*
X186690000Y-59690000I-5080000J0D01*
G01*
X191769998Y-66040002D02*
G75*
G03*
X196850002Y-71120002I5080002J2D01*
G01*
X222250000Y-76200000D02*
G75*
G03*
X217170000Y-71120000I-5080000J0D01*
G01*
X82550000Y-76200000D02*
X82550000Y-119380000D01*
X87630000Y-71120000D02*
G75*
G03*
X82550000Y-76200000I0J-5080000D01*
G01*
X118110000Y-59690000D02*
G75*
G03*
X113030000Y-64770000I0J-5080000D01*
G01*
X152400000Y-124460000D02*
X87630000Y-124460000D01*
M02*
