M48
; DRILL file {KiCad 7.0.10-7.0.10~ubuntu22.04.1} date Mon 12 Feb 2024 01:51:02 PM EST
; FORMAT={-:-/ absolute / inch / decimal}
; #@! TF.CreationDate,2024-02-12T13:51:02-05:00
; #@! TF.GenerationSoftware,Kicad,Pcbnew,7.0.10-7.0.10~ubuntu22.04.1
; #@! TF.FileFunction,Plated,1,2,PTH
FMAT,2
INCH
; #@! TA.AperFunction,Plated,PTH,ViaDrill
T1C0.0157
; #@! TA.AperFunction,Plated,PTH,ComponentDrill
T2C0.0300
; #@! TA.AperFunction,Plated,PTH,ComponentDrill
T3C0.0354
; #@! TA.AperFunction,Plated,PTH,ComponentDrill
T4C0.0400
; #@! TA.AperFunction,Plated,PTH,ComponentDrill
T5C0.0402
; #@! TA.AperFunction,Plated,PTH,ComponentDrill
T6C0.0472
%
G90
G05
T1
X4.1Y-2.92
X4.52Y-3.12
X4.92Y-2.78
X5.48Y-4.48
X5.59Y-3.54
X5.5909Y-4.7505
X5.78Y-4.3
X5.86Y-3.24
X5.86Y-3.32
X6.425Y-4.55
X6.5895Y-3.66
X7.47Y-2.93
X7.475Y-2.7
X7.48Y-2.86
X7.51Y-2.81
X7.6Y-2.9
T2
X5.0Y-3.4
X5.0Y-3.5
X5.0Y-3.6
X5.0Y-3.7
X5.0Y-3.8
X5.0Y-3.9
X5.0Y-4.0
X5.0Y-4.1
X5.0Y-4.2
X5.0Y-4.3
T3
X4.8Y-2.7504
X4.8Y-3.0496
T4
X7.225Y-2.975
X7.225Y-3.075
X7.325Y-2.975
X7.325Y-3.075
X7.425Y-2.975
X7.425Y-3.075
T5
X6.15Y-2.45
X6.15Y-2.55
X6.15Y-2.65
X6.15Y-2.75
X6.15Y-2.85
X6.15Y-2.95
X6.15Y-3.05
X6.15Y-3.15
X6.15Y-3.25
X6.15Y-3.35
X6.15Y-3.45
X6.15Y-3.55
X6.15Y-3.65
X6.15Y-3.75
X6.15Y-3.85
X6.15Y-3.95
X6.15Y-4.05
X6.15Y-4.15
X6.15Y-4.25
X6.15Y-4.35
X6.85Y-2.45
X6.85Y-2.55
X6.85Y-2.65
X6.85Y-2.75
X6.85Y-2.85
X6.85Y-2.95
X6.85Y-3.05
X6.85Y-3.15
X6.85Y-3.25
X6.85Y-3.35
X6.85Y-3.45
X6.85Y-3.55
X6.85Y-3.65
X6.85Y-3.75
X6.85Y-3.85
X6.85Y-3.95
X6.85Y-4.05
X6.85Y-4.15
X6.85Y-4.25
X6.85Y-4.35
T6
X3.5Y-3.6079
X3.5Y-4.1
X3.6969Y-3.6079
X3.6969Y-4.1
X4.0Y-3.1079
X4.0Y-3.6
X4.0Y-4.1079
X4.0Y-4.6
X4.1969Y-3.1079
X4.1969Y-3.6
X4.1969Y-4.1079
X4.1969Y-4.6
X4.5Y-3.6079
X4.5Y-4.1
X4.6969Y-3.6079
X4.6969Y-4.1
X7.3Y-3.6059
X7.3Y-4.098
X7.4969Y-3.6059
X7.4969Y-4.098
X7.8Y-3.1079
X7.8Y-3.6
X7.8Y-4.1059
X7.8Y-4.598
X7.9969Y-3.1079
X7.9969Y-3.6
X7.9969Y-4.1059
X7.9969Y-4.598
X8.3Y-3.6079
X8.3Y-4.1
X8.4969Y-3.6079
X8.4969Y-4.1
M30
