<svg width="448" height="448" viewBox="0 0 448 448" fill="none" xmlns="http://www.w3.org/2000/svg">
<path d="M224 0C100.3 0 0 102.9 0 229.7C0 331.2 64.2 417.2 153.2 447.6C154.448 447.871 155.723 448.005 157 448C165.3 448 168.5 441.9 168.5 436.6C168.5 431.1 168.3 416.7 168.2 397.5C160.79 399.237 153.21 400.143 145.6 400.2C102.5 400.2 92.7 366.7 92.7 366.7C82.5 340.2 67.8 333.1 67.8 333.1C48.3 319.4 67.7 319 69.2 319H69.3C91.8 321 103.6 342.8 103.6 342.8C114.8 362.4 129.8 367.9 143.2 367.9C152.06 367.723 160.784 365.678 168.8 361.9C170.8 347.1 176.6 337 183 331.2C133.3 325.4 81 305.7 81 217.7C81 192.6 89.7 172.1 104 156.1C101.7 150.3 94 126.9 106.2 95.3C107.836 94.9084 109.518 94.7402 111.2 94.8C119.3 94.8 137.6 97.9 167.8 118.9C204.495 108.633 243.305 108.633 280 118.9C310.2 97.9 328.5 94.8 336.6 94.8C338.282 94.7402 339.964 94.9084 341.6 95.3C353.8 126.9 346.1 150.3 343.8 156.1C358.1 172.2 366.8 192.7 366.8 217.7C366.8 305.9 314.4 325.3 264.5 331C272.5 338.1 279.7 352.1 279.7 373.5C279.7 404.2 279.4 429 279.4 436.5C279.4 441.9 282.5 448 290.8 448C292.144 448.006 293.484 447.872 294.8 447.6C383.9 417.2 448 331.1 448 229.7C448 102.9 347.7 0 224 0Z" fill="white"/>
</svg>
