<?xml version="1.0" encoding="UTF-8"?><svg xmlns="http://www.w3.org/2000/svg" viewBox="0 0 66.39 97.06"><defs><style>.cls-1{fill:#fff;}.cls-2{fill:#add366;}</style></defs><g id="Layer_2"><path class="cls-2" d="M7.14,10.41c3.74-6.71,11.96-7.78,13.19-7.94,2.07-.27,3.72-.11,4.77,0,3.24,.34,6.66,.7,8.58,3.34,1.2,1.65,1.26,3.44,1.27,3.97,.01,.63-.02,3.01-2.54,6.04-1.48,1.77-2.73,2.47-12.07,6.99-6.19,2.99-6.89,3.29-8.26,4.45-2.04,1.73-2.91,3.12-3.97,2.86-1.76-.43-2.06-4.96-2.22-7.47-.39-5.91-.58-8.91,1.27-12.23Z"/></g><g id="Layer_3"><path class="cls-1" d="M22.07,97.06H61.4s3.78-16.82,3.78-20.23,.13-24.23-1.47-26.91-1.93-16.56-15.98-19.74c-14.05-3.18-22.82-2.11-28.48,1.72-5.66,3.83-14.03,16.01-13.62,16.95s-.01,7.12-.01,7.12L.78,62.68l3.53,8.36s9.97,4.87,11.92,4.44,13.49,1.98,13.49,1.98l-3.43,11.93-4.23,7.67Z"/></g><g id="Layer_1"><ellipse class="cls-1" cx="12.93" cy="51.57" rx="6.31" ry="5.6"/><ellipse class="cls-1" cx="40.08" cy="53.38" rx="9.5" ry="6.31"/><path d="M33.77,77.01c-2.32,.67-2.9,1.16-3.88,5.44-.71,3.14-1.82,6.58-3.49,9.65-.85,1.56-2.05,3.04-2.13,4.96h-4c2.26-4.91,5.02-9.6,6.38-14.92,.97-3.81,.97-4.12-2.79-4.05-5.15,.09-10.13-.58-15.13-1.95C-.38,73.65-2.38,61.49,2.83,56.08c1.15-1.2,1.4-2.46,1.49-4.02,.45-7.8,3.37-14.6,9.72-19.23,4.81-3.5,10.53-5.33,16.56-5.77,.66-.05,1.33,0,2,0,4.14-.11,4.69-.55,5.69-4.63,.71-2.9,1.84-5.62,3.35-8.2,.55-.94,2.63-1.64,.61-3.06-2.39-1.68-4.05-1.47-5.25,.78-1.25,2.35-2.59,4.55-4.51,6.47-2.17,2.17-4.63,3.67-7.5,4.64-4.86,1.63-9.57,3.43-13.46,7.07-2.54,2.38-7.07,.67-7.14-2.68-.12-5.62,.02-9.19,1.42-13.5C8.2,6.62,15.71,.25,23.83,0c3.03-.09,5.49,.69,9.54,1.98,6.76,2.15,8.81,3.77,12.23,4.94,1.26,.43,2.51,.88,3.62,1.55,1.16,.7,1.42,1.82,.34,2.92-.46,.48-.95,.93-1.47,1.35-3.5,2.8-4.17,6.58-3.81,10.76,.22,2.51,1.01,4.29,3.85,4.91,4.87,1.06,8.61,4.02,11.86,7.7,4.11,4.65,6.07,10.15,6.26,16.24,.18,5.83,.18,11.11,.09,17.5-.12,9.38-.98,18.39-4.05,27.2h-3c-.42-2.09,.8-3.84,1.29-5.72,1.46-5.57,2.9-11.09,2.75-16.95-.18-6.65,.12-13.31-.09-19.96-.18-5.85-1.81-11.34-5.36-16.11-4.21-5.65-10.58-7.31-16.92-8.11-8.48-1.07-16.73,.32-24.34,4.77-3.56,2.08-5.39,5.23-7,8.7-.37,.81,.09,1.26,.87,1.31,1.33,.07,2.67-.04,3.99,.09,3.95,.4,5.82,2.54,5.82,6.51,0,3.94-1.92,6.11-5.88,6.43-1.81,.14-4.42,.5-6.05-.31-1.06-.53-.87-1.78-2.33-.77-1.17,.81-1.67,2.06-2.17,3.26-2.16,5.19,.08,10.95,5.27,12.63,7.96,2.58,16.12,3.03,24.4,1.55,6.01-1.07,11.03-4.36,16.07-8.16,.44-.33,2.37,1.31,2.25,2.21-.26,2.02,.1-.43,0,0-.48,2.08-3.96,3.25-6,4.07M10.29,27.59c3.65-3.47,8.1-5.51,12.82-6.99,.95-.3,1.83-.71,2.76-1,4.4-1.36,6.51-4.84,8.08-8.73,1.05-2.59,.2-4.03-2.34-5.63C20.91-1.49,10.43,6.89,7.91,13.77c-1.89,5.15-2.86,14.67,.35,13.81,.67,1.14,1.35,1.14,2.02,0Zm7.95,22.98c0,.79,.02,.46,0,.13-.04-.73-.43-1.25-1.04-1.59-.41-.23-.42-.2-.92,1.56-1.18,4.2-4.61,5.27-7.83,2.44-.32-.28,0-1.5-1-.72-.18,.14-.19,.66-.1,.95,.76,2.52,3.15,3.67,6.43,3.14,3.21-.52,4.58-1.98,4.46-5.91Z"/><path d="M39.86,59.65c-1.16,0-2.32,.1-3.47-.02-3.92-.41-5.81-2.64-5.81-6.73,0-4.13,1.85-6.44,5.75-6.78,2.46-.21,4.97-.2,7.43,0,3.92,.32,5.81,2.62,5.82,6.72,0,4.13-1.86,6.38-5.75,6.79-1.31,.14-2.64,.02-3.96,.02Zm-.07-1.97c1.47-.14,3-.04,4.39-.46,3.14-.95,4.15-3.09,3.19-6.32-.13-.43-.56-.96-.96-1.08-1.15-.37-.77,.77-.79,1.19-.13,2.64-1.41,4.3-3.89,4.39-2.85,.11-6.07,1-7.94-2.5-.36-.67,.1-1.72-.9-2.08-.1,.84-.23,1.68-.3,2.53-.13,1.59,.7,2.41,1.96,3.21,1.68,1.07,3.43,.99,5.23,1.11Z"/><path d="M6.18,28.34c-.1,.65,.75-5.49,3.4-8.09,1.72-1.69,3.56-3.31,5.24-5.06,2.23-2.32,5.17-4.09,5.55-7.8,.16-1.51,1.82-1.95,3.36-1.77,1.36,.16,2.26,.91,2.5,2.26,.26,1.46-.1,2.76-1.58,3.41-6.47,2.85-11.48,6.54-14.76,11.86-1.43,2.32-1.6,3.3-1.55,5.2-.72,1.18-1.43,1.18-2.15,0Z"/><circle class="cls-2" cx="23.32" cy="8.37" r="1.25"/></g></svg>